<?xml version="1.0" encoding="UTF-8" standalone="no"?>
<!DOCTYPE svg PUBLIC "-//W3C//DTD SVG 1.1//EN"
 "http://www.w3.org/Graphics/SVG/1.1/DTD/svg11.dtd">
<!-- Generated by graphviz version 2.46.0 (0)
 -->
<!-- Pages: 1 -->
<svg width="619pt" height="499pt"
 viewBox="0.00 0.00 618.54 499.00" xmlns="http://www.w3.org/2000/svg" xmlns:xlink="http://www.w3.org/1999/xlink">
<g id="graph0" class="graph" transform="scale(1 1) rotate(0) translate(4 495)">
<polygon fill="white" stroke="transparent" points="-4,4 -4,-495 614.54,-495 614.54,4 -4,4"/>
<text text-anchor="middle" x="305.27" y="-475.8" font-family="Times,serif" font-size="14.00">AttentionAddNorm</text>
<!-- inp_input.1 -->
<g id="node1" class="node">
<title>inp_input.1</title>
<ellipse fill="none" stroke="black" cx="154.5" cy="-450" rx="63.09" ry="18"/>
<text text-anchor="middle" x="154.5" y="-446.3" font-family="Times,serif" font-size="14.00">inp_input.1</text>
</g>
<!-- .269 -->
<g id="node5" class="node">
<title>.269</title>
<polygon fill="none" stroke="black" points="324.5,-396 200.5,-396 200.5,-360 324.5,-360 324.5,-396"/>
<text text-anchor="middle" x="262.5" y="-374.3" font-family="Times,serif" font-size="14.00">Q_proj (Linear)</text>
</g>
<!-- inp_input.1&#45;&gt;.269 -->
<g id="edge1" class="edge">
<title>inp_input.1&#45;&gt;.269</title>
<path fill="none" stroke="black" d="M178.74,-433.29C193.12,-423.97 211.59,-412 227.52,-401.67"/>
<polygon fill="black" stroke="black" points="229.59,-404.5 236.07,-396.13 225.78,-398.63 229.59,-404.5"/>
</g>
<!-- input -->
<g id="node11" class="node">
<title>input</title>
<path fill="none" stroke="black" d="M111.5,-180C111.5,-180 81.5,-180 81.5,-180 75.5,-180 69.5,-174 69.5,-168 69.5,-168 69.5,-156 69.5,-156 69.5,-150 75.5,-144 81.5,-144 81.5,-144 111.5,-144 111.5,-144 117.5,-144 123.5,-150 123.5,-156 123.5,-156 123.5,-168 123.5,-168 123.5,-174 117.5,-180 111.5,-180"/>
<text text-anchor="middle" x="96.5" y="-158.3" font-family="Times,serif" font-size="14.00">add</text>
</g>
<!-- inp_input.1&#45;&gt;input -->
<g id="edge10" class="edge">
<title>inp_input.1&#45;&gt;input</title>
<path fill="none" stroke="black" d="M114.86,-435.9C96.39,-427.58 76.16,-414.76 65.5,-396 27.55,-329.23 62.15,-234.72 83.14,-189.33"/>
<polygon fill="black" stroke="black" points="86.37,-190.7 87.51,-180.16 80.05,-187.68 86.37,-190.7"/>
</g>
<!-- inp_input.2 -->
<g id="node2" class="node">
<title>inp_input.2</title>
<ellipse fill="none" stroke="black" cx="403.5" cy="-450" rx="63.09" ry="18"/>
<text text-anchor="middle" x="403.5" y="-446.3" font-family="Times,serif" font-size="14.00">inp_input.2</text>
</g>
<!-- .270 -->
<g id="node6" class="node">
<title>.270</title>
<polygon fill="none" stroke="black" points="466,-396 343,-396 343,-360 466,-360 466,-396"/>
<text text-anchor="middle" x="404.5" y="-374.3" font-family="Times,serif" font-size="14.00">K_proj (Linear)</text>
</g>
<!-- inp_input.2&#45;&gt;.270 -->
<g id="edge2" class="edge">
<title>inp_input.2&#45;&gt;.270</title>
<path fill="none" stroke="black" d="M403.75,-431.7C403.86,-423.98 403.99,-414.71 404.11,-406.11"/>
<polygon fill="black" stroke="black" points="407.61,-406.15 404.26,-396.1 400.61,-406.05 407.61,-406.15"/>
</g>
<!-- inp_input.3 -->
<g id="node3" class="node">
<title>inp_input.3</title>
<ellipse fill="none" stroke="black" cx="547.5" cy="-450" rx="63.09" ry="18"/>
<text text-anchor="middle" x="547.5" y="-446.3" font-family="Times,serif" font-size="14.00">inp_input.3</text>
</g>
<!-- .271 -->
<g id="node7" class="node">
<title>.271</title>
<polygon fill="none" stroke="black" points="607.5,-396 485.5,-396 485.5,-360 607.5,-360 607.5,-396"/>
<text text-anchor="middle" x="546.5" y="-374.3" font-family="Times,serif" font-size="14.00">V_proj (Linear)</text>
</g>
<!-- inp_input.3&#45;&gt;.271 -->
<g id="edge3" class="edge">
<title>inp_input.3&#45;&gt;.271</title>
<path fill="none" stroke="black" d="M547.25,-431.7C547.14,-423.98 547.01,-414.71 546.89,-406.11"/>
<polygon fill="black" stroke="black" points="550.39,-406.05 546.74,-396.1 543.39,-406.15 550.39,-406.05"/>
</g>
<!-- inp_mask -->
<g id="node4" class="node">
<title>inp_mask</title>
<ellipse fill="none" stroke="black" cx="128.5" cy="-378" rx="53.89" ry="18"/>
<text text-anchor="middle" x="128.5" y="-374.3" font-family="Times,serif" font-size="14.00">inp_mask</text>
</g>
<!-- input.5 -->
<g id="node9" class="node">
<title>input.5</title>
<path fill="none" stroke="black" d="M386.5,-324C386.5,-324 138.5,-324 138.5,-324 132.5,-324 126.5,-318 126.5,-312 126.5,-312 126.5,-300 126.5,-300 126.5,-294 132.5,-288 138.5,-288 138.5,-288 386.5,-288 386.5,-288 392.5,-288 398.5,-294 398.5,-300 398.5,-300 398.5,-312 398.5,-312 398.5,-318 392.5,-324 386.5,-324"/>
<text text-anchor="middle" x="262.5" y="-302.3" font-family="Times,serif" font-size="14.00">masked_fill pow softmaxdiv matmul</text>
</g>
<!-- inp_mask&#45;&gt;input.5 -->
<g id="edge6" class="edge">
<title>inp_mask&#45;&gt;input.5</title>
<path fill="none" stroke="black" d="M156.26,-362.5C174.83,-352.8 199.6,-339.86 220.55,-328.91"/>
<polygon fill="black" stroke="black" points="222.32,-331.94 229.57,-324.2 219.08,-325.73 222.32,-331.94"/>
</g>
<!-- .269&#45;&gt;input.5 -->
<g id="edge4" class="edge">
<title>.269&#45;&gt;input.5</title>
<path fill="none" stroke="black" d="M262.5,-359.7C262.5,-351.98 262.5,-342.71 262.5,-334.11"/>
<polygon fill="black" stroke="black" points="266,-334.1 262.5,-324.1 259,-334.1 266,-334.1"/>
</g>
<!-- .270&#45;&gt;input.5 -->
<g id="edge5" class="edge">
<title>.270&#45;&gt;input.5</title>
<path fill="none" stroke="black" d="M369.76,-359.88C350.68,-350.47 326.82,-338.71 306.45,-328.67"/>
<polygon fill="black" stroke="black" points="307.89,-325.47 297.37,-324.19 304.79,-331.75 307.89,-325.47"/>
</g>
<!-- .271&#45;&gt;input.5 -->
<g id="edge7" class="edge">
<title>.271&#45;&gt;input.5</title>
<path fill="none" stroke="black" d="M485.23,-361.9C443.15,-351.53 386.9,-337.66 341.46,-326.46"/>
<polygon fill="black" stroke="black" points="342.19,-323.04 331.64,-324.04 340.52,-329.83 342.19,-323.04"/>
</g>
<!-- .272 -->
<g id="node8" class="node">
<title>.272</title>
<polygon fill="none" stroke="black" points="277.5,-252 131.5,-252 131.5,-216 277.5,-216 277.5,-252"/>
<text text-anchor="middle" x="204.5" y="-230.3" font-family="Times,serif" font-size="14.00">dropout (Dropout)</text>
</g>
<!-- .272&#45;&gt;input -->
<g id="edge9" class="edge">
<title>.272&#45;&gt;input</title>
<path fill="none" stroke="black" d="M178.08,-215.88C164.09,-206.81 146.72,-195.55 131.61,-185.76"/>
<polygon fill="black" stroke="black" points="133.32,-182.69 123.02,-180.19 129.51,-188.57 133.32,-182.69"/>
</g>
<!-- input.5&#45;&gt;.272 -->
<g id="edge8" class="edge">
<title>input.5&#45;&gt;.272</title>
<path fill="none" stroke="black" d="M248.16,-287.7C241.21,-279.3 232.73,-269.07 225.1,-259.86"/>
<polygon fill="black" stroke="black" points="227.75,-257.57 218.67,-252.1 222.36,-262.04 227.75,-257.57"/>
</g>
<!-- .273 -->
<g id="node10" class="node">
<title>.273</title>
<polygon fill="none" stroke="black" points="193,-108 0,-108 0,-72 193,-72 193,-108"/>
<text text-anchor="middle" x="96.5" y="-86.3" font-family="Times,serif" font-size="14.00">layer_norm (LayerNorm)</text>
</g>
<!-- out_0 -->
<g id="node12" class="node">
<title>out_0</title>
<ellipse fill="none" stroke="black" cx="96.5" cy="-18" rx="36.29" ry="18"/>
<text text-anchor="middle" x="96.5" y="-14.3" font-family="Times,serif" font-size="14.00">out_0</text>
</g>
<!-- .273&#45;&gt;out_0 -->
<g id="edge12" class="edge">
<title>.273&#45;&gt;out_0</title>
<path fill="none" stroke="black" d="M96.5,-71.7C96.5,-63.98 96.5,-54.71 96.5,-46.11"/>
<polygon fill="black" stroke="black" points="100,-46.1 96.5,-36.1 93,-46.1 100,-46.1"/>
</g>
<!-- input&#45;&gt;.273 -->
<g id="edge11" class="edge">
<title>input&#45;&gt;.273</title>
<path fill="none" stroke="black" d="M96.5,-143.7C96.5,-135.98 96.5,-126.71 96.5,-118.11"/>
<polygon fill="black" stroke="black" points="100,-118.1 96.5,-108.1 93,-118.1 100,-118.1"/>
</g>
</g>
</svg>
