<?xml version="1.0" encoding="UTF-8" standalone="no"?>
<!DOCTYPE svg PUBLIC "-//W3C//DTD SVG 1.1//EN"
 "http://www.w3.org/Graphics/SVG/1.1/DTD/svg11.dtd">
<!-- Generated by graphviz version 2.46.0 (0)
 -->
<!-- Pages: 1 -->
<svg width="632pt" height="499pt"
 viewBox="0.00 0.00 632.00 499.00" xmlns="http://www.w3.org/2000/svg" xmlns:xlink="http://www.w3.org/1999/xlink">
<g id="graph0" class="graph" transform="scale(1 1) rotate(0) translate(4 495)">
<polygon fill="white" stroke="transparent" points="-4,4 -4,-495 628,-495 628,4 -4,4"/>
<text text-anchor="middle" x="312" y="-475.8" font-family="Times,serif" font-size="14.00">AttentionAddNorm</text>
<!-- inp_1 -->
<g id="node1" class="node">
<title>inp_1</title>
<ellipse fill="none" stroke="black" cx="163.5" cy="-450" rx="36" ry="18"/>
<text text-anchor="middle" x="163.5" y="-446.3" font-family="Times,serif" font-size="14.00">inp_1</text>
</g>
<!-- .216 -->
<g id="node4" class="node">
<title>.216</title>
<polygon fill="none" stroke="black" points="342.5,-396 218.5,-396 218.5,-360 342.5,-360 342.5,-396"/>
<text text-anchor="middle" x="280.5" y="-374.3" font-family="Times,serif" font-size="14.00">Q_proj (Linear)</text>
</g>
<!-- inp_1&#45;&gt;.216 -->
<g id="edge1" class="edge">
<title>inp_1&#45;&gt;.216</title>
<path fill="none" stroke="black" d="M185.78,-435.67C202.04,-425.94 224.44,-412.54 243.38,-401.21"/>
<polygon fill="black" stroke="black" points="245.3,-404.14 252.08,-396 241.7,-398.13 245.3,-404.14"/>
</g>
<!-- input.31 -->
<g id="node10" class="node">
<title>input.31</title>
<path fill="none" stroke="black" d="M111.5,-180C111.5,-180 81.5,-180 81.5,-180 75.5,-180 69.5,-174 69.5,-168 69.5,-168 69.5,-156 69.5,-156 69.5,-150 75.5,-144 81.5,-144 81.5,-144 111.5,-144 111.5,-144 117.5,-144 123.5,-150 123.5,-156 123.5,-156 123.5,-168 123.5,-168 123.5,-174 117.5,-180 111.5,-180"/>
<text text-anchor="middle" x="96.5" y="-158.3" font-family="Times,serif" font-size="14.00">add</text>
</g>
<!-- inp_1&#45;&gt;input.31 -->
<g id="edge9" class="edge">
<title>inp_1&#45;&gt;input.31</title>
<path fill="none" stroke="black" d="M131.83,-441.18C108.99,-433.7 79.76,-419.93 65.5,-396 26.18,-330.03 61.42,-235.14 82.85,-189.5"/>
<polygon fill="black" stroke="black" points="86.11,-190.8 87.31,-180.28 79.81,-187.76 86.11,-190.8"/>
</g>
<!-- inp_2 -->
<g id="node2" class="node">
<title>inp_2</title>
<ellipse fill="none" stroke="black" cx="491.5" cy="-450" rx="36" ry="18"/>
<text text-anchor="middle" x="491.5" y="-446.3" font-family="Times,serif" font-size="14.00">inp_2</text>
</g>
<!-- .217 -->
<g id="node5" class="node">
<title>.217</title>
<polygon fill="none" stroke="black" points="624,-396 501,-396 501,-360 624,-360 624,-396"/>
<text text-anchor="middle" x="562.5" y="-374.3" font-family="Times,serif" font-size="14.00">K_proj (Linear)</text>
</g>
<!-- inp_2&#45;&gt;.217 -->
<g id="edge2" class="edge">
<title>inp_2&#45;&gt;.217</title>
<path fill="none" stroke="black" d="M507.26,-433.46C516.18,-424.67 527.54,-413.47 537.63,-403.52"/>
<polygon fill="black" stroke="black" points="540.38,-405.72 545.04,-396.21 535.47,-400.74 540.38,-405.72"/>
</g>
<!-- .218 -->
<g id="node6" class="node">
<title>.218</title>
<polygon fill="none" stroke="black" points="482.5,-396 360.5,-396 360.5,-360 482.5,-360 482.5,-396"/>
<text text-anchor="middle" x="421.5" y="-374.3" font-family="Times,serif" font-size="14.00">V_proj (Linear)</text>
</g>
<!-- inp_2&#45;&gt;.218 -->
<g id="edge3" class="edge">
<title>inp_2&#45;&gt;.218</title>
<path fill="none" stroke="black" d="M475.96,-433.46C467.23,-424.73 456.13,-413.63 446.24,-403.74"/>
<polygon fill="black" stroke="black" points="448.51,-401.06 438.96,-396.46 443.56,-406.01 448.51,-401.06"/>
</g>
<!-- inp_mask.1 -->
<g id="node3" class="node">
<title>inp_mask.1</title>
<ellipse fill="none" stroke="black" cx="137.5" cy="-378" rx="63.09" ry="18"/>
<text text-anchor="middle" x="137.5" y="-374.3" font-family="Times,serif" font-size="14.00">inp_mask.1</text>
</g>
<!-- input.30 -->
<g id="node8" class="node">
<title>input.30</title>
<path fill="none" stroke="black" d="M404.5,-324C404.5,-324 156.5,-324 156.5,-324 150.5,-324 144.5,-318 144.5,-312 144.5,-312 144.5,-300 144.5,-300 144.5,-294 150.5,-288 156.5,-288 156.5,-288 404.5,-288 404.5,-288 410.5,-288 416.5,-294 416.5,-300 416.5,-300 416.5,-312 416.5,-312 416.5,-318 410.5,-324 404.5,-324"/>
<text text-anchor="middle" x="280.5" y="-302.3" font-family="Times,serif" font-size="14.00">div matmul pow softmaxmasked_fill</text>
</g>
<!-- inp_mask.1&#45;&gt;input.30 -->
<g id="edge5" class="edge">
<title>inp_mask.1&#45;&gt;input.30</title>
<path fill="none" stroke="black" d="M167.83,-362.15C187.77,-352.39 214.2,-339.46 236.44,-328.57"/>
<polygon fill="black" stroke="black" points="238.25,-331.58 245.69,-324.04 235.17,-325.29 238.25,-331.58"/>
</g>
<!-- .216&#45;&gt;input.30 -->
<g id="edge4" class="edge">
<title>.216&#45;&gt;input.30</title>
<path fill="none" stroke="black" d="M280.5,-359.7C280.5,-351.98 280.5,-342.71 280.5,-334.11"/>
<polygon fill="black" stroke="black" points="284,-334.1 280.5,-324.1 277,-334.1 284,-334.1"/>
</g>
<!-- .217&#45;&gt;input.30 -->
<g id="edge7" class="edge">
<title>.217&#45;&gt;input.30</title>
<path fill="none" stroke="black" d="M500.96,-361.72C459.3,-351.38 403.9,-337.63 359.06,-326.5"/>
<polygon fill="black" stroke="black" points="359.63,-323.04 349.08,-324.02 357.94,-329.83 359.63,-323.04"/>
</g>
<!-- .218&#45;&gt;input.30 -->
<g id="edge6" class="edge">
<title>.218&#45;&gt;input.30</title>
<path fill="none" stroke="black" d="M387.01,-359.88C368.06,-350.47 344.37,-338.71 324.14,-328.67"/>
<polygon fill="black" stroke="black" points="325.64,-325.5 315.13,-324.19 322.53,-331.77 325.64,-325.5"/>
</g>
<!-- .219 -->
<g id="node7" class="node">
<title>.219</title>
<polygon fill="none" stroke="black" points="286.5,-252 140.5,-252 140.5,-216 286.5,-216 286.5,-252"/>
<text text-anchor="middle" x="213.5" y="-230.3" font-family="Times,serif" font-size="14.00">dropout (Dropout)</text>
</g>
<!-- .219&#45;&gt;input.31 -->
<g id="edge10" class="edge">
<title>.219&#45;&gt;input.31</title>
<path fill="none" stroke="black" d="M184.88,-215.88C169.12,-206.45 149.42,-194.66 132.61,-184.61"/>
<polygon fill="black" stroke="black" points="134,-181.36 123.62,-179.23 130.4,-187.36 134,-181.36"/>
</g>
<!-- input.30&#45;&gt;.219 -->
<g id="edge8" class="edge">
<title>input.30&#45;&gt;.219</title>
<path fill="none" stroke="black" d="M263.94,-287.7C255.82,-279.22 245.91,-268.86 237.03,-259.58"/>
<polygon fill="black" stroke="black" points="239.31,-256.91 229.87,-252.1 234.26,-261.75 239.31,-256.91"/>
</g>
<!-- .220 -->
<g id="node9" class="node">
<title>.220</title>
<polygon fill="none" stroke="black" points="193,-108 0,-108 0,-72 193,-72 193,-108"/>
<text text-anchor="middle" x="96.5" y="-86.3" font-family="Times,serif" font-size="14.00">layer_norm (LayerNorm)</text>
</g>
<!-- out_0 -->
<g id="node11" class="node">
<title>out_0</title>
<ellipse fill="none" stroke="black" cx="96.5" cy="-18" rx="36.29" ry="18"/>
<text text-anchor="middle" x="96.5" y="-14.3" font-family="Times,serif" font-size="14.00">out_0</text>
</g>
<!-- .220&#45;&gt;out_0 -->
<g id="edge12" class="edge">
<title>.220&#45;&gt;out_0</title>
<path fill="none" stroke="black" d="M96.5,-71.7C96.5,-63.98 96.5,-54.71 96.5,-46.11"/>
<polygon fill="black" stroke="black" points="100,-46.1 96.5,-36.1 93,-46.1 100,-46.1"/>
</g>
<!-- input.31&#45;&gt;.220 -->
<g id="edge11" class="edge">
<title>input.31&#45;&gt;.220</title>
<path fill="none" stroke="black" d="M96.5,-143.7C96.5,-135.98 96.5,-126.71 96.5,-118.11"/>
<polygon fill="black" stroke="black" points="100,-118.1 96.5,-108.1 93,-118.1 100,-118.1"/>
</g>
</g>
</svg>
