<?xml version="1.0" encoding="UTF-8" standalone="no"?>
<!DOCTYPE svg PUBLIC "-//W3C//DTD SVG 1.1//EN"
 "http://www.w3.org/Graphics/SVG/1.1/DTD/svg11.dtd">
<!-- Generated by graphviz version 2.46.0 (0)
 -->
<!-- Pages: 1 -->
<svg width="615pt" height="427pt"
 viewBox="0.00 0.00 615.09 427.00" xmlns="http://www.w3.org/2000/svg" xmlns:xlink="http://www.w3.org/1999/xlink">
<g id="graph0" class="graph" transform="scale(1 1) rotate(0) translate(4 423)">
<polygon fill="white" stroke="transparent" points="-4,4 -4,-423 611.09,-423 611.09,4 -4,4"/>
<text text-anchor="middle" x="303.54" y="-403.8" font-family="Times,serif" font-size="14.00">TransformerDecoder</text>
<!-- inp_input.8 -->
<g id="node1" class="node">
<title>inp_input.8</title>
<ellipse fill="none" stroke="black" cx="63.04" cy="-306" rx="63.09" ry="18"/>
<text text-anchor="middle" x="63.04" y="-302.3" font-family="Times,serif" font-size="14.00">inp_input.8</text>
</g>
<!-- .1236 -->
<g id="node6" class="node">
<title>.1236</title>
<polygon fill="none" stroke="black" points="381.04,-252 193.04,-252 193.04,-216 381.04,-216 381.04,-252"/>
<text text-anchor="middle" x="287.04" y="-230.3" font-family="Times,serif" font-size="14.00">blocks.0 (DecoderBlock)</text>
</g>
<!-- inp_input.8&#45;&gt;.1236 -->
<g id="edge4" class="edge">
<title>inp_input.8&#45;&gt;.1236</title>
<path fill="none" stroke="black" d="M103.87,-292.24C137,-281.89 184.32,-267.1 222.56,-255.15"/>
<polygon fill="black" stroke="black" points="224.08,-258.34 232.58,-252.02 221.99,-251.66 224.08,-258.34"/>
</g>
<!-- .1237 -->
<g id="node7" class="node">
<title>.1237</title>
<polygon fill="none" stroke="black" points="503.04,-180 315.04,-180 315.04,-144 503.04,-144 503.04,-180"/>
<text text-anchor="middle" x="409.04" y="-158.3" font-family="Times,serif" font-size="14.00">blocks.1 (DecoderBlock)</text>
</g>
<!-- inp_input.8&#45;&gt;.1237 -->
<g id="edge8" class="edge">
<title>inp_input.8&#45;&gt;.1237</title>
<path fill="none" stroke="black" d="M80.43,-288.62C102.7,-268.52 143.33,-234.81 184.04,-216 221.83,-198.55 265.93,-186.53 305.02,-178.42"/>
<polygon fill="black" stroke="black" points="305.73,-181.85 314.84,-176.44 304.35,-174.99 305.73,-181.85"/>
</g>
<!-- inp_mask -->
<g id="node2" class="node">
<title>inp_mask</title>
<ellipse fill="none" stroke="black" cx="409.04" cy="-306" rx="53.89" ry="18"/>
<text text-anchor="middle" x="409.04" y="-302.3" font-family="Times,serif" font-size="14.00">inp_mask</text>
</g>
<!-- inp_mask&#45;&gt;.1236 -->
<g id="edge5" class="edge">
<title>inp_mask&#45;&gt;.1236</title>
<path fill="none" stroke="black" d="M383.17,-290.15C366.46,-280.57 344.42,-267.92 325.65,-257.15"/>
<polygon fill="black" stroke="black" points="327.16,-253.98 316.74,-252.04 323.67,-260.05 327.16,-253.98"/>
</g>
<!-- inp_mask&#45;&gt;.1237 -->
<g id="edge9" class="edge">
<title>inp_mask&#45;&gt;.1237</title>
<path fill="none" stroke="black" d="M409.04,-287.87C409.04,-263.67 409.04,-219.21 409.04,-190.39"/>
<polygon fill="black" stroke="black" points="412.54,-190.19 409.04,-180.19 405.54,-190.19 412.54,-190.19"/>
</g>
<!-- inp_input.1 -->
<g id="node3" class="node">
<title>inp_input.1</title>
<ellipse fill="none" stroke="black" cx="241.04" cy="-378" rx="63.09" ry="18"/>
<text text-anchor="middle" x="241.04" y="-374.3" font-family="Times,serif" font-size="14.00">inp_input.1</text>
</g>
<!-- .1235 -->
<g id="node5" class="node">
<title>.1235</title>
<polygon fill="none" stroke="black" points="337.54,-324 144.54,-324 144.54,-288 337.54,-288 337.54,-324"/>
<text text-anchor="middle" x="241.04" y="-302.3" font-family="Times,serif" font-size="14.00">embedding (Embedding)</text>
</g>
<!-- inp_input.1&#45;&gt;.1235 -->
<g id="edge1" class="edge">
<title>inp_input.1&#45;&gt;.1235</title>
<path fill="none" stroke="black" d="M241.04,-359.7C241.04,-351.98 241.04,-342.71 241.04,-334.11"/>
<polygon fill="black" stroke="black" points="244.54,-334.1 241.04,-324.1 237.54,-334.1 244.54,-334.1"/>
</g>
<!-- inp_mask.1 -->
<g id="node4" class="node">
<title>inp_mask.1</title>
<ellipse fill="none" stroke="black" cx="544.04" cy="-306" rx="63.09" ry="18"/>
<text text-anchor="middle" x="544.04" y="-302.3" font-family="Times,serif" font-size="14.00">inp_mask.1</text>
</g>
<!-- inp_mask.1&#45;&gt;.1236 -->
<g id="edge3" class="edge">
<title>inp_mask.1&#45;&gt;.1236</title>
<path fill="none" stroke="black" d="M500.16,-293.05C461.56,-282.53 404.62,-267.02 359.31,-254.68"/>
<polygon fill="black" stroke="black" points="360.1,-251.27 349.53,-252.02 358.26,-258.02 360.1,-251.27"/>
</g>
<!-- inp_mask.1&#45;&gt;.1237 -->
<g id="edge7" class="edge">
<title>inp_mask.1&#45;&gt;.1237</title>
<path fill="none" stroke="black" d="M528.29,-288.43C504.67,-263.58 459.91,-216.5 432.45,-187.62"/>
<polygon fill="black" stroke="black" points="434.96,-185.18 425.54,-180.35 429.89,-190.01 434.96,-185.18"/>
</g>
<!-- .1235&#45;&gt;.1236 -->
<g id="edge2" class="edge">
<title>.1235&#45;&gt;.1236</title>
<path fill="none" stroke="black" d="M252.42,-287.7C257.76,-279.56 264.25,-269.69 270.15,-260.7"/>
<polygon fill="black" stroke="black" points="273.24,-262.38 275.8,-252.1 267.39,-258.54 273.24,-262.38"/>
</g>
<!-- .1236&#45;&gt;.1237 -->
<g id="edge6" class="edge">
<title>.1236&#45;&gt;.1237</title>
<path fill="none" stroke="black" d="M316.89,-215.88C332.99,-206.64 353.05,-195.13 370.33,-185.21"/>
<polygon fill="black" stroke="black" points="372.15,-188.2 379.09,-180.19 368.67,-182.13 372.15,-188.2"/>
</g>
<!-- out_0 -->
<g id="node9" class="node">
<title>out_0</title>
<ellipse fill="none" stroke="black" cx="398.04" cy="-18" rx="36.29" ry="18"/>
<text text-anchor="middle" x="398.04" y="-14.3" font-family="Times,serif" font-size="14.00">out_0</text>
</g>
<!-- .1236&#45;&gt;out_0 -->
<g id="edge12" class="edge">
<title>.1236&#45;&gt;out_0</title>
<path fill="none" stroke="black" d="M284.37,-215.81C280.44,-184.41 276.46,-116.88 306.04,-72 318.28,-53.44 339.41,-40.6 358.34,-32.21"/>
<polygon fill="black" stroke="black" points="359.79,-35.4 367.69,-28.34 357.11,-28.93 359.79,-35.4"/>
</g>
<!-- .1238 -->
<g id="node8" class="node">
<title>.1238</title>
<polygon fill="none" stroke="black" points="481.54,-108 314.54,-108 314.54,-72 481.54,-72 481.54,-108"/>
<text text-anchor="middle" x="398.04" y="-86.3" font-family="Times,serif" font-size="14.00">output_layer (Linear)</text>
</g>
<!-- .1237&#45;&gt;.1238 -->
<g id="edge10" class="edge">
<title>.1237&#45;&gt;.1238</title>
<path fill="none" stroke="black" d="M406.33,-143.7C405.11,-135.98 403.66,-126.71 402.3,-118.11"/>
<polygon fill="black" stroke="black" points="405.74,-117.44 400.73,-108.1 398.83,-118.53 405.74,-117.44"/>
</g>
<!-- .1237&#45;&gt;out_0 -->
<g id="edge11" class="edge">
<title>.1237&#45;&gt;out_0</title>
<path fill="none" stroke="black" d="M451.66,-143.99C466.92,-135.58 482.45,-123.78 491.04,-108 498.69,-93.95 499.08,-85.83 491.04,-72 479.65,-52.39 457.99,-39.43 438.43,-31.24"/>
<polygon fill="black" stroke="black" points="439.65,-27.96 429.06,-27.6 437.11,-34.48 439.65,-27.96"/>
</g>
<!-- .1238&#45;&gt;out_0 -->
<g id="edge13" class="edge">
<title>.1238&#45;&gt;out_0</title>
<path fill="none" stroke="black" d="M398.04,-71.7C398.04,-63.98 398.04,-54.71 398.04,-46.11"/>
<polygon fill="black" stroke="black" points="401.54,-46.1 398.04,-36.1 394.54,-46.1 401.54,-46.1"/>
</g>
</g>
</svg>
