<?xml version="1.0" encoding="UTF-8" standalone="no"?>
<!DOCTYPE svg PUBLIC "-//W3C//DTD SVG 1.1//EN"
 "http://www.w3.org/Graphics/SVG/1.1/DTD/svg11.dtd">
<!-- Generated by graphviz version 2.46.0 (0)
 -->
<!-- Pages: 1 -->
<svg width="1354pt" height="1305pt"
 viewBox="0.00 0.00 1354.04 1305.00" xmlns="http://www.w3.org/2000/svg" xmlns:xlink="http://www.w3.org/1999/xlink">
<g id="graph0" class="graph" transform="scale(1 1) rotate(0) translate(4 1301)">
<polygon fill="white" stroke="transparent" points="-4,4 -4,-1301 1350.04,-1301 1350.04,4 -4,4"/>
<text text-anchor="middle" x="673.02" y="-1281.8" font-family="Times,serif" font-size="14.00">DecoderBlock</text>
<g id="clust1" class="cluster">
<title>cluster_.587</title>
<polygon fill="none" stroke="black" points="188,-723 188,-1230 1212,-1230 1212,-723 188,-723"/>
<text text-anchor="middle" x="700" y="-1214.8" font-family="Times,serif" font-size="14.00">self_attention (AttentionAddNorm)</text>
</g>
<g id="clust2" class="cluster">
<title>cluster_.588</title>
<polygon fill="none" stroke="black" points="8,-136 8,-715 1066,-715 1066,-136 8,-136"/>
<text text-anchor="middle" x="537" y="-699.8" font-family="Times,serif" font-size="14.00">cross_attention (AttentionAddNorm)</text>
</g>
<!-- inp_input.6 -->
<g id="node1" class="node">
<title>inp_input.6</title>
<ellipse fill="none" stroke="black" cx="117" cy="-749" rx="63.09" ry="18"/>
<text text-anchor="middle" x="117" y="-745.3" font-family="Times,serif" font-size="14.00">inp_input.6</text>
</g>
<!-- cross_attention.inp_input.6 -->
<g id="node16" class="node">
<title>cross_attention.inp_input.6</title>
<ellipse fill="none" stroke="black" cx="153" cy="-666" rx="137.28" ry="18"/>
<text text-anchor="middle" x="153" y="-662.3" font-family="Times,serif" font-size="14.00">cross_attention.inp_input.6</text>
</g>
<!-- inp_input.6&#45;&gt;cross_attention.inp_input.6 -->
<g id="edge16" class="edge">
<title>inp_input.6&#45;&gt;cross_attention.inp_input.6</title>
<path fill="none" stroke="black" d="M124.63,-730.82C129.46,-719.98 135.78,-705.74 141.23,-693.47"/>
<polygon fill="black" stroke="black" points="144.51,-694.71 145.38,-684.15 138.12,-691.87 144.51,-694.71"/>
</g>
<!-- inp_mask -->
<g id="node2" class="node">
<title>inp_mask</title>
<ellipse fill="none" stroke="black" cx="1128" cy="-666" rx="53.89" ry="18"/>
<text text-anchor="middle" x="1128" y="-662.3" font-family="Times,serif" font-size="14.00">inp_mask</text>
</g>
<!-- cross_attention.inp_mask -->
<g id="node17" class="node">
<title>cross_attention.inp_mask</title>
<ellipse fill="none" stroke="black" cx="930" cy="-594" rx="128.08" ry="18"/>
<text text-anchor="middle" x="930" y="-590.3" font-family="Times,serif" font-size="14.00">cross_attention.inp_mask</text>
</g>
<!-- inp_mask&#45;&gt;cross_attention.inp_mask -->
<g id="edge17" class="edge">
<title>inp_mask&#45;&gt;cross_attention.inp_mask</title>
<path fill="none" stroke="black" d="M1092.14,-652.32C1062.22,-641.75 1019.09,-626.5 984.84,-614.39"/>
<polygon fill="black" stroke="black" points="985.57,-610.93 974.97,-610.9 983.23,-617.53 985.57,-610.93"/>
</g>
<!-- inp_input.1 -->
<g id="node3" class="node">
<title>inp_input.1</title>
<ellipse fill="none" stroke="black" cx="673" cy="-1256" rx="63.09" ry="18"/>
<text text-anchor="middle" x="673" y="-1252.3" font-family="Times,serif" font-size="14.00">inp_input.1</text>
</g>
<!-- self_attention.inp_input.1 -->
<g id="node5" class="node">
<title>self_attention.inp_input.1</title>
<ellipse fill="none" stroke="black" cx="673" cy="-1181" rx="129.18" ry="18"/>
<text text-anchor="middle" x="673" y="-1177.3" font-family="Times,serif" font-size="14.00">self_attention.inp_input.1</text>
</g>
<!-- inp_input.1&#45;&gt;self_attention.inp_input.1 -->
<g id="edge1" class="edge">
<title>inp_input.1&#45;&gt;self_attention.inp_input.1</title>
<path fill="none" stroke="black" d="M673,-1237.7C673,-1229.25 673,-1218.87 673,-1209.37"/>
<polygon fill="black" stroke="black" points="676.5,-1209.18 673,-1199.18 669.5,-1209.18 676.5,-1209.18"/>
</g>
<!-- inp_mask.1 -->
<g id="node4" class="node">
<title>inp_mask.1</title>
<ellipse fill="none" stroke="black" cx="1283" cy="-1181" rx="63.09" ry="18"/>
<text text-anchor="middle" x="1283" y="-1177.3" font-family="Times,serif" font-size="14.00">inp_mask.1</text>
</g>
<!-- self_attention.inp_mask.1 -->
<g id="node6" class="node">
<title>self_attention.inp_mask.1</title>
<ellipse fill="none" stroke="black" cx="1075" cy="-1109" rx="129.18" ry="18"/>
<text text-anchor="middle" x="1075" y="-1105.3" font-family="Times,serif" font-size="14.00">self_attention.inp_mask.1</text>
</g>
<!-- inp_mask.1&#45;&gt;self_attention.inp_mask.1 -->
<g id="edge2" class="edge">
<title>inp_mask.1&#45;&gt;self_attention.inp_mask.1</title>
<path fill="none" stroke="black" d="M1243.88,-1166.83C1212.25,-1156.19 1167.3,-1141.06 1131.73,-1129.09"/>
<polygon fill="black" stroke="black" points="1132.55,-1125.68 1121.96,-1125.8 1130.32,-1132.31 1132.55,-1125.68"/>
</g>
<!-- self_attention..204 -->
<g id="node7" class="node">
<title>self_attention..204</title>
<polygon fill="none" stroke="black" points="664,-1127 438,-1127 438,-1091 664,-1091 664,-1127"/>
<text text-anchor="middle" x="551" y="-1105.3" font-family="Times,serif" font-size="14.00">self_attention.Q_proj (Linear)</text>
</g>
<!-- self_attention.inp_input.1&#45;&gt;self_attention..204 -->
<g id="edge3" class="edge">
<title>self_attention.inp_input.1&#45;&gt;self_attention..204</title>
<path fill="none" stroke="black" d="M644.09,-1163.41C627.89,-1154.12 607.46,-1142.4 589.88,-1132.31"/>
<polygon fill="black" stroke="black" points="591.39,-1129.14 580.98,-1127.2 587.91,-1135.21 591.39,-1129.14"/>
</g>
<!-- self_attention..205 -->
<g id="node8" class="node">
<title>self_attention..205</title>
<polygon fill="none" stroke="black" points="907.5,-1127 682.5,-1127 682.5,-1091 907.5,-1091 907.5,-1127"/>
<text text-anchor="middle" x="795" y="-1105.3" font-family="Times,serif" font-size="14.00">self_attention.K_proj (Linear)</text>
</g>
<!-- self_attention.inp_input.1&#45;&gt;self_attention..205 -->
<g id="edge4" class="edge">
<title>self_attention.inp_input.1&#45;&gt;self_attention..205</title>
<path fill="none" stroke="black" d="M701.91,-1163.41C718.11,-1154.12 738.54,-1142.4 756.12,-1132.31"/>
<polygon fill="black" stroke="black" points="758.09,-1135.21 765.02,-1127.2 754.61,-1129.14 758.09,-1135.21"/>
</g>
<!-- self_attention..206 -->
<g id="node9" class="node">
<title>self_attention..206</title>
<polygon fill="none" stroke="black" points="420,-1127 196,-1127 196,-1091 420,-1091 420,-1127"/>
<text text-anchor="middle" x="308" y="-1105.3" font-family="Times,serif" font-size="14.00">self_attention.V_proj (Linear)</text>
</g>
<!-- self_attention.inp_input.1&#45;&gt;self_attention..206 -->
<g id="edge5" class="edge">
<title>self_attention.inp_input.1&#45;&gt;self_attention..206</title>
<path fill="none" stroke="black" d="M600.45,-1166.09C545.01,-1155.45 468,-1140.68 406.91,-1128.97"/>
<polygon fill="black" stroke="black" points="407.35,-1125.49 396.87,-1127.04 406.03,-1132.36 407.35,-1125.49"/>
</g>
<!-- self_attention.input.4 -->
<g id="node13" class="node">
<title>self_attention.input.4</title>
<path fill="none" stroke="black" d="M779,-911C779,-911 749,-911 749,-911 743,-911 737,-905 737,-899 737,-899 737,-887 737,-887 737,-881 743,-875 749,-875 749,-875 779,-875 779,-875 785,-875 791,-881 791,-887 791,-887 791,-899 791,-899 791,-905 785,-911 779,-911"/>
<text text-anchor="middle" x="764" y="-889.3" font-family="Times,serif" font-size="14.00">add</text>
</g>
<!-- self_attention.inp_input.1&#45;&gt;self_attention.input.4 -->
<g id="edge12" class="edge">
<title>self_attention.inp_input.1&#45;&gt;self_attention.input.4</title>
<path fill="none" stroke="black" d="M776.88,-1170.28C834.56,-1162.49 898.19,-1149.11 916,-1127 941.23,-1095.67 921.81,-978.66 897,-947 873.86,-917.47 831.77,-904.34 801.12,-898.53"/>
<polygon fill="black" stroke="black" points="801.66,-895.07 791.21,-896.83 800.47,-901.97 801.66,-895.07"/>
</g>
<!-- self_attention.input.3 -->
<g id="node11" class="node">
<title>self_attention.input.3</title>
<path fill="none" stroke="black" d="M886.5,-1055C886.5,-1055 641.5,-1055 641.5,-1055 635.5,-1055 629.5,-1049 629.5,-1043 629.5,-1043 629.5,-1031 629.5,-1031 629.5,-1025 635.5,-1019 641.5,-1019 641.5,-1019 886.5,-1019 886.5,-1019 892.5,-1019 898.5,-1025 898.5,-1031 898.5,-1031 898.5,-1043 898.5,-1043 898.5,-1049 892.5,-1055 886.5,-1055"/>
<text text-anchor="middle" x="764" y="-1033.3" font-family="Times,serif" font-size="14.00">softmax masked_filleinsum div pow</text>
</g>
<!-- self_attention.inp_mask.1&#45;&gt;self_attention.input.3 -->
<g id="edge7" class="edge">
<title>self_attention.inp_mask.1&#45;&gt;self_attention.input.3</title>
<path fill="none" stroke="black" d="M1010.18,-1093.41C963.62,-1082.93 900.38,-1068.7 849.66,-1057.28"/>
<polygon fill="black" stroke="black" points="850.21,-1053.82 839.69,-1055.04 848.68,-1060.65 850.21,-1053.82"/>
</g>
<!-- self_attention..204&#45;&gt;self_attention.input.3 -->
<g id="edge9" class="edge">
<title>self_attention..204&#45;&gt;self_attention.input.3</title>
<path fill="none" stroke="black" d="M602.83,-1090.97C632.85,-1081.1 670.82,-1068.62 702.37,-1058.25"/>
<polygon fill="black" stroke="black" points="703.53,-1061.56 711.93,-1055.11 701.34,-1054.91 703.53,-1061.56"/>
</g>
<!-- self_attention..205&#45;&gt;self_attention.input.3 -->
<g id="edge8" class="edge">
<title>self_attention..205&#45;&gt;self_attention.input.3</title>
<path fill="none" stroke="black" d="M787.34,-1090.7C783.81,-1082.73 779.54,-1073.1 775.63,-1064.26"/>
<polygon fill="black" stroke="black" points="778.82,-1062.83 771.57,-1055.1 772.42,-1065.67 778.82,-1062.83"/>
</g>
<!-- self_attention..206&#45;&gt;self_attention.input.3 -->
<g id="edge6" class="edge">
<title>self_attention..206&#45;&gt;self_attention.input.3</title>
<path fill="none" stroke="black" d="M418.97,-1090.97C486.68,-1080.57 573.3,-1067.27 642.8,-1056.6"/>
<polygon fill="black" stroke="black" points="643.58,-1060.03 652.93,-1055.05 642.52,-1053.11 643.58,-1060.03"/>
</g>
<!-- self_attention..207 -->
<g id="node10" class="node">
<title>self_attention..207</title>
<polygon fill="none" stroke="black" points="888,-983 640,-983 640,-947 888,-947 888,-983"/>
<text text-anchor="middle" x="764" y="-961.3" font-family="Times,serif" font-size="14.00">self_attention.dropout (Dropout)</text>
</g>
<!-- self_attention..207&#45;&gt;self_attention.input.4 -->
<g id="edge11" class="edge">
<title>self_attention..207&#45;&gt;self_attention.input.4</title>
<path fill="none" stroke="black" d="M764,-946.7C764,-938.98 764,-929.71 764,-921.11"/>
<polygon fill="black" stroke="black" points="767.5,-921.1 764,-911.1 760.5,-921.1 767.5,-921.1"/>
</g>
<!-- self_attention.input.3&#45;&gt;self_attention..207 -->
<g id="edge10" class="edge">
<title>self_attention.input.3&#45;&gt;self_attention..207</title>
<path fill="none" stroke="black" d="M764,-1018.7C764,-1010.98 764,-1001.71 764,-993.11"/>
<polygon fill="black" stroke="black" points="767.5,-993.1 764,-983.1 760.5,-993.1 767.5,-993.1"/>
</g>
<!-- self_attention..208 -->
<g id="node12" class="node">
<title>self_attention..208</title>
<polygon fill="none" stroke="black" points="902.5,-839 607.5,-839 607.5,-803 902.5,-803 902.5,-839"/>
<text text-anchor="middle" x="755" y="-817.3" font-family="Times,serif" font-size="14.00">self_attention.layer_norm (LayerNorm)</text>
</g>
<!-- self_attention.out_0 -->
<g id="node14" class="node">
<title>self_attention.out_0</title>
<ellipse fill="none" stroke="black" cx="683" cy="-749" rx="102.88" ry="18"/>
<text text-anchor="middle" x="683" y="-745.3" font-family="Times,serif" font-size="14.00">self_attention.out_0</text>
</g>
<!-- self_attention..208&#45;&gt;self_attention.out_0 -->
<g id="edge14" class="edge">
<title>self_attention..208&#45;&gt;self_attention.out_0</title>
<path fill="none" stroke="black" d="M737.2,-802.7C728.33,-794.07 717.46,-783.5 707.78,-774.1"/>
<polygon fill="black" stroke="black" points="709.95,-771.32 700.34,-766.86 705.07,-776.34 709.95,-771.32"/>
</g>
<!-- self_attention.input.4&#45;&gt;self_attention..208 -->
<g id="edge13" class="edge">
<title>self_attention.input.4&#45;&gt;self_attention..208</title>
<path fill="none" stroke="black" d="M761.78,-874.7C760.78,-866.98 759.59,-857.71 758.49,-849.11"/>
<polygon fill="black" stroke="black" points="761.95,-848.58 757.2,-839.1 755,-849.47 761.95,-848.58"/>
</g>
<!-- cross_attention.inp_7 -->
<g id="node15" class="node">
<title>cross_attention.inp_7</title>
<ellipse fill="none" stroke="black" cx="665" cy="-666" rx="109.68" ry="18"/>
<text text-anchor="middle" x="665" y="-662.3" font-family="Times,serif" font-size="14.00">cross_attention.inp_7</text>
</g>
<!-- self_attention.out_0&#45;&gt;cross_attention.inp_7 -->
<g id="edge15" class="edge">
<title>self_attention.out_0&#45;&gt;cross_attention.inp_7</title>
<path fill="none" stroke="black" d="M679.18,-730.82C676.82,-720.19 673.73,-706.31 671.05,-694.2"/>
<polygon fill="black" stroke="black" points="674.4,-693.16 668.81,-684.15 667.56,-694.67 674.4,-693.16"/>
</g>
<!-- cross_attention..206 -->
<g id="node18" class="node">
<title>cross_attention..206</title>
<polygon fill="none" stroke="black" points="784,-612 546,-612 546,-576 784,-576 784,-612"/>
<text text-anchor="middle" x="665" y="-590.3" font-family="Times,serif" font-size="14.00">cross_attention.Q_proj (Linear)</text>
</g>
<!-- cross_attention.inp_7&#45;&gt;cross_attention..206 -->
<g id="edge18" class="edge">
<title>cross_attention.inp_7&#45;&gt;cross_attention..206</title>
<path fill="none" stroke="black" d="M665,-647.7C665,-639.98 665,-630.71 665,-622.11"/>
<polygon fill="black" stroke="black" points="668.5,-622.1 665,-612.1 661.5,-622.1 668.5,-622.1"/>
</g>
<!-- cross_attention.input.9 -->
<g id="node24" class="node">
<title>cross_attention.input.9</title>
<path fill="none" stroke="black" d="M508,-396C508,-396 478,-396 478,-396 472,-396 466,-390 466,-384 466,-384 466,-372 466,-372 466,-366 472,-360 478,-360 478,-360 508,-360 508,-360 514,-360 520,-366 520,-372 520,-372 520,-384 520,-384 520,-390 514,-396 508,-396"/>
<text text-anchor="middle" x="493" y="-374.3" font-family="Times,serif" font-size="14.00">add</text>
</g>
<!-- cross_attention.inp_7&#45;&gt;cross_attention.input.9 -->
<g id="edge27" class="edge">
<title>cross_attention.inp_7&#45;&gt;cross_attention.input.9</title>
<path fill="none" stroke="black" d="M597.88,-651.74C575.18,-643.91 551.85,-631.53 537,-612 512.61,-579.92 525.26,-470.97 515,-432 512.67,-423.14 509.17,-413.8 505.64,-405.47"/>
<polygon fill="black" stroke="black" points="508.81,-403.98 501.56,-396.25 502.41,-406.81 508.81,-403.98"/>
</g>
<!-- cross_attention..207 -->
<g id="node19" class="node">
<title>cross_attention..207</title>
<polygon fill="none" stroke="black" points="253.5,-612 16.5,-612 16.5,-576 253.5,-576 253.5,-612"/>
<text text-anchor="middle" x="135" y="-590.3" font-family="Times,serif" font-size="14.00">cross_attention.K_proj (Linear)</text>
</g>
<!-- cross_attention.inp_input.6&#45;&gt;cross_attention..207 -->
<g id="edge19" class="edge">
<title>cross_attention.inp_input.6&#45;&gt;cross_attention..207</title>
<path fill="none" stroke="black" d="M148.55,-647.7C146.55,-639.9 144.13,-630.51 141.9,-621.83"/>
<polygon fill="black" stroke="black" points="145.28,-620.92 139.4,-612.1 138.5,-622.66 145.28,-620.92"/>
</g>
<!-- cross_attention..208 -->
<g id="node20" class="node">
<title>cross_attention..208</title>
<polygon fill="none" stroke="black" points="508,-612 272,-612 272,-576 508,-576 508,-612"/>
<text text-anchor="middle" x="390" y="-590.3" font-family="Times,serif" font-size="14.00">cross_attention.V_proj (Linear)</text>
</g>
<!-- cross_attention.inp_input.6&#45;&gt;cross_attention..208 -->
<g id="edge20" class="edge">
<title>cross_attention.inp_input.6&#45;&gt;cross_attention..208</title>
<path fill="none" stroke="black" d="M205.89,-649.38C240.33,-639.21 285.57,-625.85 322.58,-614.91"/>
<polygon fill="black" stroke="black" points="323.69,-618.23 332.29,-612.04 321.71,-611.52 323.69,-618.23"/>
</g>
<!-- cross_attention.input.8 -->
<g id="node22" class="node">
<title>cross_attention.input.8</title>
<path fill="none" stroke="black" d="M495.5,-540C495.5,-540 250.5,-540 250.5,-540 244.5,-540 238.5,-534 238.5,-528 238.5,-528 238.5,-516 238.5,-516 238.5,-510 244.5,-504 250.5,-504 250.5,-504 495.5,-504 495.5,-504 501.5,-504 507.5,-510 507.5,-516 507.5,-516 507.5,-528 507.5,-528 507.5,-534 501.5,-540 495.5,-540"/>
<text text-anchor="middle" x="373" y="-518.3" font-family="Times,serif" font-size="14.00">softmax masked_filleinsum div pow</text>
</g>
<!-- cross_attention.inp_mask&#45;&gt;cross_attention.input.8 -->
<g id="edge23" class="edge">
<title>cross_attention.inp_mask&#45;&gt;cross_attention.input.8</title>
<path fill="none" stroke="black" d="M838.02,-581.44C750.93,-570.5 618.8,-553.89 517.61,-541.17"/>
<polygon fill="black" stroke="black" points="517.96,-537.69 507.6,-539.92 517.09,-544.64 517.96,-537.69"/>
</g>
<!-- inp_cross_attention.out_0 -->
<g id="node26" class="node">
<title>inp_cross_attention.out_0</title>
<path fill="none" stroke="black" d="M671,-252C671,-252 487,-252 487,-252 481,-252 475,-246 475,-240 475,-240 475,-228 475,-228 475,-222 481,-216 487,-216 487,-216 671,-216 671,-216 677,-216 683,-222 683,-228 683,-228 683,-240 683,-240 683,-246 677,-252 671,-252"/>
<text text-anchor="middle" x="579" y="-230.3" font-family="Times,serif" font-size="14.00">masked_fill div einsumpow</text>
</g>
<!-- cross_attention.inp_mask&#45;&gt;inp_cross_attention.out_0 -->
<g id="edge32" class="edge">
<title>cross_attention.inp_mask&#45;&gt;inp_cross_attention.out_0</title>
<path fill="none" stroke="black" d="M900.54,-576.29C864.15,-553.22 807,-507.91 807,-451 807,-451 807,-451 807,-377 807,-310.82 736.94,-274.38 674.49,-255.04"/>
<polygon fill="black" stroke="black" points="675.13,-251.58 664.55,-252.08 673.13,-258.29 675.13,-251.58"/>
</g>
<!-- cross_attention..206&#45;&gt;cross_attention.input.8 -->
<g id="edge24" class="edge">
<title>cross_attention..206&#45;&gt;cross_attention.input.8</title>
<path fill="none" stroke="black" d="M593.94,-575.97C551.65,-565.83 497.84,-552.93 453.91,-542.4"/>
<polygon fill="black" stroke="black" points="454.66,-538.98 444.12,-540.05 453.03,-545.78 454.66,-538.98"/>
</g>
<!-- cross_attention..206&#45;&gt;inp_cross_attention.out_0 -->
<g id="edge29" class="edge">
<title>cross_attention..206&#45;&gt;inp_cross_attention.out_0</title>
<path fill="none" stroke="black" d="M665,-575.95C665,-549.29 665,-496.11 665,-451 665,-451 665,-451 665,-377 665,-337.2 675.36,-322.2 655,-288 647.72,-275.76 636.39,-265.65 624.67,-257.66"/>
<polygon fill="black" stroke="black" points="626.45,-254.64 616.13,-252.22 622.68,-260.54 626.45,-254.64"/>
</g>
<!-- cross_attention..207&#45;&gt;cross_attention.input.8 -->
<g id="edge22" class="edge">
<title>cross_attention..207&#45;&gt;cross_attention.input.8</title>
<path fill="none" stroke="black" d="M192.92,-575.97C226.75,-566.01 269.62,-553.41 305.04,-542.99"/>
<polygon fill="black" stroke="black" points="306.22,-546.29 314.82,-540.11 304.24,-539.57 306.22,-546.29"/>
</g>
<!-- cross_attention..207&#45;&gt;inp_cross_attention.out_0 -->
<g id="edge30" class="edge">
<title>cross_attention..207&#45;&gt;inp_cross_attention.out_0</title>
<path fill="none" stroke="black" d="M143.5,-575.99C155.77,-549.82 177,-497.79 177,-451 177,-451 177,-451 177,-377 177,-315.54 346.19,-274.06 465.05,-252.5"/>
<polygon fill="black" stroke="black" points="465.72,-255.94 474.95,-250.73 464.49,-249.05 465.72,-255.94"/>
</g>
<!-- cross_attention..208&#45;&gt;cross_attention.input.8 -->
<g id="edge21" class="edge">
<title>cross_attention..208&#45;&gt;cross_attention.input.8</title>
<path fill="none" stroke="black" d="M385.8,-575.7C383.9,-567.9 381.62,-558.51 379.52,-549.83"/>
<polygon fill="black" stroke="black" points="382.92,-549 377.15,-540.1 376.11,-550.65 382.92,-549"/>
</g>
<!-- cross_attention..209 -->
<g id="node21" class="node">
<title>cross_attention..209</title>
<polygon fill="none" stroke="black" points="506,-468 246,-468 246,-432 506,-432 506,-468"/>
<text text-anchor="middle" x="376" y="-446.3" font-family="Times,serif" font-size="14.00">cross_attention.dropout (Dropout)</text>
</g>
<!-- cross_attention..209&#45;&gt;cross_attention.input.9 -->
<g id="edge26" class="edge">
<title>cross_attention..209&#45;&gt;cross_attention.input.9</title>
<path fill="none" stroke="black" d="M404.62,-431.88C420.38,-422.45 440.08,-410.66 456.89,-400.61"/>
<polygon fill="black" stroke="black" points="459.1,-403.36 465.88,-395.23 455.5,-397.36 459.1,-403.36"/>
</g>
<!-- cross_attention.input.8&#45;&gt;cross_attention..209 -->
<g id="edge25" class="edge">
<title>cross_attention.input.8&#45;&gt;cross_attention..209</title>
<path fill="none" stroke="black" d="M373.74,-503.7C374.07,-495.98 374.47,-486.71 374.84,-478.11"/>
<polygon fill="black" stroke="black" points="378.34,-478.25 375.27,-468.1 371.34,-477.95 378.34,-478.25"/>
</g>
<!-- cross_attention..210 -->
<g id="node23" class="node">
<title>cross_attention..210</title>
<polygon fill="none" stroke="black" points="646.5,-324 339.5,-324 339.5,-288 646.5,-288 646.5,-324"/>
<text text-anchor="middle" x="493" y="-302.3" font-family="Times,serif" font-size="14.00">cross_attention.layer_norm (LayerNorm)</text>
</g>
<!-- cross_attention..210&#45;&gt;inp_cross_attention.out_0 -->
<g id="edge31" class="edge">
<title>cross_attention..210&#45;&gt;inp_cross_attention.out_0</title>
<path fill="none" stroke="black" d="M514.26,-287.7C525.09,-278.88 538.42,-268.03 550.16,-258.47"/>
<polygon fill="black" stroke="black" points="552.44,-261.13 557.99,-252.1 548.02,-255.7 552.44,-261.13"/>
</g>
<!-- cross_attention.input.9&#45;&gt;cross_attention..210 -->
<g id="edge28" class="edge">
<title>cross_attention.input.9&#45;&gt;cross_attention..210</title>
<path fill="none" stroke="black" d="M493,-359.7C493,-351.98 493,-342.71 493,-334.11"/>
<polygon fill="black" stroke="black" points="496.5,-334.1 493,-324.1 489.5,-334.1 496.5,-334.1"/>
</g>
<!-- cross_attention.out_0 -->
<g id="node25" class="node">
<title>cross_attention.out_0</title>
<ellipse fill="none" stroke="black" cx="579" cy="-162" rx="110.48" ry="18"/>
<text text-anchor="middle" x="579" y="-158.3" font-family="Times,serif" font-size="14.00">cross_attention.out_0</text>
</g>
<!-- .589 -->
<g id="node27" class="node">
<title>.589</title>
<polygon fill="none" stroke="black" points="637,-108 349,-108 349,-72 637,-72 637,-108"/>
<text text-anchor="middle" x="493" y="-86.3" font-family="Times,serif" font-size="14.00">feed_forward (FeedForwardAddNorm)</text>
</g>
<!-- cross_attention.out_0&#45;&gt;.589 -->
<g id="edge34" class="edge">
<title>cross_attention.out_0&#45;&gt;.589</title>
<path fill="none" stroke="black" d="M558.18,-144.05C547.28,-135.18 533.75,-124.17 521.85,-114.48"/>
<polygon fill="black" stroke="black" points="523.89,-111.63 513.92,-108.03 519.47,-117.06 523.89,-111.63"/>
</g>
<!-- out_0 -->
<g id="node28" class="node">
<title>out_0</title>
<ellipse fill="none" stroke="black" cx="579" cy="-18" rx="36.29" ry="18"/>
<text text-anchor="middle" x="579" y="-14.3" font-family="Times,serif" font-size="14.00">out_0</text>
</g>
<!-- cross_attention.out_0&#45;&gt;out_0 -->
<g id="edge35" class="edge">
<title>cross_attention.out_0&#45;&gt;out_0</title>
<path fill="none" stroke="black" d="M610.47,-144.68C624.05,-135.82 638.5,-123.49 646,-108 652.97,-93.6 652.97,-86.4 646,-72 638.91,-57.36 625.6,-45.53 612.69,-36.8"/>
<polygon fill="black" stroke="black" points="614.23,-33.63 603.91,-31.25 610.49,-39.55 614.23,-33.63"/>
</g>
<!-- inp_cross_attention.out_0&#45;&gt;cross_attention.out_0 -->
<g id="edge33" class="edge">
<title>inp_cross_attention.out_0&#45;&gt;cross_attention.out_0</title>
<path fill="none" stroke="black" d="M579,-215.7C579,-207.98 579,-198.71 579,-190.11"/>
<polygon fill="black" stroke="black" points="582.5,-190.1 579,-180.1 575.5,-190.1 582.5,-190.1"/>
</g>
<!-- .589&#45;&gt;out_0 -->
<g id="edge36" class="edge">
<title>.589&#45;&gt;out_0</title>
<path fill="none" stroke="black" d="M514.26,-71.7C526.01,-62.13 540.7,-50.17 553.12,-40.07"/>
<polygon fill="black" stroke="black" points="555.35,-42.77 560.89,-33.74 550.93,-37.34 555.35,-42.77"/>
</g>
</g>
</svg>
