<?xml version="1.0" encoding="UTF-8" standalone="no"?>
<!DOCTYPE svg PUBLIC "-//W3C//DTD SVG 1.1//EN"
 "http://www.w3.org/Graphics/SVG/1.1/DTD/svg11.dtd">
<!-- Generated by graphviz version 2.46.0 (0)
 -->
<!-- Pages: 1 -->
<svg width="506pt" height="355pt"
 viewBox="0.00 0.00 506.04 355.00" xmlns="http://www.w3.org/2000/svg" xmlns:xlink="http://www.w3.org/1999/xlink">
<g id="graph0" class="graph" transform="scale(1 1) rotate(0) translate(4 351)">
<polygon fill="white" stroke="transparent" points="-4,4 -4,-351 502.04,-351 502.04,4 -4,4"/>
<text text-anchor="middle" x="249.02" y="-331.8" font-family="Times,serif" font-size="14.00">DecoderBlock</text>
<!-- inp_1 -->
<g id="node1" class="node">
<title>inp_1</title>
<ellipse fill="none" stroke="black" cx="78" cy="-306" rx="36" ry="18"/>
<text text-anchor="middle" x="78" y="-302.3" font-family="Times,serif" font-size="14.00">inp_1</text>
</g>
<!-- .11 -->
<g id="node5" class="node">
<title>.11</title>
<polygon fill="none" stroke="black" points="264,-252 0,-252 0,-216 264,-216 264,-252"/>
<text text-anchor="middle" x="132" y="-230.3" font-family="Times,serif" font-size="14.00">self_attention (AttentionAddNorm)</text>
</g>
<!-- inp_1&#45;&gt;.11 -->
<g id="edge1" class="edge">
<title>inp_1&#45;&gt;.11</title>
<path fill="none" stroke="black" d="M90.52,-288.76C97.08,-280.27 105.25,-269.68 112.6,-260.15"/>
<polygon fill="black" stroke="black" points="115.45,-262.18 118.79,-252.12 109.91,-257.9 115.45,-262.18"/>
</g>
<!-- inp_mask -->
<g id="node2" class="node">
<title>inp_mask</title>
<ellipse fill="none" stroke="black" cx="186" cy="-306" rx="53.89" ry="18"/>
<text text-anchor="middle" x="186" y="-302.3" font-family="Times,serif" font-size="14.00">inp_mask</text>
</g>
<!-- inp_mask&#45;&gt;.11 -->
<g id="edge2" class="edge">
<title>inp_mask&#45;&gt;.11</title>
<path fill="none" stroke="black" d="M173.2,-288.41C166.8,-280.12 158.92,-269.89 151.76,-260.62"/>
<polygon fill="black" stroke="black" points="154.34,-258.23 145.46,-252.45 148.8,-262.5 154.34,-258.23"/>
</g>
<!-- inp_3 -->
<g id="node3" class="node">
<title>inp_3</title>
<ellipse fill="none" stroke="black" cx="318" cy="-234" rx="36" ry="18"/>
<text text-anchor="middle" x="318" y="-230.3" font-family="Times,serif" font-size="14.00">inp_3</text>
</g>
<!-- .12 -->
<g id="node6" class="node">
<title>.12</title>
<polygon fill="none" stroke="black" points="456,-180 180,-180 180,-144 456,-144 456,-180"/>
<text text-anchor="middle" x="318" y="-158.3" font-family="Times,serif" font-size="14.00">cross_attention (AttentionAddNorm)</text>
</g>
<!-- inp_3&#45;&gt;.12 -->
<g id="edge4" class="edge">
<title>inp_3&#45;&gt;.12</title>
<path fill="none" stroke="black" d="M318,-215.7C318,-207.98 318,-198.71 318,-190.11"/>
<polygon fill="black" stroke="black" points="321.5,-190.1 318,-180.1 314.5,-190.1 321.5,-190.1"/>
</g>
<!-- inp_mask.1 -->
<g id="node4" class="node">
<title>inp_mask.1</title>
<ellipse fill="none" stroke="black" cx="435" cy="-234" rx="63.09" ry="18"/>
<text text-anchor="middle" x="435" y="-230.3" font-family="Times,serif" font-size="14.00">inp_mask.1</text>
</g>
<!-- inp_mask.1&#45;&gt;.12 -->
<g id="edge5" class="edge">
<title>inp_mask.1&#45;&gt;.12</title>
<path fill="none" stroke="black" d="M409.03,-217.46C393.33,-208.07 373.03,-195.92 355.59,-185.49"/>
<polygon fill="black" stroke="black" points="357.14,-182.34 346.77,-180.21 353.55,-188.35 357.14,-182.34"/>
</g>
<!-- .11&#45;&gt;.12 -->
<g id="edge3" class="edge">
<title>.11&#45;&gt;.12</title>
<path fill="none" stroke="black" d="M177.5,-215.88C203.38,-206.14 235.97,-193.87 263.24,-183.61"/>
<polygon fill="black" stroke="black" points="264.52,-186.87 272.65,-180.07 262.06,-180.31 264.52,-186.87"/>
</g>
<!-- .13 -->
<g id="node7" class="node">
<title>.13</title>
<polygon fill="none" stroke="black" points="462,-108 174,-108 174,-72 462,-72 462,-108"/>
<text text-anchor="middle" x="318" y="-86.3" font-family="Times,serif" font-size="14.00">feed_forward (FeedForwardAddNorm)</text>
</g>
<!-- .12&#45;&gt;.13 -->
<g id="edge6" class="edge">
<title>.12&#45;&gt;.13</title>
<path fill="none" stroke="black" d="M318,-143.7C318,-135.98 318,-126.71 318,-118.11"/>
<polygon fill="black" stroke="black" points="321.5,-118.1 318,-108.1 314.5,-118.1 321.5,-118.1"/>
</g>
<!-- out_0 -->
<g id="node8" class="node">
<title>out_0</title>
<ellipse fill="none" stroke="black" cx="318" cy="-18" rx="36.29" ry="18"/>
<text text-anchor="middle" x="318" y="-14.3" font-family="Times,serif" font-size="14.00">out_0</text>
</g>
<!-- .13&#45;&gt;out_0 -->
<g id="edge7" class="edge">
<title>.13&#45;&gt;out_0</title>
<path fill="none" stroke="black" d="M318,-71.7C318,-63.98 318,-54.71 318,-46.11"/>
<polygon fill="black" stroke="black" points="321.5,-46.1 318,-36.1 314.5,-46.1 321.5,-46.1"/>
</g>
</g>
</svg>
