<?xml version="1.0" encoding="UTF-8" standalone="no"?>
<!DOCTYPE svg PUBLIC "-//W3C//DTD SVG 1.1//EN"
 "http://www.w3.org/Graphics/SVG/1.1/DTD/svg11.dtd">
<!-- Generated by graphviz version 2.46.0 (0)
 -->
<!-- Pages: 1 -->
<svg width="577pt" height="355pt"
 viewBox="0.00 0.00 577.04 355.00" xmlns="http://www.w3.org/2000/svg" xmlns:xlink="http://www.w3.org/1999/xlink">
<g id="graph0" class="graph" transform="scale(1 1) rotate(0) translate(4 351)">
<polygon fill="white" stroke="transparent" points="-4,4 -4,-351 573.04,-351 573.04,4 -4,4"/>
<text text-anchor="middle" x="284.52" y="-331.8" font-family="Times,serif" font-size="14.00">DecoderBlock</text>
<!-- inp_input.6 -->
<g id="node1" class="node">
<title>inp_input.6</title>
<ellipse fill="none" stroke="black" cx="95" cy="-234" rx="63.09" ry="18"/>
<text text-anchor="middle" x="95" y="-230.3" font-family="Times,serif" font-size="14.00">inp_input.6</text>
</g>
<!-- .588 -->
<g id="node6" class="node">
<title>.588</title>
<polygon fill="none" stroke="black" points="368,-180 92,-180 92,-144 368,-144 368,-180"/>
<text text-anchor="middle" x="230" y="-158.3" font-family="Times,serif" font-size="14.00">cross_attention (AttentionAddNorm)</text>
</g>
<!-- inp_input.6&#45;&gt;.588 -->
<g id="edge4" class="edge">
<title>inp_input.6&#45;&gt;.588</title>
<path fill="none" stroke="black" d="M123.96,-217.98C142.59,-208.32 167.1,-195.61 187.87,-184.85"/>
<polygon fill="black" stroke="black" points="189.54,-187.92 196.81,-180.21 186.32,-181.71 189.54,-187.92"/>
</g>
<!-- inp_mask -->
<g id="node2" class="node">
<title>inp_mask</title>
<ellipse fill="none" stroke="black" cx="230" cy="-234" rx="53.89" ry="18"/>
<text text-anchor="middle" x="230" y="-230.3" font-family="Times,serif" font-size="14.00">inp_mask</text>
</g>
<!-- inp_mask&#45;&gt;.588 -->
<g id="edge5" class="edge">
<title>inp_mask&#45;&gt;.588</title>
<path fill="none" stroke="black" d="M230,-215.7C230,-207.98 230,-198.71 230,-190.11"/>
<polygon fill="black" stroke="black" points="233.5,-190.1 230,-180.1 226.5,-190.1 233.5,-190.1"/>
</g>
<!-- inp_input.1 -->
<g id="node3" class="node">
<title>inp_input.1</title>
<ellipse fill="none" stroke="black" cx="362" cy="-306" rx="63.09" ry="18"/>
<text text-anchor="middle" x="362" y="-302.3" font-family="Times,serif" font-size="14.00">inp_input.1</text>
</g>
<!-- .587 -->
<g id="node5" class="node">
<title>.587</title>
<polygon fill="none" stroke="black" points="566,-252 302,-252 302,-216 566,-216 566,-252"/>
<text text-anchor="middle" x="434" y="-230.3" font-family="Times,serif" font-size="14.00">self_attention (AttentionAddNorm)</text>
</g>
<!-- inp_input.1&#45;&gt;.587 -->
<g id="edge1" class="edge">
<title>inp_input.1&#45;&gt;.587</title>
<path fill="none" stroke="black" d="M379.06,-288.41C388.01,-279.71 399.14,-268.89 409.04,-259.27"/>
<polygon fill="black" stroke="black" points="411.58,-261.68 416.31,-252.2 406.7,-256.66 411.58,-261.68"/>
</g>
<!-- inp_mask.1 -->
<g id="node4" class="node">
<title>inp_mask.1</title>
<ellipse fill="none" stroke="black" cx="506" cy="-306" rx="63.09" ry="18"/>
<text text-anchor="middle" x="506" y="-302.3" font-family="Times,serif" font-size="14.00">inp_mask.1</text>
</g>
<!-- inp_mask.1&#45;&gt;.587 -->
<g id="edge2" class="edge">
<title>inp_mask.1&#45;&gt;.587</title>
<path fill="none" stroke="black" d="M488.94,-288.41C479.99,-279.71 468.86,-268.89 458.96,-259.27"/>
<polygon fill="black" stroke="black" points="461.3,-256.66 451.69,-252.2 456.42,-261.68 461.3,-256.66"/>
</g>
<!-- .587&#45;&gt;.588 -->
<g id="edge3" class="edge">
<title>.587&#45;&gt;.588</title>
<path fill="none" stroke="black" d="M384.36,-215.97C355.73,-206.14 319.55,-193.73 289.42,-183.39"/>
<polygon fill="black" stroke="black" points="290.46,-180.05 279.87,-180.11 288.19,-186.67 290.46,-180.05"/>
</g>
<!-- .589 -->
<g id="node7" class="node">
<title>.589</title>
<polygon fill="none" stroke="black" points="288,-108 0,-108 0,-72 288,-72 288,-108"/>
<text text-anchor="middle" x="144" y="-86.3" font-family="Times,serif" font-size="14.00">feed_forward (FeedForwardAddNorm)</text>
</g>
<!-- .588&#45;&gt;.589 -->
<g id="edge6" class="edge">
<title>.588&#45;&gt;.589</title>
<path fill="none" stroke="black" d="M208.74,-143.7C197.91,-134.88 184.58,-124.03 172.84,-114.47"/>
<polygon fill="black" stroke="black" points="174.98,-111.7 165.01,-108.1 170.56,-117.13 174.98,-111.7"/>
</g>
<!-- out_0 -->
<g id="node8" class="node">
<title>out_0</title>
<ellipse fill="none" stroke="black" cx="230" cy="-18" rx="36.29" ry="18"/>
<text text-anchor="middle" x="230" y="-14.3" font-family="Times,serif" font-size="14.00">out_0</text>
</g>
<!-- .588&#45;&gt;out_0 -->
<g id="edge7" class="edge">
<title>.588&#45;&gt;out_0</title>
<path fill="none" stroke="black" d="M262.53,-143.98C275.79,-135.18 289.7,-123.09 297,-108 303.97,-93.6 303.97,-86.4 297,-72 289.91,-57.36 276.6,-45.53 263.69,-36.8"/>
<polygon fill="black" stroke="black" points="265.23,-33.63 254.91,-31.25 261.49,-39.55 265.23,-33.63"/>
</g>
<!-- .589&#45;&gt;out_0 -->
<g id="edge8" class="edge">
<title>.589&#45;&gt;out_0</title>
<path fill="none" stroke="black" d="M165.26,-71.7C177.01,-62.13 191.7,-50.17 204.12,-40.07"/>
<polygon fill="black" stroke="black" points="206.35,-42.77 211.89,-33.74 201.93,-37.34 206.35,-42.77"/>
</g>
</g>
</svg>
