<?xml version="1.0" encoding="UTF-8" standalone="no"?>
<!DOCTYPE svg PUBLIC "-//W3C//DTD SVG 1.1//EN"
 "http://www.w3.org/Graphics/SVG/1.1/DTD/svg11.dtd">
<!-- Generated by graphviz version 2.46.0 (0)
 -->
<!-- Pages: 1 -->
<svg width="1761pt" height="1233pt"
 viewBox="0.00 0.00 1761.04 1233.00" xmlns="http://www.w3.org/2000/svg" xmlns:xlink="http://www.w3.org/1999/xlink">
<g id="graph0" class="graph" transform="scale(1 1) rotate(0) translate(4 1229)">
<polygon fill="white" stroke="transparent" points="-4,4 -4,-1229 1757.04,-1229 1757.04,4 -4,4"/>
<text text-anchor="middle" x="876.52" y="-1209.8" font-family="Times,serif" font-size="14.00">DecoderBlock</text>
<g id="clust1" class="cluster">
<title>cluster_.11</title>
<polygon fill="none" stroke="black" points="8,-651 8,-1158 1014,-1158 1014,-651 8,-651"/>
<text text-anchor="middle" x="511" y="-1142.8" font-family="Times,serif" font-size="14.00">self_attention (AttentionAddNorm)</text>
</g>
<g id="clust2" class="cluster">
<title>cluster_.12</title>
<polygon fill="none" stroke="black" points="543,-136 543,-643 1619,-643 1619,-136 543,-136"/>
<text text-anchor="middle" x="1081" y="-627.8" font-family="Times,serif" font-size="14.00">cross_attention (AttentionAddNorm)</text>
</g>
<!-- inp_1 -->
<g id="node1" class="node">
<title>inp_1</title>
<ellipse fill="none" stroke="black" cx="493" cy="-1184" rx="36" ry="18"/>
<text text-anchor="middle" x="493" y="-1180.3" font-family="Times,serif" font-size="14.00">inp_1</text>
</g>
<!-- self_attention.inp_1 -->
<g id="node5" class="node">
<title>self_attention.inp_1</title>
<ellipse fill="none" stroke="black" cx="493" cy="-1109" rx="102.08" ry="18"/>
<text text-anchor="middle" x="493" y="-1105.3" font-family="Times,serif" font-size="14.00">self_attention.inp_1</text>
</g>
<!-- inp_1&#45;&gt;self_attention.inp_1 -->
<g id="edge1" class="edge">
<title>inp_1&#45;&gt;self_attention.inp_1</title>
<path fill="none" stroke="black" d="M493,-1165.7C493,-1157.25 493,-1146.87 493,-1137.37"/>
<polygon fill="black" stroke="black" points="496.5,-1137.18 493,-1127.18 489.5,-1137.18 496.5,-1137.18"/>
</g>
<!-- inp_mask -->
<g id="node2" class="node">
<title>inp_mask</title>
<ellipse fill="none" stroke="black" cx="1076" cy="-1109" rx="53.89" ry="18"/>
<text text-anchor="middle" x="1076" y="-1105.3" font-family="Times,serif" font-size="14.00">inp_mask</text>
</g>
<!-- self_attention.inp_mask -->
<g id="node6" class="node">
<title>self_attention.inp_mask</title>
<ellipse fill="none" stroke="black" cx="886" cy="-1037" rx="120.48" ry="18"/>
<text text-anchor="middle" x="886" y="-1033.3" font-family="Times,serif" font-size="14.00">self_attention.inp_mask</text>
</g>
<!-- inp_mask&#45;&gt;self_attention.inp_mask -->
<g id="edge2" class="edge">
<title>inp_mask&#45;&gt;self_attention.inp_mask</title>
<path fill="none" stroke="black" d="M1041.15,-1095.16C1012.39,-1084.56 971.12,-1069.36 938.38,-1057.3"/>
<polygon fill="black" stroke="black" points="939.55,-1054 928.95,-1053.83 937.13,-1060.57 939.55,-1054"/>
</g>
<!-- inp_3 -->
<g id="node3" class="node">
<title>inp_3</title>
<ellipse fill="none" stroke="black" cx="1095" cy="-677" rx="36" ry="18"/>
<text text-anchor="middle" x="1095" y="-673.3" font-family="Times,serif" font-size="14.00">inp_3</text>
</g>
<!-- cross_attention.inp_2 -->
<g id="node16" class="node">
<title>cross_attention.inp_2</title>
<ellipse fill="none" stroke="black" cx="1095" cy="-594" rx="109.68" ry="18"/>
<text text-anchor="middle" x="1095" y="-590.3" font-family="Times,serif" font-size="14.00">cross_attention.inp_2</text>
</g>
<!-- inp_3&#45;&gt;cross_attention.inp_2 -->
<g id="edge16" class="edge">
<title>inp_3&#45;&gt;cross_attention.inp_2</title>
<path fill="none" stroke="black" d="M1095,-658.82C1095,-648.19 1095,-634.31 1095,-622.2"/>
<polygon fill="black" stroke="black" points="1098.5,-622.15 1095,-612.15 1091.5,-622.15 1098.5,-622.15"/>
</g>
<!-- inp_mask.1 -->
<g id="node4" class="node">
<title>inp_mask.1</title>
<ellipse fill="none" stroke="black" cx="1690" cy="-594" rx="63.09" ry="18"/>
<text text-anchor="middle" x="1690" y="-590.3" font-family="Times,serif" font-size="14.00">inp_mask.1</text>
</g>
<!-- cross_attention.inp_mask.1 -->
<g id="node17" class="node">
<title>cross_attention.inp_mask.1</title>
<ellipse fill="none" stroke="black" cx="1474" cy="-522" rx="137.28" ry="18"/>
<text text-anchor="middle" x="1474" y="-518.3" font-family="Times,serif" font-size="14.00">cross_attention.inp_mask.1</text>
</g>
<!-- inp_mask.1&#45;&gt;cross_attention.inp_mask.1 -->
<g id="edge17" class="edge">
<title>inp_mask.1&#45;&gt;cross_attention.inp_mask.1</title>
<path fill="none" stroke="black" d="M1649.88,-580C1616.95,-569.33 1569.87,-554.07 1532.7,-542.02"/>
<polygon fill="black" stroke="black" points="1533.59,-538.63 1522.99,-538.88 1531.43,-545.29 1533.59,-538.63"/>
</g>
<!-- self_attention..215 -->
<g id="node7" class="node">
<title>self_attention..215</title>
<polygon fill="none" stroke="black" points="484,-1055 258,-1055 258,-1019 484,-1019 484,-1055"/>
<text text-anchor="middle" x="371" y="-1033.3" font-family="Times,serif" font-size="14.00">self_attention.Q_proj (Linear)</text>
</g>
<!-- self_attention.inp_1&#45;&gt;self_attention..215 -->
<g id="edge3" class="edge">
<title>self_attention.inp_1&#45;&gt;self_attention..215</title>
<path fill="none" stroke="black" d="M464.4,-1091.59C448.08,-1082.23 427.42,-1070.37 409.67,-1060.19"/>
<polygon fill="black" stroke="black" points="411.11,-1056.98 400.7,-1055.04 407.63,-1063.05 411.11,-1056.98"/>
</g>
<!-- self_attention..216 -->
<g id="node8" class="node">
<title>self_attention..216</title>
<polygon fill="none" stroke="black" points="727.5,-1055 502.5,-1055 502.5,-1019 727.5,-1019 727.5,-1055"/>
<text text-anchor="middle" x="615" y="-1033.3" font-family="Times,serif" font-size="14.00">self_attention.K_proj (Linear)</text>
</g>
<!-- self_attention.inp_1&#45;&gt;self_attention..216 -->
<g id="edge4" class="edge">
<title>self_attention.inp_1&#45;&gt;self_attention..216</title>
<path fill="none" stroke="black" d="M521.6,-1091.59C537.92,-1082.23 558.58,-1070.37 576.33,-1060.19"/>
<polygon fill="black" stroke="black" points="578.37,-1063.05 585.3,-1055.04 574.89,-1056.98 578.37,-1063.05"/>
</g>
<!-- self_attention..217 -->
<g id="node9" class="node">
<title>self_attention..217</title>
<polygon fill="none" stroke="black" points="240,-1055 16,-1055 16,-1019 240,-1019 240,-1055"/>
<text text-anchor="middle" x="128" y="-1033.3" font-family="Times,serif" font-size="14.00">self_attention.V_proj (Linear)</text>
</g>
<!-- self_attention.inp_1&#45;&gt;self_attention..217 -->
<g id="edge5" class="edge">
<title>self_attention.inp_1&#45;&gt;self_attention..217</title>
<path fill="none" stroke="black" d="M426.48,-1095.24C370.66,-1084.54 290.12,-1069.09 226.76,-1056.94"/>
<polygon fill="black" stroke="black" points="227.23,-1053.47 216.75,-1055.02 225.91,-1060.34 227.23,-1053.47"/>
</g>
<!-- self_attention.input.26 -->
<g id="node13" class="node">
<title>self_attention.input.26</title>
<path fill="none" stroke="black" d="M690,-839C690,-839 660,-839 660,-839 654,-839 648,-833 648,-827 648,-827 648,-815 648,-815 648,-809 654,-803 660,-803 660,-803 690,-803 690,-803 696,-803 702,-809 702,-815 702,-815 702,-827 702,-827 702,-833 696,-839 690,-839"/>
<text text-anchor="middle" x="675" y="-817.3" font-family="Times,serif" font-size="14.00">add</text>
</g>
<!-- self_attention.inp_1&#45;&gt;self_attention.input.26 -->
<g id="edge12" class="edge">
<title>self_attention.inp_1&#45;&gt;self_attention.input.26</title>
<path fill="none" stroke="black" d="M581.82,-1100.11C642.93,-1092.64 716.47,-1078.91 736,-1055 761.32,-1024.01 748.33,-911.07 731,-875 725.71,-863.99 717.07,-854.09 708.15,-845.92"/>
<polygon fill="black" stroke="black" points="710.18,-843.05 700.31,-839.19 705.62,-848.36 710.18,-843.05"/>
</g>
<!-- self_attention.input.25 -->
<g id="node11" class="node">
<title>self_attention.input.25</title>
<path fill="none" stroke="black" d="M716,-983C716,-983 468,-983 468,-983 462,-983 456,-977 456,-971 456,-971 456,-959 456,-959 456,-953 462,-947 468,-947 468,-947 716,-947 716,-947 722,-947 728,-953 728,-959 728,-959 728,-971 728,-971 728,-977 722,-983 716,-983"/>
<text text-anchor="middle" x="592" y="-961.3" font-family="Times,serif" font-size="14.00">pow masked_fill matmulsoftmax div</text>
</g>
<!-- self_attention.inp_mask&#45;&gt;self_attention.input.25 -->
<g id="edge9" class="edge">
<title>self_attention.inp_mask&#45;&gt;self_attention.input.25</title>
<path fill="none" stroke="black" d="M824.73,-1021.41C780.89,-1010.97 721.43,-996.82 673.58,-985.42"/>
<polygon fill="black" stroke="black" points="674.09,-981.95 663.55,-983.04 672.47,-988.76 674.09,-981.95"/>
</g>
<!-- self_attention..215&#45;&gt;self_attention.input.25 -->
<g id="edge6" class="edge">
<title>self_attention..215&#45;&gt;self_attention.input.25</title>
<path fill="none" stroke="black" d="M424.78,-1018.97C455.93,-1009.1 495.32,-996.62 528.05,-986.25"/>
<polygon fill="black" stroke="black" points="529.5,-989.47 537.98,-983.11 527.39,-982.79 529.5,-989.47"/>
</g>
<!-- self_attention..216&#45;&gt;self_attention.input.25 -->
<g id="edge7" class="edge">
<title>self_attention..216&#45;&gt;self_attention.input.25</title>
<path fill="none" stroke="black" d="M609.31,-1018.7C606.75,-1010.9 603.67,-1001.51 600.82,-992.83"/>
<polygon fill="black" stroke="black" points="604.07,-991.51 597.62,-983.1 597.42,-993.7 604.07,-991.51"/>
</g>
<!-- self_attention..217&#45;&gt;self_attention.input.25 -->
<g id="edge8" class="edge">
<title>self_attention..217&#45;&gt;self_attention.input.25</title>
<path fill="none" stroke="black" d="M240.03,-1019.1C309.18,-1008.67 397.96,-995.27 469.05,-984.55"/>
<polygon fill="black" stroke="black" points="469.6,-988.01 478.96,-983.05 468.55,-981.08 469.6,-988.01"/>
</g>
<!-- self_attention..218 -->
<g id="node10" class="node">
<title>self_attention..218</title>
<polygon fill="none" stroke="black" points="722,-911 474,-911 474,-875 722,-875 722,-911"/>
<text text-anchor="middle" x="598" y="-889.3" font-family="Times,serif" font-size="14.00">self_attention.dropout (Dropout)</text>
</g>
<!-- self_attention..218&#45;&gt;self_attention.input.26 -->
<g id="edge11" class="edge">
<title>self_attention..218&#45;&gt;self_attention.input.26</title>
<path fill="none" stroke="black" d="M617.03,-874.7C626.54,-866.05 638.21,-855.45 648.57,-846.03"/>
<polygon fill="black" stroke="black" points="651.14,-848.42 656.19,-839.1 646.43,-843.24 651.14,-848.42"/>
</g>
<!-- self_attention.input.25&#45;&gt;self_attention..218 -->
<g id="edge10" class="edge">
<title>self_attention.input.25&#45;&gt;self_attention..218</title>
<path fill="none" stroke="black" d="M593.48,-946.7C594.14,-938.98 594.94,-929.71 595.68,-921.11"/>
<polygon fill="black" stroke="black" points="599.17,-921.37 596.53,-911.1 592.19,-920.77 599.17,-921.37"/>
</g>
<!-- self_attention..219 -->
<g id="node12" class="node">
<title>self_attention..219</title>
<polygon fill="none" stroke="black" points="822.5,-767 527.5,-767 527.5,-731 822.5,-731 822.5,-767"/>
<text text-anchor="middle" x="675" y="-745.3" font-family="Times,serif" font-size="14.00">self_attention.layer_norm (LayerNorm)</text>
</g>
<!-- self_attention.out_0 -->
<g id="node14" class="node">
<title>self_attention.out_0</title>
<ellipse fill="none" stroke="black" cx="675" cy="-677" rx="102.88" ry="18"/>
<text text-anchor="middle" x="675" y="-673.3" font-family="Times,serif" font-size="14.00">self_attention.out_0</text>
</g>
<!-- self_attention..219&#45;&gt;self_attention.out_0 -->
<g id="edge14" class="edge">
<title>self_attention..219&#45;&gt;self_attention.out_0</title>
<path fill="none" stroke="black" d="M675,-730.7C675,-722.98 675,-713.71 675,-705.11"/>
<polygon fill="black" stroke="black" points="678.5,-705.1 675,-695.1 671.5,-705.1 678.5,-705.1"/>
</g>
<!-- self_attention.input.26&#45;&gt;self_attention..219 -->
<g id="edge13" class="edge">
<title>self_attention.input.26&#45;&gt;self_attention..219</title>
<path fill="none" stroke="black" d="M675,-802.7C675,-794.98 675,-785.71 675,-777.11"/>
<polygon fill="black" stroke="black" points="678.5,-777.1 675,-767.1 671.5,-777.1 678.5,-777.1"/>
</g>
<!-- cross_attention.inp_1 -->
<g id="node15" class="node">
<title>cross_attention.inp_1</title>
<ellipse fill="none" stroke="black" cx="675" cy="-594" rx="109.68" ry="18"/>
<text text-anchor="middle" x="675" y="-590.3" font-family="Times,serif" font-size="14.00">cross_attention.inp_1</text>
</g>
<!-- self_attention.out_0&#45;&gt;cross_attention.inp_1 -->
<g id="edge15" class="edge">
<title>self_attention.out_0&#45;&gt;cross_attention.inp_1</title>
<path fill="none" stroke="black" d="M675,-658.82C675,-648.19 675,-634.31 675,-622.2"/>
<polygon fill="black" stroke="black" points="678.5,-622.15 675,-612.15 671.5,-622.15 678.5,-622.15"/>
</g>
<!-- cross_attention..216 -->
<g id="node18" class="node">
<title>cross_attention..216</title>
<polygon fill="none" stroke="black" points="809,-540 571,-540 571,-504 809,-504 809,-540"/>
<text text-anchor="middle" x="690" y="-518.3" font-family="Times,serif" font-size="14.00">cross_attention.Q_proj (Linear)</text>
</g>
<!-- cross_attention.inp_1&#45;&gt;cross_attention..216 -->
<g id="edge18" class="edge">
<title>cross_attention.inp_1&#45;&gt;cross_attention..216</title>
<path fill="none" stroke="black" d="M678.71,-575.7C680.36,-567.98 682.35,-558.71 684.19,-550.11"/>
<polygon fill="black" stroke="black" points="687.66,-550.62 686.33,-540.1 680.82,-549.15 687.66,-550.62"/>
</g>
<!-- cross_attention.input.31 -->
<g id="node24" class="node">
<title>cross_attention.input.31</title>
<path fill="none" stroke="black" d="M779,-324C779,-324 749,-324 749,-324 743,-324 737,-318 737,-312 737,-312 737,-300 737,-300 737,-294 743,-288 749,-288 749,-288 779,-288 779,-288 785,-288 791,-294 791,-300 791,-300 791,-312 791,-312 791,-318 785,-324 779,-324"/>
<text text-anchor="middle" x="764" y="-302.3" font-family="Times,serif" font-size="14.00">add</text>
</g>
<!-- cross_attention.inp_1&#45;&gt;cross_attention.input.31 -->
<g id="edge26" class="edge">
<title>cross_attention.inp_1&#45;&gt;cross_attention.input.31</title>
<path fill="none" stroke="black" d="M614.69,-578.9C594.4,-570.98 573.91,-558.75 562,-540 553.42,-526.5 555.78,-518.74 562,-504 595.77,-423.9 679.78,-360.19 728.16,-328.63"/>
<polygon fill="black" stroke="black" points="730.23,-331.46 736.76,-323.12 726.45,-325.57 730.23,-331.46"/>
</g>
<!-- cross_attention..217 -->
<g id="node19" class="node">
<title>cross_attention..217</title>
<polygon fill="none" stroke="black" points="1064.5,-540 827.5,-540 827.5,-504 1064.5,-504 1064.5,-540"/>
<text text-anchor="middle" x="946" y="-518.3" font-family="Times,serif" font-size="14.00">cross_attention.K_proj (Linear)</text>
</g>
<!-- cross_attention.inp_2&#45;&gt;cross_attention..217 -->
<g id="edge19" class="edge">
<title>cross_attention.inp_2&#45;&gt;cross_attention..217</title>
<path fill="none" stroke="black" d="M1060.44,-576.76C1039.91,-567.12 1013.62,-554.77 991.42,-544.34"/>
<polygon fill="black" stroke="black" points="992.73,-541.09 982.19,-540 989.75,-547.42 992.73,-541.09"/>
</g>
<!-- cross_attention..218 -->
<g id="node20" class="node">
<title>cross_attention..218</title>
<polygon fill="none" stroke="black" points="1319,-540 1083,-540 1083,-504 1319,-504 1319,-540"/>
<text text-anchor="middle" x="1201" y="-518.3" font-family="Times,serif" font-size="14.00">cross_attention.V_proj (Linear)</text>
</g>
<!-- cross_attention.inp_2&#45;&gt;cross_attention..218 -->
<g id="edge20" class="edge">
<title>cross_attention.inp_2&#45;&gt;cross_attention..218</title>
<path fill="none" stroke="black" d="M1120.12,-576.41C1133.94,-567.29 1151.29,-555.83 1166.38,-545.86"/>
<polygon fill="black" stroke="black" points="1168.54,-548.63 1174.95,-540.2 1164.68,-542.79 1168.54,-548.63"/>
</g>
<!-- cross_attention.input.30 -->
<g id="node22" class="node">
<title>cross_attention.input.30</title>
<path fill="none" stroke="black" d="M1070,-468C1070,-468 822,-468 822,-468 816,-468 810,-462 810,-456 810,-456 810,-444 810,-444 810,-438 816,-432 822,-432 822,-432 1070,-432 1070,-432 1076,-432 1082,-438 1082,-444 1082,-444 1082,-456 1082,-456 1082,-462 1076,-468 1070,-468"/>
<text text-anchor="middle" x="946" y="-446.3" font-family="Times,serif" font-size="14.00">pow masked_fill matmulsoftmax div</text>
</g>
<!-- cross_attention.inp_mask.1&#45;&gt;cross_attention.input.30 -->
<g id="edge24" class="edge">
<title>cross_attention.inp_mask.1&#45;&gt;cross_attention.input.30</title>
<path fill="none" stroke="black" d="M1381.12,-508.69C1299.04,-497.8 1178.18,-481.78 1084.65,-469.38"/>
<polygon fill="black" stroke="black" points="1084.91,-465.89 1074.54,-468.04 1083.99,-472.83 1084.91,-465.89"/>
</g>
<!-- cross_attention..216&#45;&gt;cross_attention.input.30 -->
<g id="edge23" class="edge">
<title>cross_attention..216&#45;&gt;cross_attention.input.30</title>
<path fill="none" stroke="black" d="M752.3,-503.97C788.84,-493.97 835.19,-481.3 873.39,-470.85"/>
<polygon fill="black" stroke="black" points="874.7,-474.12 883.42,-468.11 872.85,-467.37 874.7,-474.12"/>
</g>
<!-- cross_attention..217&#45;&gt;cross_attention.input.30 -->
<g id="edge21" class="edge">
<title>cross_attention..217&#45;&gt;cross_attention.input.30</title>
<path fill="none" stroke="black" d="M946,-503.7C946,-495.98 946,-486.71 946,-478.11"/>
<polygon fill="black" stroke="black" points="949.5,-478.1 946,-468.1 942.5,-478.1 949.5,-478.1"/>
</g>
<!-- cross_attention..218&#45;&gt;cross_attention.input.30 -->
<g id="edge22" class="edge">
<title>cross_attention..218&#45;&gt;cross_attention.input.30</title>
<path fill="none" stroke="black" d="M1138.95,-503.97C1102.54,-493.97 1056.37,-481.3 1018.32,-470.85"/>
<polygon fill="black" stroke="black" points="1018.9,-467.38 1008.33,-468.11 1017.05,-474.13 1018.9,-467.38"/>
</g>
<!-- cross_attention..219 -->
<g id="node21" class="node">
<title>cross_attention..219</title>
<polygon fill="none" stroke="black" points="1015,-396 755,-396 755,-360 1015,-360 1015,-396"/>
<text text-anchor="middle" x="885" y="-374.3" font-family="Times,serif" font-size="14.00">cross_attention.dropout (Dropout)</text>
</g>
<!-- cross_attention..219&#45;&gt;cross_attention.input.31 -->
<g id="edge27" class="edge">
<title>cross_attention..219&#45;&gt;cross_attention.input.31</title>
<path fill="none" stroke="black" d="M855.4,-359.88C838.72,-350.23 817.75,-338.1 800.11,-327.89"/>
<polygon fill="black" stroke="black" points="801.63,-324.73 791.23,-322.75 798.13,-330.79 801.63,-324.73"/>
</g>
<!-- cross_attention.input.30&#45;&gt;cross_attention..219 -->
<g id="edge25" class="edge">
<title>cross_attention.input.30&#45;&gt;cross_attention..219</title>
<path fill="none" stroke="black" d="M930.92,-431.7C923.61,-423.3 914.69,-413.07 906.66,-403.86"/>
<polygon fill="black" stroke="black" points="909.11,-401.34 899.91,-396.1 903.84,-405.94 909.11,-401.34"/>
</g>
<!-- cross_attention..220 -->
<g id="node23" class="node">
<title>cross_attention..220</title>
<polygon fill="none" stroke="black" points="917.5,-252 610.5,-252 610.5,-216 917.5,-216 917.5,-252"/>
<text text-anchor="middle" x="764" y="-230.3" font-family="Times,serif" font-size="14.00">cross_attention.layer_norm (LayerNorm)</text>
</g>
<!-- cross_attention.out_0 -->
<g id="node25" class="node">
<title>cross_attention.out_0</title>
<ellipse fill="none" stroke="black" cx="764" cy="-162" rx="110.48" ry="18"/>
<text text-anchor="middle" x="764" y="-158.3" font-family="Times,serif" font-size="14.00">cross_attention.out_0</text>
</g>
<!-- cross_attention..220&#45;&gt;cross_attention.out_0 -->
<g id="edge29" class="edge">
<title>cross_attention..220&#45;&gt;cross_attention.out_0</title>
<path fill="none" stroke="black" d="M764,-215.7C764,-207.98 764,-198.71 764,-190.11"/>
<polygon fill="black" stroke="black" points="767.5,-190.1 764,-180.1 760.5,-190.1 767.5,-190.1"/>
</g>
<!-- cross_attention.input.31&#45;&gt;cross_attention..220 -->
<g id="edge28" class="edge">
<title>cross_attention.input.31&#45;&gt;cross_attention..220</title>
<path fill="none" stroke="black" d="M764,-287.7C764,-279.98 764,-270.71 764,-262.11"/>
<polygon fill="black" stroke="black" points="767.5,-262.1 764,-252.1 760.5,-262.1 767.5,-262.1"/>
</g>
<!-- .13 -->
<g id="node26" class="node">
<title>.13</title>
<polygon fill="none" stroke="black" points="908,-108 620,-108 620,-72 908,-72 908,-108"/>
<text text-anchor="middle" x="764" y="-86.3" font-family="Times,serif" font-size="14.00">feed_forward (FeedForwardAddNorm)</text>
</g>
<!-- cross_attention.out_0&#45;&gt;.13 -->
<g id="edge30" class="edge">
<title>cross_attention.out_0&#45;&gt;.13</title>
<path fill="none" stroke="black" d="M764,-143.7C764,-135.98 764,-126.71 764,-118.11"/>
<polygon fill="black" stroke="black" points="767.5,-118.1 764,-108.1 760.5,-118.1 767.5,-118.1"/>
</g>
<!-- out_0 -->
<g id="node27" class="node">
<title>out_0</title>
<ellipse fill="none" stroke="black" cx="764" cy="-18" rx="36.29" ry="18"/>
<text text-anchor="middle" x="764" y="-14.3" font-family="Times,serif" font-size="14.00">out_0</text>
</g>
<!-- .13&#45;&gt;out_0 -->
<g id="edge31" class="edge">
<title>.13&#45;&gt;out_0</title>
<path fill="none" stroke="black" d="M764,-71.7C764,-63.98 764,-54.71 764,-46.11"/>
<polygon fill="black" stroke="black" points="767.5,-46.1 764,-36.1 760.5,-46.1 767.5,-46.1"/>
</g>
</g>
</svg>
