<?xml version="1.0" encoding="UTF-8" standalone="no"?>
<!DOCTYPE svg PUBLIC "-//W3C//DTD SVG 1.1//EN"
 "http://www.w3.org/Graphics/SVG/1.1/DTD/svg11.dtd">
<!-- Generated by graphviz version 2.46.0 (0)
 -->
<!-- Pages: 1 -->
<svg width="573pt" height="427pt"
 viewBox="0.00 0.00 572.99 427.00" xmlns="http://www.w3.org/2000/svg" xmlns:xlink="http://www.w3.org/1999/xlink">
<g id="graph0" class="graph" transform="scale(1 1) rotate(0) translate(4 423)">
<polygon fill="white" stroke="transparent" points="-4,4 -4,-423 568.99,-423 568.99,4 -4,4"/>
<text text-anchor="middle" x="282.49" y="-403.8" font-family="Times,serif" font-size="14.00">TransformerDecoder</text>
<!-- inp_input.21 -->
<g id="node1" class="node">
<title>inp_input.21</title>
<ellipse fill="none" stroke="black" cx="323.95" cy="-378" rx="68.79" ry="18"/>
<text text-anchor="middle" x="323.95" y="-374.3" font-family="Times,serif" font-size="14.00">inp_input.21</text>
</g>
<!-- .15 -->
<g id="node5" class="node">
<title>.15</title>
<polygon fill="none" stroke="black" points="420.45,-324 227.45,-324 227.45,-288 420.45,-288 420.45,-324"/>
<text text-anchor="middle" x="323.95" y="-302.3" font-family="Times,serif" font-size="14.00">embedding (Embedding)</text>
</g>
<!-- inp_input.21&#45;&gt;.15 -->
<g id="edge1" class="edge">
<title>inp_input.21&#45;&gt;.15</title>
<path fill="none" stroke="black" d="M323.95,-359.7C323.95,-351.98 323.95,-342.71 323.95,-334.11"/>
<polygon fill="black" stroke="black" points="327.45,-334.1 323.95,-324.1 320.45,-334.1 327.45,-334.1"/>
</g>
<!-- inp_mask -->
<g id="node2" class="node">
<title>inp_mask</title>
<ellipse fill="none" stroke="black" cx="53.95" cy="-306" rx="53.89" ry="18"/>
<text text-anchor="middle" x="53.95" y="-302.3" font-family="Times,serif" font-size="14.00">inp_mask</text>
</g>
<!-- .16 -->
<g id="node6" class="node">
<title>.16</title>
<polygon fill="none" stroke="black" points="383.95,-252 195.95,-252 195.95,-216 383.95,-216 383.95,-252"/>
<text text-anchor="middle" x="289.95" y="-230.3" font-family="Times,serif" font-size="14.00">blocks.0 (DecoderBlock)</text>
</g>
<!-- inp_mask&#45;&gt;.16 -->
<g id="edge3" class="edge">
<title>inp_mask&#45;&gt;.16</title>
<path fill="none" stroke="black" d="M92.92,-293.44C128.14,-282.99 180.75,-267.39 222.75,-254.93"/>
<polygon fill="black" stroke="black" points="223.76,-258.28 232.35,-252.08 221.77,-251.57 223.76,-258.28"/>
</g>
<!-- .17 -->
<g id="node7" class="node">
<title>.17</title>
<polygon fill="none" stroke="black" points="322.95,-180 134.95,-180 134.95,-144 322.95,-144 322.95,-180"/>
<text text-anchor="middle" x="228.95" y="-158.3" font-family="Times,serif" font-size="14.00">blocks.1 (DecoderBlock)</text>
</g>
<!-- inp_mask&#45;&gt;.17 -->
<g id="edge7" class="edge">
<title>inp_mask&#45;&gt;.17</title>
<path fill="none" stroke="black" d="M73.68,-288.99C104.46,-264.01 164.08,-215.63 199.82,-186.63"/>
<polygon fill="black" stroke="black" points="202.37,-189.07 207.93,-180.06 197.96,-183.64 202.37,-189.07"/>
</g>
<!-- inp_11 -->
<g id="node3" class="node">
<title>inp_11</title>
<ellipse fill="none" stroke="black" cx="167.95" cy="-306" rx="41.69" ry="18"/>
<text text-anchor="middle" x="167.95" y="-302.3" font-family="Times,serif" font-size="14.00">inp_11</text>
</g>
<!-- inp_11&#45;&gt;.16 -->
<g id="edge4" class="edge">
<title>inp_11&#45;&gt;.16</title>
<path fill="none" stroke="black" d="M192.05,-291.17C208.95,-281.47 231.92,-268.3 251.35,-257.14"/>
<polygon fill="black" stroke="black" points="253.35,-260.03 260.28,-252.02 249.87,-253.96 253.35,-260.03"/>
</g>
<!-- inp_11&#45;&gt;.17 -->
<g id="edge8" class="edge">
<title>inp_11&#45;&gt;.17</title>
<path fill="none" stroke="black" d="M169.26,-287.86C171.21,-269.37 175.9,-239.44 186.95,-216 191.6,-206.12 198.41,-196.43 205.21,-188.08"/>
<polygon fill="black" stroke="black" points="208.08,-190.11 211.91,-180.24 202.75,-185.57 208.08,-190.11"/>
</g>
<!-- inp_mask.1 -->
<g id="node4" class="node">
<title>inp_mask.1</title>
<ellipse fill="none" stroke="black" cx="501.95" cy="-306" rx="63.09" ry="18"/>
<text text-anchor="middle" x="501.95" y="-302.3" font-family="Times,serif" font-size="14.00">inp_mask.1</text>
</g>
<!-- inp_mask.1&#45;&gt;.16 -->
<g id="edge5" class="edge">
<title>inp_mask.1&#45;&gt;.16</title>
<path fill="none" stroke="black" d="M462.07,-291.83C430.93,-281.55 387.12,-267.09 351.49,-255.32"/>
<polygon fill="black" stroke="black" points="352.27,-251.89 341.68,-252.08 350.08,-258.54 352.27,-251.89"/>
</g>
<!-- inp_mask.1&#45;&gt;.17 -->
<g id="edge9" class="edge">
<title>inp_mask.1&#45;&gt;.17</title>
<path fill="none" stroke="black" d="M485.66,-288.34C465.52,-268.59 429.42,-235.86 392.95,-216 367.55,-202.17 337.96,-191.23 310.96,-182.97"/>
<polygon fill="black" stroke="black" points="311.73,-179.55 301.14,-180.05 309.73,-186.25 311.73,-179.55"/>
</g>
<!-- .15&#45;&gt;.16 -->
<g id="edge2" class="edge">
<title>.15&#45;&gt;.16</title>
<path fill="none" stroke="black" d="M315.54,-287.7C311.67,-279.73 306.99,-270.1 302.7,-261.26"/>
<polygon fill="black" stroke="black" points="305.77,-259.57 298.25,-252.1 299.47,-262.63 305.77,-259.57"/>
</g>
<!-- .16&#45;&gt;.17 -->
<g id="edge6" class="edge">
<title>.16&#45;&gt;.17</title>
<path fill="none" stroke="black" d="M274.87,-215.7C267.55,-207.3 258.64,-197.07 250.61,-187.86"/>
<polygon fill="black" stroke="black" points="253.06,-185.34 243.85,-180.1 247.78,-189.94 253.06,-185.34"/>
</g>
<!-- .18 -->
<g id="node8" class="node">
<title>.18</title>
<polygon fill="none" stroke="black" points="312.45,-108 145.45,-108 145.45,-72 312.45,-72 312.45,-108"/>
<text text-anchor="middle" x="228.95" y="-86.3" font-family="Times,serif" font-size="14.00">output_layer (Linear)</text>
</g>
<!-- .17&#45;&gt;.18 -->
<g id="edge10" class="edge">
<title>.17&#45;&gt;.18</title>
<path fill="none" stroke="black" d="M228.95,-143.7C228.95,-135.98 228.95,-126.71 228.95,-118.11"/>
<polygon fill="black" stroke="black" points="232.45,-118.1 228.95,-108.1 225.45,-118.1 232.45,-118.1"/>
</g>
<!-- out_0 -->
<g id="node9" class="node">
<title>out_0</title>
<ellipse fill="none" stroke="black" cx="228.95" cy="-18" rx="36.29" ry="18"/>
<text text-anchor="middle" x="228.95" y="-14.3" font-family="Times,serif" font-size="14.00">out_0</text>
</g>
<!-- .18&#45;&gt;out_0 -->
<g id="edge11" class="edge">
<title>.18&#45;&gt;out_0</title>
<path fill="none" stroke="black" d="M228.95,-71.7C228.95,-63.98 228.95,-54.71 228.95,-46.11"/>
<polygon fill="black" stroke="black" points="232.45,-46.1 228.95,-36.1 225.45,-46.1 232.45,-46.1"/>
</g>
</g>
</svg>
