<?xml version="1.0" encoding="UTF-8" standalone="no"?>
<!DOCTYPE svg PUBLIC "-//W3C//DTD SVG 1.1//EN"
 "http://www.w3.org/Graphics/SVG/1.1/DTD/svg11.dtd">
<!-- Generated by graphviz version 2.46.0 (0)
 -->
<!-- Pages: 1 -->
<svg width="244pt" height="355pt"
 viewBox="0.00 0.00 244.00 355.00" xmlns="http://www.w3.org/2000/svg" xmlns:xlink="http://www.w3.org/1999/xlink">
<g id="graph0" class="graph" transform="scale(1 1) rotate(0) translate(4 351)">
<polygon fill="white" stroke="transparent" points="-4,4 -4,-351 240,-351 240,4 -4,4"/>
<text text-anchor="middle" x="118" y="-331.8" font-family="Times,serif" font-size="14.00">Embedding</text>
<!-- inp_input.1 -->
<g id="node1" class="node">
<title>inp_input.1</title>
<ellipse fill="none" stroke="black" cx="118" cy="-306" rx="63.09" ry="18"/>
<text text-anchor="middle" x="118" y="-302.3" font-family="Times,serif" font-size="14.00">inp_input.1</text>
</g>
<!-- .13 -->
<g id="node2" class="node">
<title>.13</title>
<polygon fill="none" stroke="black" points="236,-252 0,-252 0,-216 236,-216 236,-252"/>
<text text-anchor="middle" x="118" y="-230.3" font-family="Times,serif" font-size="14.00">word_embedding (Embedding)</text>
</g>
<!-- inp_input.1&#45;&gt;.13 -->
<g id="edge1" class="edge">
<title>inp_input.1&#45;&gt;.13</title>
<path fill="none" stroke="black" d="M118,-287.7C118,-279.98 118,-270.71 118,-262.11"/>
<polygon fill="black" stroke="black" points="121.5,-262.1 118,-252.1 114.5,-262.1 121.5,-262.1"/>
</g>
<!-- input.2 -->
<g id="node4" class="node">
<title>input.2</title>
<path fill="none" stroke="black" d="M143,-180C143,-180 93,-180 93,-180 87,-180 81,-174 81,-168 81,-168 81,-156 81,-156 81,-150 87,-144 93,-144 93,-144 143,-144 143,-144 149,-144 155,-150 155,-156 155,-156 155,-168 155,-168 155,-174 149,-180 143,-180"/>
<text text-anchor="middle" x="118" y="-158.3" font-family="Times,serif" font-size="14.00">mul add</text>
</g>
<!-- .13&#45;&gt;input.2 -->
<g id="edge2" class="edge">
<title>.13&#45;&gt;input.2</title>
<path fill="none" stroke="black" d="M118,-215.7C118,-207.98 118,-198.71 118,-190.11"/>
<polygon fill="black" stroke="black" points="121.5,-190.1 118,-180.1 114.5,-190.1 121.5,-190.1"/>
</g>
<!-- .14 -->
<g id="node3" class="node">
<title>.14</title>
<polygon fill="none" stroke="black" points="191,-108 45,-108 45,-72 191,-72 191,-108"/>
<text text-anchor="middle" x="118" y="-86.3" font-family="Times,serif" font-size="14.00">dropout (Dropout)</text>
</g>
<!-- out_0 -->
<g id="node5" class="node">
<title>out_0</title>
<ellipse fill="none" stroke="black" cx="118" cy="-18" rx="36.29" ry="18"/>
<text text-anchor="middle" x="118" y="-14.3" font-family="Times,serif" font-size="14.00">out_0</text>
</g>
<!-- .14&#45;&gt;out_0 -->
<g id="edge4" class="edge">
<title>.14&#45;&gt;out_0</title>
<path fill="none" stroke="black" d="M118,-71.7C118,-63.98 118,-54.71 118,-46.11"/>
<polygon fill="black" stroke="black" points="121.5,-46.1 118,-36.1 114.5,-46.1 121.5,-46.1"/>
</g>
<!-- input.2&#45;&gt;.14 -->
<g id="edge3" class="edge">
<title>input.2&#45;&gt;.14</title>
<path fill="none" stroke="black" d="M118,-143.7C118,-135.98 118,-126.71 118,-118.11"/>
<polygon fill="black" stroke="black" points="121.5,-118.1 118,-108.1 114.5,-118.1 121.5,-118.1"/>
</g>
</g>
</svg>
