<?xml version="1.0" encoding="UTF-8" standalone="no"?>
<!DOCTYPE svg PUBLIC "-//W3C//DTD SVG 1.1//EN"
 "http://www.w3.org/Graphics/SVG/1.1/DTD/svg11.dtd">
<!-- Generated by graphviz version 2.46.0 (0)
 -->
<!-- Pages: 1 -->
<svg width="296pt" height="283pt"
 viewBox="0.00 0.00 296.00 283.00" xmlns="http://www.w3.org/2000/svg" xmlns:xlink="http://www.w3.org/1999/xlink">
<g id="graph0" class="graph" transform="scale(1 1) rotate(0) translate(4 279)">
<polygon fill="white" stroke="transparent" points="-4,4 -4,-279 292,-279 292,4 -4,4"/>
<text text-anchor="middle" x="144" y="-259.8" font-family="Times,serif" font-size="14.00">EncoderBlock</text>
<!-- inp_1 -->
<g id="node1" class="node">
<title>inp_1</title>
<ellipse fill="none" stroke="black" cx="86" cy="-234" rx="36" ry="18"/>
<text text-anchor="middle" x="86" y="-230.3" font-family="Times,serif" font-size="14.00">inp_1</text>
</g>
<!-- .7 -->
<g id="node3" class="node">
<title>.7</title>
<polygon fill="none" stroke="black" points="276,-180 12,-180 12,-144 276,-144 276,-180"/>
<text text-anchor="middle" x="144" y="-158.3" font-family="Times,serif" font-size="14.00">self_attention (AttentionAddNorm)</text>
</g>
<!-- inp_1&#45;&gt;.7 -->
<g id="edge1" class="edge">
<title>inp_1&#45;&gt;.7</title>
<path fill="none" stroke="black" d="M99.16,-217.12C106.26,-208.54 115.19,-197.77 123.21,-188.09"/>
<polygon fill="black" stroke="black" points="125.99,-190.23 129.67,-180.29 120.6,-185.76 125.99,-190.23"/>
</g>
<!-- inp_mask.1 -->
<g id="node2" class="node">
<title>inp_mask.1</title>
<ellipse fill="none" stroke="black" cx="203" cy="-234" rx="63.09" ry="18"/>
<text text-anchor="middle" x="203" y="-230.3" font-family="Times,serif" font-size="14.00">inp_mask.1</text>
</g>
<!-- inp_mask.1&#45;&gt;.7 -->
<g id="edge2" class="edge">
<title>inp_mask.1&#45;&gt;.7</title>
<path fill="none" stroke="black" d="M189.02,-216.41C181.95,-208.03 173.23,-197.68 165.35,-188.33"/>
<polygon fill="black" stroke="black" points="167.83,-185.84 158.71,-180.45 162.47,-190.35 167.83,-185.84"/>
</g>
<!-- .8 -->
<g id="node4" class="node">
<title>.8</title>
<polygon fill="none" stroke="black" points="288,-108 0,-108 0,-72 288,-72 288,-108"/>
<text text-anchor="middle" x="144" y="-86.3" font-family="Times,serif" font-size="14.00">feed_forward (FeedForwardAddNorm)</text>
</g>
<!-- .7&#45;&gt;.8 -->
<g id="edge3" class="edge">
<title>.7&#45;&gt;.8</title>
<path fill="none" stroke="black" d="M144,-143.7C144,-135.98 144,-126.71 144,-118.11"/>
<polygon fill="black" stroke="black" points="147.5,-118.1 144,-108.1 140.5,-118.1 147.5,-118.1"/>
</g>
<!-- out_0 -->
<g id="node5" class="node">
<title>out_0</title>
<ellipse fill="none" stroke="black" cx="144" cy="-18" rx="36.29" ry="18"/>
<text text-anchor="middle" x="144" y="-14.3" font-family="Times,serif" font-size="14.00">out_0</text>
</g>
<!-- .8&#45;&gt;out_0 -->
<g id="edge4" class="edge">
<title>.8&#45;&gt;out_0</title>
<path fill="none" stroke="black" d="M144,-71.7C144,-63.98 144,-54.71 144,-46.11"/>
<polygon fill="black" stroke="black" points="147.5,-46.1 144,-36.1 140.5,-46.1 147.5,-46.1"/>
</g>
</g>
</svg>
