<?xml version="1.0" encoding="UTF-8" standalone="no"?>
<!DOCTYPE svg PUBLIC "-//W3C//DTD SVG 1.1//EN"
 "http://www.w3.org/Graphics/SVG/1.1/DTD/svg11.dtd">
<!-- Generated by graphviz version 2.46.0 (0)
 -->
<!-- Pages: 1 -->
<svg width="565pt" height="283pt"
 viewBox="0.00 0.00 565.45 283.00" xmlns="http://www.w3.org/2000/svg" xmlns:xlink="http://www.w3.org/1999/xlink">
<g id="graph0" class="graph" transform="scale(1 1) rotate(0) translate(4 279)">
<polygon fill="white" stroke="transparent" points="-4,4 -4,-279 561.45,-279 561.45,4 -4,4"/>
<text text-anchor="middle" x="278.72" y="-259.8" font-family="Times,serif" font-size="14.00">TransformerEncoderDecoder</text>
<!-- inp_input.1 -->
<g id="node1" class="node">
<title>inp_input.1</title>
<ellipse fill="none" stroke="black" cx="118.5" cy="-234" rx="63.09" ry="18"/>
<text text-anchor="middle" x="118.5" y="-230.3" font-family="Times,serif" font-size="14.00">inp_input.1</text>
</g>
<!-- .1973 -->
<g id="node5" class="node">
<title>.1973</title>
<polygon fill="none" stroke="black" points="237,-180 0,-180 0,-144 237,-144 237,-180"/>
<text text-anchor="middle" x="118.5" y="-158.3" font-family="Times,serif" font-size="14.00">encoder (TransformerEncoder)</text>
</g>
<!-- inp_input.1&#45;&gt;.1973 -->
<g id="edge1" class="edge">
<title>inp_input.1&#45;&gt;.1973</title>
<path fill="none" stroke="black" d="M118.5,-215.7C118.5,-207.98 118.5,-198.71 118.5,-190.11"/>
<polygon fill="black" stroke="black" points="122,-190.1 118.5,-180.1 115,-190.1 122,-190.1"/>
</g>
<!-- inp_mask.1 -->
<g id="node2" class="node">
<title>inp_mask.1</title>
<ellipse fill="none" stroke="black" cx="263.5" cy="-234" rx="63.09" ry="18"/>
<text text-anchor="middle" x="263.5" y="-230.3" font-family="Times,serif" font-size="14.00">inp_mask.1</text>
</g>
<!-- inp_mask.1&#45;&gt;.1973 -->
<g id="edge2" class="edge">
<title>inp_mask.1&#45;&gt;.1973</title>
<path fill="none" stroke="black" d="M232.75,-218.15C212.44,-208.35 185.49,-195.34 162.87,-184.42"/>
<polygon fill="black" stroke="black" points="164.32,-181.24 153.8,-180.04 161.28,-187.54 164.32,-181.24"/>
</g>
<!-- .1974 -->
<g id="node6" class="node">
<title>.1974</title>
<polygon fill="none" stroke="black" points="432,-108 195,-108 195,-72 432,-72 432,-108"/>
<text text-anchor="middle" x="313.5" y="-86.3" font-family="Times,serif" font-size="14.00">decoder (TransformerDecoder)</text>
</g>
<!-- inp_mask.1&#45;&gt;.1974 -->
<g id="edge6" class="edge">
<title>inp_mask.1&#45;&gt;.1974</title>
<path fill="none" stroke="black" d="M266.13,-215.86C269.25,-197.64 275.23,-168.16 284.5,-144 287.99,-134.89 292.78,-125.41 297.45,-117.02"/>
<polygon fill="black" stroke="black" points="300.63,-118.51 302.61,-108.1 294.57,-115.01 300.63,-118.51"/>
</g>
<!-- inp_input.21 -->
<g id="node3" class="node">
<title>inp_input.21</title>
<ellipse fill="none" stroke="black" cx="362.5" cy="-162" rx="68.79" ry="18"/>
<text text-anchor="middle" x="362.5" y="-158.3" font-family="Times,serif" font-size="14.00">inp_input.21</text>
</g>
<!-- inp_input.21&#45;&gt;.1974 -->
<g id="edge3" class="edge">
<title>inp_input.21&#45;&gt;.1974</title>
<path fill="none" stroke="black" d="M350.64,-144.05C344.89,-135.84 337.85,-125.79 331.46,-116.66"/>
<polygon fill="black" stroke="black" points="334.19,-114.46 325.59,-108.28 328.46,-118.47 334.19,-114.46"/>
</g>
<!-- inp_mask -->
<g id="node4" class="node">
<title>inp_mask</title>
<ellipse fill="none" stroke="black" cx="503.5" cy="-162" rx="53.89" ry="18"/>
<text text-anchor="middle" x="503.5" y="-158.3" font-family="Times,serif" font-size="14.00">inp_mask</text>
</g>
<!-- inp_mask&#45;&gt;.1974 -->
<g id="edge4" class="edge">
<title>inp_mask&#45;&gt;.1974</title>
<path fill="none" stroke="black" d="M468.65,-148.16C440.98,-137.97 401.75,-123.51 369.65,-111.69"/>
<polygon fill="black" stroke="black" points="370.54,-108.28 359.95,-108.11 368.12,-114.85 370.54,-108.28"/>
</g>
<!-- .1973&#45;&gt;.1974 -->
<g id="edge5" class="edge">
<title>.1973&#45;&gt;.1974</title>
<path fill="none" stroke="black" d="M166.2,-143.88C193.45,-134.09 227.8,-121.77 256.47,-111.47"/>
<polygon fill="black" stroke="black" points="257.72,-114.74 265.95,-108.07 255.36,-108.15 257.72,-114.74"/>
</g>
<!-- out_0 -->
<g id="node7" class="node">
<title>out_0</title>
<ellipse fill="none" stroke="black" cx="313.5" cy="-18" rx="36.29" ry="18"/>
<text text-anchor="middle" x="313.5" y="-14.3" font-family="Times,serif" font-size="14.00">out_0</text>
</g>
<!-- .1974&#45;&gt;out_0 -->
<g id="edge7" class="edge">
<title>.1974&#45;&gt;out_0</title>
<path fill="none" stroke="black" d="M313.5,-71.7C313.5,-63.98 313.5,-54.71 313.5,-46.11"/>
<polygon fill="black" stroke="black" points="317,-46.1 313.5,-36.1 310,-46.1 317,-46.1"/>
</g>
</g>
</svg>
