<?xml version="1.0" encoding="UTF-8" standalone="no"?>
<!DOCTYPE svg PUBLIC "-//W3C//DTD SVG 1.1//EN"
 "http://www.w3.org/Graphics/SVG/1.1/DTD/svg11.dtd">
<!-- Generated by graphviz version 2.46.0 (0)
 -->
<!-- Pages: 1 -->
<svg width="1024pt" height="1017pt"
 viewBox="0.00 0.00 1023.74 1017.00" xmlns="http://www.w3.org/2000/svg" xmlns:xlink="http://www.w3.org/1999/xlink">
<g id="graph0" class="graph" transform="scale(1 1) rotate(0) translate(4 1013)">
<polygon fill="white" stroke="transparent" points="-4,4 -4,-1013 1019.74,-1013 1019.74,4 -4,4"/>
<text text-anchor="middle" x="507.87" y="-993.8" font-family="Times,serif" font-size="14.00">TransformerDecoder</text>
<g id="clust1" class="cluster">
<title>cluster_.16</title>
<polygon fill="none" stroke="black" points="252,-507 252,-870 992,-870 992,-507 252,-507"/>
<text text-anchor="middle" x="622" y="-854.8" font-family="Times,serif" font-size="14.00">blocks.0 (DecoderBlock)</text>
</g>
<g id="clust2" class="cluster">
<title>cluster_.17</title>
<polygon fill="none" stroke="black" points="8,-136 8,-499 748,-499 748,-136 8,-136"/>
<text text-anchor="middle" x="378" y="-483.8" font-family="Times,serif" font-size="14.00">blocks.1 (DecoderBlock)</text>
</g>
<!-- inp_input.21 -->
<g id="node1" class="node">
<title>inp_input.21</title>
<ellipse fill="none" stroke="black" cx="699" cy="-968" rx="68.79" ry="18"/>
<text text-anchor="middle" x="699" y="-964.3" font-family="Times,serif" font-size="14.00">inp_input.21</text>
</g>
<!-- .15 -->
<g id="node5" class="node">
<title>.15</title>
<polygon fill="none" stroke="black" points="795.5,-914 602.5,-914 602.5,-878 795.5,-878 795.5,-914"/>
<text text-anchor="middle" x="699" y="-892.3" font-family="Times,serif" font-size="14.00">embedding (Embedding)</text>
</g>
<!-- inp_input.21&#45;&gt;.15 -->
<g id="edge1" class="edge">
<title>inp_input.21&#45;&gt;.15</title>
<path fill="none" stroke="black" d="M699,-949.7C699,-941.98 699,-932.71 699,-924.11"/>
<polygon fill="black" stroke="black" points="702.5,-924.1 699,-914.1 695.5,-924.1 702.5,-924.1"/>
</g>
<!-- inp_mask -->
<g id="node2" class="node">
<title>inp_mask</title>
<ellipse fill="none" stroke="black" cx="950" cy="-896" rx="53.89" ry="18"/>
<text text-anchor="middle" x="950" y="-892.3" font-family="Times,serif" font-size="14.00">inp_mask</text>
</g>
<!-- blocks.0.inp_mask -->
<g id="node7" class="node">
<title>blocks.0.inp_mask</title>
<ellipse fill="none" stroke="black" cx="889" cy="-821" rx="94.78" ry="18"/>
<text text-anchor="middle" x="889" y="-817.3" font-family="Times,serif" font-size="14.00">blocks.0.inp_mask</text>
</g>
<!-- inp_mask&#45;&gt;blocks.0.inp_mask -->
<g id="edge3" class="edge">
<title>inp_mask&#45;&gt;blocks.0.inp_mask</title>
<path fill="none" stroke="black" d="M936.16,-878.44C928.39,-869.14 918.55,-857.36 909.86,-846.97"/>
<polygon fill="black" stroke="black" points="912.31,-844.44 903.21,-839.01 906.94,-848.92 912.31,-844.44"/>
</g>
<!-- blocks.1.inp_mask -->
<g id="node15" class="node">
<title>blocks.1.inp_mask</title>
<ellipse fill="none" stroke="black" cx="645" cy="-450" rx="94.78" ry="18"/>
<text text-anchor="middle" x="645" y="-446.3" font-family="Times,serif" font-size="14.00">blocks.1.inp_mask</text>
</g>
<!-- inp_mask&#45;&gt;blocks.1.inp_mask -->
<g id="edge14" class="edge">
<title>inp_mask&#45;&gt;blocks.1.inp_mask</title>
<path fill="none" stroke="black" d="M983.71,-881.69C988.46,-878.5 992.81,-874.64 996,-870 1026.5,-825.68 1012,-803.81 1012,-750 1012,-750 1012,-750 1012,-604 1012,-560.31 1026.98,-537.81 996,-507 961.84,-473.02 838.77,-459.66 747.96,-454.41"/>
<polygon fill="black" stroke="black" points="748.06,-450.91 737.89,-453.85 747.68,-457.9 748.06,-450.91"/>
</g>
<!-- inp_11 -->
<g id="node3" class="node">
<title>inp_11</title>
<ellipse fill="none" stroke="black" cx="58" cy="-821" rx="41.69" ry="18"/>
<text text-anchor="middle" x="58" y="-817.3" font-family="Times,serif" font-size="14.00">inp_11</text>
</g>
<!-- blocks.0.inp_3 -->
<g id="node8" class="node">
<title>blocks.0.inp_3</title>
<ellipse fill="none" stroke="black" cx="337" cy="-749" rx="76.89" ry="18"/>
<text text-anchor="middle" x="337" y="-745.3" font-family="Times,serif" font-size="14.00">blocks.0.inp_3</text>
</g>
<!-- inp_11&#45;&gt;blocks.0.inp_3 -->
<g id="edge4" class="edge">
<title>inp_11&#45;&gt;blocks.0.inp_3</title>
<path fill="none" stroke="black" d="M89.42,-809.02C95.86,-806.91 102.62,-804.8 109,-803 163.29,-787.68 225.74,-773.39 271.54,-763.52"/>
<polygon fill="black" stroke="black" points="272.3,-766.93 281.34,-761.42 270.83,-760.09 272.3,-766.93"/>
</g>
<!-- blocks.1.inp_3 -->
<g id="node16" class="node">
<title>blocks.1.inp_3</title>
<ellipse fill="none" stroke="black" cx="93" cy="-378" rx="76.89" ry="18"/>
<text text-anchor="middle" x="93" y="-374.3" font-family="Times,serif" font-size="14.00">blocks.1.inp_3</text>
</g>
<!-- inp_11&#45;&gt;blocks.1.inp_3 -->
<g id="edge15" class="edge">
<title>inp_11&#45;&gt;blocks.1.inp_3</title>
<path fill="none" stroke="black" d="M59.58,-802.97C61.91,-776.33 66,-723.19 66,-678 66,-678 66,-678 66,-532 66,-487.36 77.28,-436.5 85.26,-406.11"/>
<polygon fill="black" stroke="black" points="88.69,-406.83 87.92,-396.26 81.94,-405 88.69,-406.83"/>
</g>
<!-- inp_mask.1 -->
<g id="node4" class="node">
<title>inp_mask.1</title>
<ellipse fill="none" stroke="black" cx="181" cy="-821" rx="63.09" ry="18"/>
<text text-anchor="middle" x="181" y="-817.3" font-family="Times,serif" font-size="14.00">inp_mask.1</text>
</g>
<!-- blocks.0.inp_mask.1 -->
<g id="node9" class="node">
<title>blocks.0.inp_mask.1</title>
<ellipse fill="none" stroke="black" cx="536" cy="-749" rx="103.98" ry="18"/>
<text text-anchor="middle" x="536" y="-745.3" font-family="Times,serif" font-size="14.00">blocks.0.inp_mask.1</text>
</g>
<!-- inp_mask.1&#45;&gt;blocks.0.inp_mask.1 -->
<g id="edge5" class="edge">
<title>inp_mask.1&#45;&gt;blocks.0.inp_mask.1</title>
<path fill="none" stroke="black" d="M225.59,-808.25C233.05,-806.41 240.73,-804.59 248,-803 316.87,-787.94 395.64,-773.65 453.37,-763.7"/>
<polygon fill="black" stroke="black" points="454.27,-767.1 463.53,-761.96 453.09,-760.2 454.27,-767.1"/>
</g>
<!-- blocks.1.inp_mask.1 -->
<g id="node17" class="node">
<title>blocks.1.inp_mask.1</title>
<ellipse fill="none" stroke="black" cx="292" cy="-378" rx="103.98" ry="18"/>
<text text-anchor="middle" x="292" y="-374.3" font-family="Times,serif" font-size="14.00">blocks.1.inp_mask.1</text>
</g>
<!-- inp_mask.1&#45;&gt;blocks.1.inp_mask.1 -->
<g id="edge16" class="edge">
<title>inp_mask.1&#45;&gt;blocks.1.inp_mask.1</title>
<path fill="none" stroke="black" d="M186.06,-802.68C193.36,-776.11 206,-723.56 206,-678 206,-678 206,-678 206,-532 206,-481.31 242.32,-431.89 267.75,-403.49"/>
<polygon fill="black" stroke="black" points="270.4,-405.79 274.6,-396.06 265.25,-401.05 270.4,-405.79"/>
</g>
<!-- blocks.0.inp_1 -->
<g id="node6" class="node">
<title>blocks.0.inp_1</title>
<ellipse fill="none" stroke="black" cx="699" cy="-821" rx="76.89" ry="18"/>
<text text-anchor="middle" x="699" y="-817.3" font-family="Times,serif" font-size="14.00">blocks.0.inp_1</text>
</g>
<!-- .15&#45;&gt;blocks.0.inp_1 -->
<g id="edge2" class="edge">
<title>.15&#45;&gt;blocks.0.inp_1</title>
<path fill="none" stroke="black" d="M699,-877.7C699,-869.25 699,-858.87 699,-849.37"/>
<polygon fill="black" stroke="black" points="702.5,-849.18 699,-839.18 695.5,-849.18 702.5,-849.18"/>
</g>
<!-- blocks.0..11 -->
<g id="node10" class="node">
<title>blocks.0..11</title>
<polygon fill="none" stroke="black" points="984.5,-767 657.5,-767 657.5,-731 984.5,-731 984.5,-767"/>
<text text-anchor="middle" x="821" y="-745.3" font-family="Times,serif" font-size="14.00">blocks.0.self_attention (AttentionAddNorm)</text>
</g>
<!-- blocks.0.inp_1&#45;&gt;blocks.0..11 -->
<g id="edge6" class="edge">
<title>blocks.0.inp_1&#45;&gt;blocks.0..11</title>
<path fill="none" stroke="black" d="M726.68,-804.12C743.09,-794.7 764.13,-782.63 782.17,-772.28"/>
<polygon fill="black" stroke="black" points="784.36,-775.06 791.29,-767.04 780.88,-768.99 784.36,-775.06"/>
</g>
<!-- blocks.0.inp_mask&#45;&gt;blocks.0..11 -->
<g id="edge7" class="edge">
<title>blocks.0.inp_mask&#45;&gt;blocks.0..11</title>
<path fill="none" stroke="black" d="M872.54,-803.05C864.23,-794.5 853.99,-783.96 844.83,-774.54"/>
<polygon fill="black" stroke="black" points="847.26,-772.01 837.78,-767.28 842.24,-776.89 847.26,-772.01"/>
</g>
<!-- blocks.0..12 -->
<g id="node11" class="node">
<title>blocks.0..12</title>
<polygon fill="none" stroke="black" points="680.5,-695 341.5,-695 341.5,-659 680.5,-659 680.5,-695"/>
<text text-anchor="middle" x="511" y="-673.3" font-family="Times,serif" font-size="14.00">blocks.0.cross_attention (AttentionAddNorm)</text>
</g>
<!-- blocks.0.inp_3&#45;&gt;blocks.0..12 -->
<g id="edge9" class="edge">
<title>blocks.0.inp_3&#45;&gt;blocks.0..12</title>
<path fill="none" stroke="black" d="M373.9,-733.15C398.71,-723.17 431.76,-709.88 459.2,-698.84"/>
<polygon fill="black" stroke="black" points="460.67,-702.02 468.64,-695.04 458.06,-695.53 460.67,-702.02"/>
</g>
<!-- blocks.0.inp_mask.1&#45;&gt;blocks.0..12 -->
<g id="edge10" class="edge">
<title>blocks.0.inp_mask.1&#45;&gt;blocks.0..12</title>
<path fill="none" stroke="black" d="M529.82,-730.7C527,-722.81 523.61,-713.3 520.48,-704.55"/>
<polygon fill="black" stroke="black" points="523.77,-703.34 517.11,-695.1 517.18,-705.7 523.77,-703.34"/>
</g>
<!-- blocks.0..11&#45;&gt;blocks.0..12 -->
<g id="edge8" class="edge">
<title>blocks.0..11&#45;&gt;blocks.0..12</title>
<path fill="none" stroke="black" d="M745.56,-730.97C700.47,-720.78 643.05,-707.82 596.31,-697.26"/>
<polygon fill="black" stroke="black" points="597.03,-693.84 586.51,-695.05 595.49,-700.67 597.03,-693.84"/>
</g>
<!-- blocks.0..13 -->
<g id="node12" class="node">
<title>blocks.0..13</title>
<polygon fill="none" stroke="black" points="661.5,-623 310.5,-623 310.5,-587 661.5,-587 661.5,-623"/>
<text text-anchor="middle" x="486" y="-601.3" font-family="Times,serif" font-size="14.00">blocks.0.feed_forward (FeedForwardAddNorm)</text>
</g>
<!-- blocks.0..12&#45;&gt;blocks.0..13 -->
<g id="edge11" class="edge">
<title>blocks.0..12&#45;&gt;blocks.0..13</title>
<path fill="none" stroke="black" d="M504.82,-658.7C502,-650.81 498.61,-641.3 495.48,-632.55"/>
<polygon fill="black" stroke="black" points="498.77,-631.34 492.11,-623.1 492.18,-633.7 498.77,-631.34"/>
</g>
<!-- blocks.0.out_0 -->
<g id="node13" class="node">
<title>blocks.0.out_0</title>
<ellipse fill="none" stroke="black" cx="459" cy="-533" rx="77.19" ry="18"/>
<text text-anchor="middle" x="459" y="-529.3" font-family="Times,serif" font-size="14.00">blocks.0.out_0</text>
</g>
<!-- blocks.0..13&#45;&gt;blocks.0.out_0 -->
<g id="edge12" class="edge">
<title>blocks.0..13&#45;&gt;blocks.0.out_0</title>
<path fill="none" stroke="black" d="M479.33,-586.7C476.29,-578.81 472.62,-569.3 469.24,-560.55"/>
<polygon fill="black" stroke="black" points="472.46,-559.17 465.6,-551.1 465.93,-561.69 472.46,-559.17"/>
</g>
<!-- blocks.1.inp_1 -->
<g id="node14" class="node">
<title>blocks.1.inp_1</title>
<ellipse fill="none" stroke="black" cx="455" cy="-450" rx="76.89" ry="18"/>
<text text-anchor="middle" x="455" y="-446.3" font-family="Times,serif" font-size="14.00">blocks.1.inp_1</text>
</g>
<!-- blocks.0.out_0&#45;&gt;blocks.1.inp_1 -->
<g id="edge13" class="edge">
<title>blocks.0.out_0&#45;&gt;blocks.1.inp_1</title>
<path fill="none" stroke="black" d="M458.15,-514.82C457.63,-504.19 456.94,-490.31 456.34,-478.2"/>
<polygon fill="black" stroke="black" points="459.84,-477.97 455.85,-468.15 452.84,-478.31 459.84,-477.97"/>
</g>
<!-- blocks.1..11 -->
<g id="node18" class="node">
<title>blocks.1..11</title>
<polygon fill="none" stroke="black" points="740.5,-396 413.5,-396 413.5,-360 740.5,-360 740.5,-396"/>
<text text-anchor="middle" x="577" y="-374.3" font-family="Times,serif" font-size="14.00">blocks.1.self_attention (AttentionAddNorm)</text>
</g>
<!-- blocks.1.inp_1&#45;&gt;blocks.1..11 -->
<g id="edge17" class="edge">
<title>blocks.1.inp_1&#45;&gt;blocks.1..11</title>
<path fill="none" stroke="black" d="M482.68,-433.12C499.09,-423.7 520.13,-411.63 538.17,-401.28"/>
<polygon fill="black" stroke="black" points="540.36,-404.06 547.29,-396.04 536.88,-397.99 540.36,-404.06"/>
</g>
<!-- blocks.1.inp_mask&#45;&gt;blocks.1..11 -->
<g id="edge18" class="edge">
<title>blocks.1.inp_mask&#45;&gt;blocks.1..11</title>
<path fill="none" stroke="black" d="M628.54,-432.05C620.23,-423.5 609.99,-412.96 600.83,-403.54"/>
<polygon fill="black" stroke="black" points="603.26,-401.01 593.78,-396.28 598.24,-405.89 603.26,-401.01"/>
</g>
<!-- blocks.1..12 -->
<g id="node19" class="node">
<title>blocks.1..12</title>
<polygon fill="none" stroke="black" points="461.5,-324 122.5,-324 122.5,-288 461.5,-288 461.5,-324"/>
<text text-anchor="middle" x="292" y="-302.3" font-family="Times,serif" font-size="14.00">blocks.1.cross_attention (AttentionAddNorm)</text>
</g>
<!-- blocks.1.inp_3&#45;&gt;blocks.1..12 -->
<g id="edge20" class="edge">
<title>blocks.1.inp_3&#45;&gt;blocks.1..12</title>
<path fill="none" stroke="black" d="M133.75,-362.67C162.61,-352.52 201.73,-338.75 233.86,-327.45"/>
<polygon fill="black" stroke="black" points="235.31,-330.65 243.58,-324.03 232.99,-324.05 235.31,-330.65"/>
</g>
<!-- blocks.1.inp_mask.1&#45;&gt;blocks.1..12 -->
<g id="edge21" class="edge">
<title>blocks.1.inp_mask.1&#45;&gt;blocks.1..12</title>
<path fill="none" stroke="black" d="M292,-359.7C292,-351.98 292,-342.71 292,-334.11"/>
<polygon fill="black" stroke="black" points="295.5,-334.1 292,-324.1 288.5,-334.1 295.5,-334.1"/>
</g>
<!-- blocks.1..11&#45;&gt;blocks.1..12 -->
<g id="edge19" class="edge">
<title>blocks.1..11&#45;&gt;blocks.1..12</title>
<path fill="none" stroke="black" d="M507.65,-359.97C466.53,-349.87 414.26,-337.03 371.48,-326.52"/>
<polygon fill="black" stroke="black" points="372.21,-323.1 361.67,-324.11 370.54,-329.9 372.21,-323.1"/>
</g>
<!-- blocks.1..13 -->
<g id="node20" class="node">
<title>blocks.1..13</title>
<polygon fill="none" stroke="black" points="467.5,-252 116.5,-252 116.5,-216 467.5,-216 467.5,-252"/>
<text text-anchor="middle" x="292" y="-230.3" font-family="Times,serif" font-size="14.00">blocks.1.feed_forward (FeedForwardAddNorm)</text>
</g>
<!-- blocks.1..12&#45;&gt;blocks.1..13 -->
<g id="edge22" class="edge">
<title>blocks.1..12&#45;&gt;blocks.1..13</title>
<path fill="none" stroke="black" d="M292,-287.7C292,-279.98 292,-270.71 292,-262.11"/>
<polygon fill="black" stroke="black" points="295.5,-262.1 292,-252.1 288.5,-262.1 295.5,-262.1"/>
</g>
<!-- blocks.1.out_0 -->
<g id="node21" class="node">
<title>blocks.1.out_0</title>
<ellipse fill="none" stroke="black" cx="292" cy="-162" rx="77.19" ry="18"/>
<text text-anchor="middle" x="292" y="-158.3" font-family="Times,serif" font-size="14.00">blocks.1.out_0</text>
</g>
<!-- blocks.1..13&#45;&gt;blocks.1.out_0 -->
<g id="edge23" class="edge">
<title>blocks.1..13&#45;&gt;blocks.1.out_0</title>
<path fill="none" stroke="black" d="M292,-215.7C292,-207.98 292,-198.71 292,-190.11"/>
<polygon fill="black" stroke="black" points="295.5,-190.1 292,-180.1 288.5,-190.1 295.5,-190.1"/>
</g>
<!-- .18 -->
<g id="node22" class="node">
<title>.18</title>
<polygon fill="none" stroke="black" points="375.5,-108 208.5,-108 208.5,-72 375.5,-72 375.5,-108"/>
<text text-anchor="middle" x="292" y="-86.3" font-family="Times,serif" font-size="14.00">output_layer (Linear)</text>
</g>
<!-- blocks.1.out_0&#45;&gt;.18 -->
<g id="edge24" class="edge">
<title>blocks.1.out_0&#45;&gt;.18</title>
<path fill="none" stroke="black" d="M292,-143.7C292,-135.98 292,-126.71 292,-118.11"/>
<polygon fill="black" stroke="black" points="295.5,-118.1 292,-108.1 288.5,-118.1 295.5,-118.1"/>
</g>
<!-- out_0 -->
<g id="node23" class="node">
<title>out_0</title>
<ellipse fill="none" stroke="black" cx="292" cy="-18" rx="36.29" ry="18"/>
<text text-anchor="middle" x="292" y="-14.3" font-family="Times,serif" font-size="14.00">out_0</text>
</g>
<!-- .18&#45;&gt;out_0 -->
<g id="edge25" class="edge">
<title>.18&#45;&gt;out_0</title>
<path fill="none" stroke="black" d="M292,-71.7C292,-63.98 292,-54.71 292,-46.11"/>
<polygon fill="black" stroke="black" points="295.5,-46.1 292,-36.1 288.5,-46.1 295.5,-46.1"/>
</g>
</g>
</svg>
