<?xml version="1.0" encoding="UTF-8" standalone="no"?>
<!DOCTYPE svg PUBLIC "-//W3C//DTD SVG 1.1//EN"
 "http://www.w3.org/Graphics/SVG/1.1/DTD/svg11.dtd">
<!-- Generated by graphviz version 2.46.0 (0)
 -->
<!-- Pages: 1 -->
<svg width="1244pt" height="574pt"
 viewBox="0.00 0.00 1244.45 574.00" xmlns="http://www.w3.org/2000/svg" xmlns:xlink="http://www.w3.org/1999/xlink">
<g id="graph0" class="graph" transform="scale(1 1) rotate(0) translate(4 570)">
<polygon fill="white" stroke="transparent" points="-4,4 -4,-570 1240.45,-570 1240.45,4 -4,4"/>
<text text-anchor="middle" x="618.22" y="-550.8" font-family="Times,serif" font-size="14.00">TransformerEncoderDecoder</text>
<g id="clust1" class="cluster">
<title>cluster_.1974</title>
<polygon fill="none" stroke="black" points="245.5,-64 245.5,-499 1120.5,-499 1120.5,-64 245.5,-64"/>
<text text-anchor="middle" x="683" y="-483.8" font-family="Times,serif" font-size="14.00">decoder (TransformerDecoder)</text>
</g>
<!-- inp_input.1 -->
<g id="node1" class="node">
<title>inp_input.1</title>
<ellipse fill="none" stroke="black" cx="118.5" cy="-525" rx="63.09" ry="18"/>
<text text-anchor="middle" x="118.5" y="-521.3" font-family="Times,serif" font-size="14.00">inp_input.1</text>
</g>
<!-- .1973 -->
<g id="node5" class="node">
<title>.1973</title>
<polygon fill="none" stroke="black" points="237,-468 0,-468 0,-432 237,-432 237,-468"/>
<text text-anchor="middle" x="118.5" y="-446.3" font-family="Times,serif" font-size="14.00">encoder (TransformerEncoder)</text>
</g>
<!-- inp_input.1&#45;&gt;.1973 -->
<g id="edge1" class="edge">
<title>inp_input.1&#45;&gt;.1973</title>
<path fill="none" stroke="black" d="M118.5,-506.7C118.5,-498.25 118.5,-487.87 118.5,-478.37"/>
<polygon fill="black" stroke="black" points="122,-478.18 118.5,-468.18 115,-478.18 122,-478.18"/>
</g>
<!-- inp_mask.1 -->
<g id="node2" class="node">
<title>inp_mask.1</title>
<ellipse fill="none" stroke="black" cx="331.5" cy="-525" rx="63.09" ry="18"/>
<text text-anchor="middle" x="331.5" y="-521.3" font-family="Times,serif" font-size="14.00">inp_mask.1</text>
</g>
<!-- inp_mask.1&#45;&gt;.1973 -->
<g id="edge2" class="edge">
<title>inp_mask.1&#45;&gt;.1973</title>
<path fill="none" stroke="black" d="M286.37,-512.42C271.94,-508.47 255.96,-503.82 241.5,-499 217.25,-490.92 190.79,-480.78 168.65,-471.9"/>
<polygon fill="black" stroke="black" points="169.7,-468.55 159.12,-468.05 167.08,-475.04 169.7,-468.55"/>
</g>
<!-- decoder.inp_mask.1 -->
<g id="node9" class="node">
<title>decoder.inp_mask.1</title>
<ellipse fill="none" stroke="black" cx="535.5" cy="-378" rx="102.08" ry="18"/>
<text text-anchor="middle" x="535.5" y="-374.3" font-family="Times,serif" font-size="14.00">decoder.inp_mask.1</text>
</g>
<!-- inp_mask.1&#45;&gt;decoder.inp_mask.1 -->
<g id="edge6" class="edge">
<title>inp_mask.1&#45;&gt;decoder.inp_mask.1</title>
<path fill="none" stroke="black" d="M354.11,-507.93C390.53,-482.05 462.27,-431.05 503.78,-401.54"/>
<polygon fill="black" stroke="black" points="506.04,-404.24 512.16,-395.59 501.98,-398.53 506.04,-404.24"/>
</g>
<!-- inp_input.21 -->
<g id="node3" class="node">
<title>inp_input.21</title>
<ellipse fill="none" stroke="black" cx="782.5" cy="-525" rx="68.79" ry="18"/>
<text text-anchor="middle" x="782.5" y="-521.3" font-family="Times,serif" font-size="14.00">inp_input.21</text>
</g>
<!-- decoder.inp_input.21 -->
<g id="node6" class="node">
<title>decoder.inp_input.21</title>
<ellipse fill="none" stroke="black" cx="782.5" cy="-450" rx="107.78" ry="18"/>
<text text-anchor="middle" x="782.5" y="-446.3" font-family="Times,serif" font-size="14.00">decoder.inp_input.21</text>
</g>
<!-- inp_input.21&#45;&gt;decoder.inp_input.21 -->
<g id="edge3" class="edge">
<title>inp_input.21&#45;&gt;decoder.inp_input.21</title>
<path fill="none" stroke="black" d="M782.5,-506.7C782.5,-498.25 782.5,-487.87 782.5,-478.37"/>
<polygon fill="black" stroke="black" points="786,-478.18 782.5,-468.18 779,-478.18 786,-478.18"/>
</g>
<!-- inp_mask -->
<g id="node4" class="node">
<title>inp_mask</title>
<ellipse fill="none" stroke="black" cx="1182.5" cy="-450" rx="53.89" ry="18"/>
<text text-anchor="middle" x="1182.5" y="-446.3" font-family="Times,serif" font-size="14.00">inp_mask</text>
</g>
<!-- decoder.inp_mask -->
<g id="node7" class="node">
<title>decoder.inp_mask</title>
<ellipse fill="none" stroke="black" cx="1019.5" cy="-378" rx="92.88" ry="18"/>
<text text-anchor="middle" x="1019.5" y="-374.3" font-family="Times,serif" font-size="14.00">decoder.inp_mask</text>
</g>
<!-- inp_mask&#45;&gt;decoder.inp_mask -->
<g id="edge4" class="edge">
<title>inp_mask&#45;&gt;decoder.inp_mask</title>
<path fill="none" stroke="black" d="M1150.69,-435.34C1126.32,-424.87 1092.37,-410.29 1065.12,-398.59"/>
<polygon fill="black" stroke="black" points="1066.35,-395.31 1055.78,-394.58 1063.59,-401.74 1066.35,-395.31"/>
</g>
<!-- decoder.inp_11 -->
<g id="node8" class="node">
<title>decoder.inp_11</title>
<ellipse fill="none" stroke="black" cx="334.5" cy="-378" rx="80.69" ry="18"/>
<text text-anchor="middle" x="334.5" y="-374.3" font-family="Times,serif" font-size="14.00">decoder.inp_11</text>
</g>
<!-- .1973&#45;&gt;decoder.inp_11 -->
<g id="edge5" class="edge">
<title>.1973&#45;&gt;decoder.inp_11</title>
<path fill="none" stroke="black" d="M171.06,-431.97C204.48,-421.14 247.61,-407.16 281.17,-396.28"/>
<polygon fill="black" stroke="black" points="282.38,-399.57 290.81,-393.16 280.22,-392.91 282.38,-399.57"/>
</g>
<!-- decoder..15 -->
<g id="node10" class="node">
<title>decoder..15</title>
<polygon fill="none" stroke="black" points="909,-396 656,-396 656,-360 909,-360 909,-396"/>
<text text-anchor="middle" x="782.5" y="-374.3" font-family="Times,serif" font-size="14.00">decoder.embedding (Embedding)</text>
</g>
<!-- decoder.inp_input.21&#45;&gt;decoder..15 -->
<g id="edge7" class="edge">
<title>decoder.inp_input.21&#45;&gt;decoder..15</title>
<path fill="none" stroke="black" d="M782.5,-431.7C782.5,-423.98 782.5,-414.71 782.5,-406.11"/>
<polygon fill="black" stroke="black" points="786,-406.1 782.5,-396.1 779,-406.1 786,-406.1"/>
</g>
<!-- decoder..16 -->
<g id="node11" class="node">
<title>decoder..16</title>
<polygon fill="none" stroke="black" points="802.5,-324 554.5,-324 554.5,-288 802.5,-288 802.5,-324"/>
<text text-anchor="middle" x="678.5" y="-302.3" font-family="Times,serif" font-size="14.00">decoder.blocks.0 (DecoderBlock)</text>
</g>
<!-- decoder.inp_mask&#45;&gt;decoder..16 -->
<g id="edge9" class="edge">
<title>decoder.inp_mask&#45;&gt;decoder..16</title>
<path fill="none" stroke="black" d="M958.14,-364.4C906.21,-353.74 830.97,-338.3 771.62,-326.11"/>
<polygon fill="black" stroke="black" points="771.98,-322.62 761.48,-324.03 770.57,-329.47 771.98,-322.62"/>
</g>
<!-- decoder..17 -->
<g id="node12" class="node">
<title>decoder..17</title>
<polygon fill="none" stroke="black" points="730.5,-252 482.5,-252 482.5,-216 730.5,-216 730.5,-252"/>
<text text-anchor="middle" x="606.5" y="-230.3" font-family="Times,serif" font-size="14.00">decoder.blocks.1 (DecoderBlock)</text>
</g>
<!-- decoder.inp_mask&#45;&gt;decoder..17 -->
<g id="edge13" class="edge">
<title>decoder.inp_mask&#45;&gt;decoder..17</title>
<path fill="none" stroke="black" d="M986.6,-361.08C946.1,-341.92 874.88,-309.62 811.5,-288 773.5,-275.04 730.6,-263.49 693.91,-254.51"/>
<polygon fill="black" stroke="black" points="694.28,-250.99 683.73,-252.04 692.63,-257.8 694.28,-250.99"/>
</g>
<!-- decoder.inp_11&#45;&gt;decoder..16 -->
<g id="edge10" class="edge">
<title>decoder.inp_11&#45;&gt;decoder..16</title>
<path fill="none" stroke="black" d="M392.08,-365.28C444.62,-354.59 523.23,-338.59 584.82,-326.06"/>
<polygon fill="black" stroke="black" points="585.83,-329.43 594.94,-324 584.44,-322.57 585.83,-329.43"/>
</g>
<!-- decoder.inp_11&#45;&gt;decoder..17 -->
<g id="edge14" class="edge">
<title>decoder.inp_11&#45;&gt;decoder..17</title>
<path fill="none" stroke="black" d="M364.65,-361.26C413.29,-335.87 509.2,-285.79 564.51,-256.92"/>
<polygon fill="black" stroke="black" points="566.44,-259.86 573.68,-252.13 563.2,-253.66 566.44,-259.86"/>
</g>
<!-- decoder.inp_mask.1&#45;&gt;decoder..16 -->
<g id="edge11" class="edge">
<title>decoder.inp_mask.1&#45;&gt;decoder..16</title>
<path fill="none" stroke="black" d="M568.31,-360.94C587.92,-351.34 613.08,-339.02 634.41,-328.58"/>
<polygon fill="black" stroke="black" points="636.16,-331.62 643.6,-324.08 633.08,-325.34 636.16,-331.62"/>
</g>
<!-- decoder.inp_mask.1&#45;&gt;decoder..17 -->
<g id="edge15" class="edge">
<title>decoder.inp_mask.1&#45;&gt;decoder..17</title>
<path fill="none" stroke="black" d="M533.87,-359.87C532.86,-341.12 533.57,-310.71 545.5,-288 551.46,-276.65 560.95,-266.64 570.67,-258.48"/>
<polygon fill="black" stroke="black" points="573.14,-260.99 578.83,-252.06 568.81,-255.49 573.14,-260.99"/>
</g>
<!-- decoder..15&#45;&gt;decoder..16 -->
<g id="edge8" class="edge">
<title>decoder..15&#45;&gt;decoder..16</title>
<path fill="none" stroke="black" d="M757.06,-359.88C743.71,-350.89 727.18,-339.76 712.72,-330.03"/>
<polygon fill="black" stroke="black" points="714.29,-326.87 704.04,-324.19 710.38,-332.68 714.29,-326.87"/>
</g>
<!-- decoder..16&#45;&gt;decoder..17 -->
<g id="edge12" class="edge">
<title>decoder..16&#45;&gt;decoder..17</title>
<path fill="none" stroke="black" d="M660.7,-287.7C651.9,-279.14 641.12,-268.66 631.5,-259.3"/>
<polygon fill="black" stroke="black" points="633.7,-256.57 624.09,-252.1 628.82,-261.58 633.7,-256.57"/>
</g>
<!-- decoder..18 -->
<g id="node13" class="node">
<title>decoder..18</title>
<polygon fill="none" stroke="black" points="720,-180 493,-180 493,-144 720,-144 720,-180"/>
<text text-anchor="middle" x="606.5" y="-158.3" font-family="Times,serif" font-size="14.00">decoder.output_layer (Linear)</text>
</g>
<!-- decoder..17&#45;&gt;decoder..18 -->
<g id="edge16" class="edge">
<title>decoder..17&#45;&gt;decoder..18</title>
<path fill="none" stroke="black" d="M606.5,-215.7C606.5,-207.98 606.5,-198.71 606.5,-190.11"/>
<polygon fill="black" stroke="black" points="610,-190.1 606.5,-180.1 603,-190.1 610,-190.1"/>
</g>
<!-- decoder.out_0 -->
<g id="node14" class="node">
<title>decoder.out_0</title>
<ellipse fill="none" stroke="black" cx="606.5" cy="-90" rx="75.29" ry="18"/>
<text text-anchor="middle" x="606.5" y="-86.3" font-family="Times,serif" font-size="14.00">decoder.out_0</text>
</g>
<!-- decoder..18&#45;&gt;decoder.out_0 -->
<g id="edge17" class="edge">
<title>decoder..18&#45;&gt;decoder.out_0</title>
<path fill="none" stroke="black" d="M606.5,-143.7C606.5,-135.98 606.5,-126.71 606.5,-118.11"/>
<polygon fill="black" stroke="black" points="610,-118.1 606.5,-108.1 603,-118.1 610,-118.1"/>
</g>
<!-- out_0 -->
<g id="node15" class="node">
<title>out_0</title>
<ellipse fill="none" stroke="black" cx="606.5" cy="-18" rx="36.29" ry="18"/>
<text text-anchor="middle" x="606.5" y="-14.3" font-family="Times,serif" font-size="14.00">out_0</text>
</g>
<!-- decoder.out_0&#45;&gt;out_0 -->
<g id="edge18" class="edge">
<title>decoder.out_0&#45;&gt;out_0</title>
<path fill="none" stroke="black" d="M606.5,-71.7C606.5,-63.98 606.5,-54.71 606.5,-46.11"/>
<polygon fill="black" stroke="black" points="610,-46.1 606.5,-36.1 603,-46.1 610,-46.1"/>
</g>
</g>
</svg>
