<?xml version="1.0" encoding="UTF-8" standalone="no"?>
<!DOCTYPE svg PUBLIC "-//W3C//DTD SVG 1.1//EN"
 "http://www.w3.org/Graphics/SVG/1.1/DTD/svg11.dtd">
<!-- Generated by graphviz version 2.46.0 (0)
 -->
<!-- Pages: 1 -->
<svg width="346pt" height="355pt"
 viewBox="0.00 0.00 345.54 355.00" xmlns="http://www.w3.org/2000/svg" xmlns:xlink="http://www.w3.org/1999/xlink">
<g id="graph0" class="graph" transform="scale(1 1) rotate(0) translate(4 351)">
<polygon fill="white" stroke="transparent" points="-4,4 -4,-351 341.54,-351 341.54,4 -4,4"/>
<text text-anchor="middle" x="168.77" y="-331.8" font-family="Times,serif" font-size="14.00">TransformerEncoder</text>
<!-- inp_input.1 -->
<g id="node1" class="node">
<title>inp_input.1</title>
<ellipse fill="none" stroke="black" cx="96.5" cy="-306" rx="63.09" ry="18"/>
<text text-anchor="middle" x="96.5" y="-302.3" font-family="Times,serif" font-size="14.00">inp_input.1</text>
</g>
<!-- .11 -->
<g id="node3" class="node">
<title>.11</title>
<polygon fill="none" stroke="black" points="193,-252 0,-252 0,-216 193,-216 193,-252"/>
<text text-anchor="middle" x="96.5" y="-230.3" font-family="Times,serif" font-size="14.00">embedding (Embedding)</text>
</g>
<!-- inp_input.1&#45;&gt;.11 -->
<g id="edge1" class="edge">
<title>inp_input.1&#45;&gt;.11</title>
<path fill="none" stroke="black" d="M96.5,-287.7C96.5,-279.98 96.5,-270.71 96.5,-262.11"/>
<polygon fill="black" stroke="black" points="100,-262.1 96.5,-252.1 93,-262.1 100,-262.1"/>
</g>
<!-- inp_mask.1 -->
<g id="node2" class="node">
<title>inp_mask.1</title>
<ellipse fill="none" stroke="black" cx="274.5" cy="-234" rx="63.09" ry="18"/>
<text text-anchor="middle" x="274.5" y="-230.3" font-family="Times,serif" font-size="14.00">inp_mask.1</text>
</g>
<!-- .12 -->
<g id="node4" class="node">
<title>.12</title>
<polygon fill="none" stroke="black" points="246.5,-180 58.5,-180 58.5,-144 246.5,-144 246.5,-180"/>
<text text-anchor="middle" x="152.5" y="-158.3" font-family="Times,serif" font-size="14.00">blocks.0 (EncoderBlock)</text>
</g>
<!-- inp_mask.1&#45;&gt;.12 -->
<g id="edge3" class="edge">
<title>inp_mask.1&#45;&gt;.12</title>
<path fill="none" stroke="black" d="M247.73,-217.64C231.09,-208.09 209.43,-195.67 190.97,-185.07"/>
<polygon fill="black" stroke="black" points="192.62,-181.99 182.21,-180.04 189.14,-188.06 192.62,-181.99"/>
</g>
<!-- .13 -->
<g id="node5" class="node">
<title>.13</title>
<polygon fill="none" stroke="black" points="307.5,-108 119.5,-108 119.5,-72 307.5,-72 307.5,-108"/>
<text text-anchor="middle" x="213.5" y="-86.3" font-family="Times,serif" font-size="14.00">blocks.1 (EncoderBlock)</text>
</g>
<!-- inp_mask.1&#45;&gt;.13 -->
<g id="edge5" class="edge">
<title>inp_mask.1&#45;&gt;.13</title>
<path fill="none" stroke="black" d="M273.18,-215.86C271.23,-197.37 266.54,-167.44 255.5,-144 250.85,-134.12 244.03,-124.43 237.24,-116.08"/>
<polygon fill="black" stroke="black" points="239.69,-113.57 230.54,-108.24 234.37,-118.11 239.69,-113.57"/>
</g>
<!-- .11&#45;&gt;.12 -->
<g id="edge2" class="edge">
<title>.11&#45;&gt;.12</title>
<path fill="none" stroke="black" d="M110.34,-215.7C116.99,-207.39 125.08,-197.28 132.39,-188.14"/>
<polygon fill="black" stroke="black" points="135.3,-190.1 138.82,-180.1 129.84,-185.73 135.3,-190.1"/>
</g>
<!-- .12&#45;&gt;.13 -->
<g id="edge4" class="edge">
<title>.12&#45;&gt;.13</title>
<path fill="none" stroke="black" d="M167.58,-143.7C174.89,-135.3 183.81,-125.07 191.84,-115.86"/>
<polygon fill="black" stroke="black" points="194.66,-117.94 198.59,-108.1 189.39,-113.34 194.66,-117.94"/>
</g>
<!-- out_0 -->
<g id="node6" class="node">
<title>out_0</title>
<ellipse fill="none" stroke="black" cx="213.5" cy="-18" rx="36.29" ry="18"/>
<text text-anchor="middle" x="213.5" y="-14.3" font-family="Times,serif" font-size="14.00">out_0</text>
</g>
<!-- .13&#45;&gt;out_0 -->
<g id="edge6" class="edge">
<title>.13&#45;&gt;out_0</title>
<path fill="none" stroke="black" d="M213.5,-71.7C213.5,-63.98 213.5,-54.71 213.5,-46.11"/>
<polygon fill="black" stroke="black" points="217,-46.1 213.5,-36.1 210,-46.1 217,-46.1"/>
</g>
</g>
</svg>
