<?xml version="1.0" encoding="UTF-8" standalone="no"?>
<!DOCTYPE svg PUBLIC "-//W3C//DTD SVG 1.1//EN"
 "http://www.w3.org/Graphics/SVG/1.1/DTD/svg11.dtd">
<!-- Generated by graphviz version 2.46.0 (0)
 -->
<!-- Pages: 1 -->
<svg width="228pt" height="571pt"
 viewBox="0.00 0.00 227.50 571.00" xmlns="http://www.w3.org/2000/svg" xmlns:xlink="http://www.w3.org/1999/xlink">
<g id="graph0" class="graph" transform="scale(1 1) rotate(0) translate(4 567)">
<polygon fill="white" stroke="transparent" points="-4,4 -4,-567 223.5,-567 223.5,4 -4,4"/>
<text text-anchor="middle" x="109.75" y="-547.8" font-family="Times,serif" font-size="14.00">FeedForwardAddNorm</text>
<!-- inp_1 -->
<g id="node1" class="node">
<title>inp_1</title>
<ellipse fill="none" stroke="black" cx="125" cy="-522" rx="36" ry="18"/>
<text text-anchor="middle" x="125" y="-518.3" font-family="Times,serif" font-size="14.00">inp_1</text>
</g>
<!-- .14 -->
<g id="node2" class="node">
<title>.14</title>
<polygon fill="none" stroke="black" points="143,-468 15,-468 15,-432 143,-432 143,-468"/>
<text text-anchor="middle" x="79" y="-446.3" font-family="Times,serif" font-size="14.00">linear1 (Linear)</text>
</g>
<!-- inp_1&#45;&gt;.14 -->
<g id="edge1" class="edge">
<title>inp_1&#45;&gt;.14</title>
<path fill="none" stroke="black" d="M114.33,-504.76C108.86,-496.44 102.07,-486.1 95.91,-476.73"/>
<polygon fill="black" stroke="black" points="98.67,-474.56 90.25,-468.12 92.82,-478.4 98.67,-474.56"/>
</g>
<!-- input.36 -->
<g id="node7" class="node">
<title>input.36</title>
<path fill="none" stroke="black" d="M138,-180C138,-180 108,-180 108,-180 102,-180 96,-174 96,-168 96,-168 96,-156 96,-156 96,-150 102,-144 108,-144 108,-144 138,-144 138,-144 144,-144 150,-150 150,-156 150,-156 150,-168 150,-168 150,-174 144,-180 138,-180"/>
<text text-anchor="middle" x="123" y="-158.3" font-family="Times,serif" font-size="14.00">add</text>
</g>
<!-- inp_1&#45;&gt;input.36 -->
<g id="edge6" class="edge">
<title>inp_1&#45;&gt;input.36</title>
<path fill="none" stroke="black" d="M134.68,-504.59C148.96,-478.78 174,-426.73 174,-379 174,-379 174,-379 174,-305 174,-264.55 169.88,-253.61 155,-216 151.34,-206.75 146.15,-197.26 141,-188.92"/>
<polygon fill="black" stroke="black" points="143.87,-186.9 135.52,-180.38 137.98,-190.68 143.87,-186.9"/>
</g>
<!-- .15 -->
<g id="node3" class="node">
<title>.15</title>
<polygon fill="none" stroke="black" points="145.5,-396 4.5,-396 4.5,-360 145.5,-360 145.5,-396"/>
<text text-anchor="middle" x="75" y="-374.3" font-family="Times,serif" font-size="14.00">activation (ReLU)</text>
</g>
<!-- .14&#45;&gt;.15 -->
<g id="edge2" class="edge">
<title>.14&#45;&gt;.15</title>
<path fill="none" stroke="black" d="M78.01,-431.7C77.57,-423.98 77.04,-414.71 76.55,-406.11"/>
<polygon fill="black" stroke="black" points="80.04,-405.89 75.98,-396.1 73.05,-406.29 80.04,-405.89"/>
</g>
<!-- .16 -->
<g id="node4" class="node">
<title>.16</title>
<polygon fill="none" stroke="black" points="138,-324 10,-324 10,-288 138,-288 138,-324"/>
<text text-anchor="middle" x="74" y="-302.3" font-family="Times,serif" font-size="14.00">linear2 (Linear)</text>
</g>
<!-- .15&#45;&gt;.16 -->
<g id="edge3" class="edge">
<title>.15&#45;&gt;.16</title>
<path fill="none" stroke="black" d="M74.75,-359.7C74.64,-351.98 74.51,-342.71 74.39,-334.11"/>
<polygon fill="black" stroke="black" points="77.89,-334.05 74.24,-324.1 70.89,-334.15 77.89,-334.05"/>
</g>
<!-- .17 -->
<g id="node5" class="node">
<title>.17</title>
<polygon fill="none" stroke="black" points="146,-252 0,-252 0,-216 146,-216 146,-252"/>
<text text-anchor="middle" x="73" y="-230.3" font-family="Times,serif" font-size="14.00">dropout (Dropout)</text>
</g>
<!-- .16&#45;&gt;.17 -->
<g id="edge4" class="edge">
<title>.16&#45;&gt;.17</title>
<path fill="none" stroke="black" d="M73.75,-287.7C73.64,-279.98 73.51,-270.71 73.39,-262.11"/>
<polygon fill="black" stroke="black" points="76.89,-262.05 73.24,-252.1 69.89,-262.15 76.89,-262.05"/>
</g>
<!-- .17&#45;&gt;input.36 -->
<g id="edge5" class="edge">
<title>.17&#45;&gt;input.36</title>
<path fill="none" stroke="black" d="M85.36,-215.7C91.23,-207.47 98.37,-197.48 104.84,-188.42"/>
<polygon fill="black" stroke="black" points="107.82,-190.28 110.78,-180.1 102.12,-186.21 107.82,-190.28"/>
</g>
<!-- .18 -->
<g id="node6" class="node">
<title>.18</title>
<polygon fill="none" stroke="black" points="219.5,-108 26.5,-108 26.5,-72 219.5,-72 219.5,-108"/>
<text text-anchor="middle" x="123" y="-86.3" font-family="Times,serif" font-size="14.00">layer_norm (LayerNorm)</text>
</g>
<!-- out_0 -->
<g id="node8" class="node">
<title>out_0</title>
<ellipse fill="none" stroke="black" cx="123" cy="-18" rx="36.29" ry="18"/>
<text text-anchor="middle" x="123" y="-14.3" font-family="Times,serif" font-size="14.00">out_0</text>
</g>
<!-- .18&#45;&gt;out_0 -->
<g id="edge8" class="edge">
<title>.18&#45;&gt;out_0</title>
<path fill="none" stroke="black" d="M123,-71.7C123,-63.98 123,-54.71 123,-46.11"/>
<polygon fill="black" stroke="black" points="126.5,-46.1 123,-36.1 119.5,-46.1 126.5,-46.1"/>
</g>
<!-- input.36&#45;&gt;.18 -->
<g id="edge7" class="edge">
<title>input.36&#45;&gt;.18</title>
<path fill="none" stroke="black" d="M123,-143.7C123,-135.98 123,-126.71 123,-118.11"/>
<polygon fill="black" stroke="black" points="126.5,-118.1 123,-108.1 119.5,-118.1 126.5,-118.1"/>
</g>
</g>
</svg>
