<?xml version="1.0" encoding="UTF-8" standalone="no"?>
<!DOCTYPE svg PUBLIC "-//W3C//DTD SVG 1.1//EN"
 "http://www.w3.org/Graphics/SVG/1.1/DTD/svg11.dtd">
<!-- Generated by graphviz version 2.46.0 (0)
 -->
<!-- Pages: 1 -->
<svg width="585pt" height="499pt"
 viewBox="0.00 0.00 585.03 499.00" xmlns="http://www.w3.org/2000/svg" xmlns:xlink="http://www.w3.org/1999/xlink">
<g id="graph0" class="graph" transform="scale(1 1) rotate(0) translate(4 495)">
<polygon fill="white" stroke="transparent" points="-4,4 -4,-495 581.03,-495 581.03,4 -4,4"/>
<text text-anchor="middle" x="288.51" y="-475.8" font-family="Times,serif" font-size="14.00">AttentionAddNorm</text>
<!-- inp_1 -->
<g id="node1" class="node">
<title>inp_1</title>
<ellipse fill="none" stroke="black" cx="274" cy="-450" rx="36" ry="18"/>
<text text-anchor="middle" x="274" y="-446.3" font-family="Times,serif" font-size="14.00">inp_1</text>
</g>
<!-- .215 -->
<g id="node3" class="node">
<title>.215</title>
<polygon fill="none" stroke="black" points="124,-396 0,-396 0,-360 124,-360 124,-396"/>
<text text-anchor="middle" x="62" y="-374.3" font-family="Times,serif" font-size="14.00">Q_proj (Linear)</text>
</g>
<!-- inp_1&#45;&gt;.215 -->
<g id="edge1" class="edge">
<title>inp_1&#45;&gt;.215</title>
<path fill="none" stroke="black" d="M244.97,-439.41C213.85,-429.14 163.54,-412.53 123.54,-399.32"/>
<polygon fill="black" stroke="black" points="124.47,-395.94 113.88,-396.13 122.28,-402.59 124.47,-395.94"/>
</g>
<!-- .216 -->
<g id="node4" class="node">
<title>.216</title>
<polygon fill="none" stroke="black" points="265.5,-396 142.5,-396 142.5,-360 265.5,-360 265.5,-396"/>
<text text-anchor="middle" x="204" y="-374.3" font-family="Times,serif" font-size="14.00">K_proj (Linear)</text>
</g>
<!-- inp_1&#45;&gt;.216 -->
<g id="edge2" class="edge">
<title>inp_1&#45;&gt;.216</title>
<path fill="none" stroke="black" d="M258.46,-433.46C249.73,-424.73 238.63,-413.63 228.74,-403.74"/>
<polygon fill="black" stroke="black" points="231.01,-401.06 221.46,-396.46 226.06,-406.01 231.01,-401.06"/>
</g>
<!-- .217 -->
<g id="node5" class="node">
<title>.217</title>
<polygon fill="none" stroke="black" points="406,-396 284,-396 284,-360 406,-360 406,-396"/>
<text text-anchor="middle" x="345" y="-374.3" font-family="Times,serif" font-size="14.00">V_proj (Linear)</text>
</g>
<!-- inp_1&#45;&gt;.217 -->
<g id="edge3" class="edge">
<title>inp_1&#45;&gt;.217</title>
<path fill="none" stroke="black" d="M289.76,-433.46C298.68,-424.67 310.04,-413.47 320.13,-403.52"/>
<polygon fill="black" stroke="black" points="322.88,-405.72 327.54,-396.21 317.97,-400.74 322.88,-405.72"/>
</g>
<!-- input.6 -->
<g id="node9" class="node">
<title>input.6</title>
<path fill="none" stroke="black" d="M476,-180C476,-180 446,-180 446,-180 440,-180 434,-174 434,-168 434,-168 434,-156 434,-156 434,-150 440,-144 446,-144 446,-144 476,-144 476,-144 482,-144 488,-150 488,-156 488,-156 488,-168 488,-168 488,-174 482,-180 476,-180"/>
<text text-anchor="middle" x="461" y="-158.3" font-family="Times,serif" font-size="14.00">add</text>
</g>
<!-- inp_1&#45;&gt;input.6 -->
<g id="edge9" class="edge">
<title>inp_1&#45;&gt;input.6</title>
<path fill="none" stroke="black" d="M309.49,-447.83C378.69,-444.73 527.63,-433.74 559,-396 612.83,-331.24 530.89,-232.64 486.48,-187.33"/>
<polygon fill="black" stroke="black" points="488.73,-184.62 479.18,-180.02 483.77,-189.57 488.73,-184.62"/>
</g>
<!-- inp_mask.1 -->
<g id="node2" class="node">
<title>inp_mask.1</title>
<ellipse fill="none" stroke="black" cx="487" cy="-378" rx="63.09" ry="18"/>
<text text-anchor="middle" x="487" y="-374.3" font-family="Times,serif" font-size="14.00">inp_mask.1</text>
</g>
<!-- input.5 -->
<g id="node7" class="node">
<title>input.5</title>
<path fill="none" stroke="black" d="M469,-324C469,-324 221,-324 221,-324 215,-324 209,-318 209,-312 209,-312 209,-300 209,-300 209,-294 215,-288 221,-288 221,-288 469,-288 469,-288 475,-288 481,-294 481,-300 481,-300 481,-312 481,-312 481,-318 475,-324 469,-324"/>
<text text-anchor="middle" x="345" y="-302.3" font-family="Times,serif" font-size="14.00">div matmul pow softmaxmasked_fill</text>
</g>
<!-- inp_mask.1&#45;&gt;input.5 -->
<g id="edge5" class="edge">
<title>inp_mask.1&#45;&gt;input.5</title>
<path fill="none" stroke="black" d="M456.89,-362.15C437.08,-352.39 410.84,-339.46 388.75,-328.57"/>
<polygon fill="black" stroke="black" points="390.08,-325.32 379.57,-324.04 386.99,-331.6 390.08,-325.32"/>
</g>
<!-- .215&#45;&gt;input.5 -->
<g id="edge6" class="edge">
<title>.215&#45;&gt;input.5</title>
<path fill="none" stroke="black" d="M124.11,-361.64C165.86,-351.31 221.24,-337.61 266.1,-326.51"/>
<polygon fill="black" stroke="black" points="267.23,-329.84 276.09,-324.04 265.54,-323.05 267.23,-329.84"/>
</g>
<!-- .216&#45;&gt;input.5 -->
<g id="edge4" class="edge">
<title>.216&#45;&gt;input.5</title>
<path fill="none" stroke="black" d="M238.49,-359.88C257.44,-350.47 281.13,-338.71 301.36,-328.67"/>
<polygon fill="black" stroke="black" points="302.97,-331.77 310.37,-324.19 299.86,-325.5 302.97,-331.77"/>
</g>
<!-- .217&#45;&gt;input.5 -->
<g id="edge7" class="edge">
<title>.217&#45;&gt;input.5</title>
<path fill="none" stroke="black" d="M345,-359.7C345,-351.98 345,-342.71 345,-334.11"/>
<polygon fill="black" stroke="black" points="348.5,-334.1 345,-324.1 341.5,-334.1 348.5,-334.1"/>
</g>
<!-- .218 -->
<g id="node6" class="node">
<title>.218</title>
<polygon fill="none" stroke="black" points="484,-252 338,-252 338,-216 484,-216 484,-252"/>
<text text-anchor="middle" x="411" y="-230.3" font-family="Times,serif" font-size="14.00">dropout (Dropout)</text>
</g>
<!-- .218&#45;&gt;input.6 -->
<g id="edge10" class="edge">
<title>.218&#45;&gt;input.6</title>
<path fill="none" stroke="black" d="M423.36,-215.7C429.23,-207.47 436.37,-197.48 442.84,-188.42"/>
<polygon fill="black" stroke="black" points="445.82,-190.28 448.78,-180.1 440.12,-186.21 445.82,-190.28"/>
</g>
<!-- input.5&#45;&gt;.218 -->
<g id="edge8" class="edge">
<title>input.5&#45;&gt;.218</title>
<path fill="none" stroke="black" d="M361.31,-287.7C369.31,-279.22 379.07,-268.86 387.82,-259.58"/>
<polygon fill="black" stroke="black" points="390.56,-261.78 394.87,-252.1 385.47,-256.98 390.56,-261.78"/>
</g>
<!-- .219 -->
<g id="node8" class="node">
<title>.219</title>
<polygon fill="none" stroke="black" points="557.5,-108 364.5,-108 364.5,-72 557.5,-72 557.5,-108"/>
<text text-anchor="middle" x="461" y="-86.3" font-family="Times,serif" font-size="14.00">layer_norm (LayerNorm)</text>
</g>
<!-- out_0 -->
<g id="node10" class="node">
<title>out_0</title>
<ellipse fill="none" stroke="black" cx="461" cy="-18" rx="36.29" ry="18"/>
<text text-anchor="middle" x="461" y="-14.3" font-family="Times,serif" font-size="14.00">out_0</text>
</g>
<!-- .219&#45;&gt;out_0 -->
<g id="edge12" class="edge">
<title>.219&#45;&gt;out_0</title>
<path fill="none" stroke="black" d="M461,-71.7C461,-63.98 461,-54.71 461,-46.11"/>
<polygon fill="black" stroke="black" points="464.5,-46.1 461,-36.1 457.5,-46.1 464.5,-46.1"/>
</g>
<!-- input.6&#45;&gt;.219 -->
<g id="edge11" class="edge">
<title>input.6&#45;&gt;.219</title>
<path fill="none" stroke="black" d="M461,-143.7C461,-135.98 461,-126.71 461,-118.11"/>
<polygon fill="black" stroke="black" points="464.5,-118.1 461,-108.1 457.5,-118.1 464.5,-118.1"/>
</g>
</g>
</svg>
