<?xml version="1.0" encoding="UTF-8" standalone="no"?>
<!DOCTYPE svg PUBLIC "-//W3C//DTD SVG 1.1//EN"
 "http://www.w3.org/Graphics/SVG/1.1/DTD/svg11.dtd">
<!-- Generated by graphviz version 2.46.0 (0)
 -->
<!-- Pages: 1 -->
<svg width="1244pt" height="574pt"
 viewBox="0.00 0.00 1244.45 574.00" xmlns="http://www.w3.org/2000/svg" xmlns:xlink="http://www.w3.org/1999/xlink">
<g id="graph0" class="graph" transform="scale(1 1) rotate(0) translate(4 570)">
<polygon fill="white" stroke="transparent" points="-4,4 -4,-570 1240.45,-570 1240.45,4 -4,4"/>
<text text-anchor="middle" x="618.22" y="-550.8" font-family="Times,serif" font-size="14.00">TransformerEncoderDecoder</text>
<g id="clust1" class="cluster">
<title>cluster_.1933</title>
<polygon fill="none" stroke="black" points="245.5,-64 245.5,-499 1120.5,-499 1120.5,-64 245.5,-64"/>
<text text-anchor="middle" x="683" y="-483.8" font-family="Times,serif" font-size="14.00">decoder (TransformerDecoder)</text>
</g>
<!-- inp_input.1 -->
<g id="node1" class="node">
<title>inp_input.1</title>
<ellipse fill="none" stroke="black" cx="118.5" cy="-525" rx="63.09" ry="18"/>
<text text-anchor="middle" x="118.5" y="-521.3" font-family="Times,serif" font-size="14.00">inp_input.1</text>
</g>
<!-- .1932 -->
<g id="node5" class="node">
<title>.1932</title>
<polygon fill="none" stroke="black" points="237,-468 0,-468 0,-432 237,-432 237,-468"/>
<text text-anchor="middle" x="118.5" y="-446.3" font-family="Times,serif" font-size="14.00">encoder (TransformerEncoder)</text>
</g>
<!-- inp_input.1&#45;&gt;.1932 -->
<g id="edge1" class="edge">
<title>inp_input.1&#45;&gt;.1932</title>
<path fill="none" stroke="black" d="M118.5,-506.7C118.5,-498.25 118.5,-487.87 118.5,-478.37"/>
<polygon fill="black" stroke="black" points="122,-478.18 118.5,-468.18 115,-478.18 122,-478.18"/>
</g>
<!-- inp_mask.1 -->
<g id="node2" class="node">
<title>inp_mask.1</title>
<ellipse fill="none" stroke="black" cx="331.5" cy="-525" rx="63.09" ry="18"/>
<text text-anchor="middle" x="331.5" y="-521.3" font-family="Times,serif" font-size="14.00">inp_mask.1</text>
</g>
<!-- inp_mask.1&#45;&gt;.1932 -->
<g id="edge2" class="edge">
<title>inp_mask.1&#45;&gt;.1932</title>
<path fill="none" stroke="black" d="M286.37,-512.42C271.94,-508.47 255.96,-503.82 241.5,-499 217.25,-490.92 190.79,-480.78 168.65,-471.9"/>
<polygon fill="black" stroke="black" points="169.7,-468.55 159.12,-468.05 167.08,-475.04 169.7,-468.55"/>
</g>
<!-- decoder.inp_mask.1 -->
<g id="node9" class="node">
<title>decoder.inp_mask.1</title>
<ellipse fill="none" stroke="black" cx="535.5" cy="-378" rx="102.08" ry="18"/>
<text text-anchor="middle" x="535.5" y="-374.3" font-family="Times,serif" font-size="14.00">decoder.inp_mask.1</text>
</g>
<!-- inp_mask.1&#45;&gt;decoder.inp_mask.1 -->
<g id="edge6" class="edge">
<title>inp_mask.1&#45;&gt;decoder.inp_mask.1</title>
<path fill="none" stroke="black" d="M354.11,-507.93C390.53,-482.05 462.27,-431.05 503.78,-401.54"/>
<polygon fill="black" stroke="black" points="506.04,-404.24 512.16,-395.59 501.98,-398.53 506.04,-404.24"/>
</g>
<!-- inp_input.21 -->
<g id="node3" class="node">
<title>inp_input.21</title>
<ellipse fill="none" stroke="black" cx="782.5" cy="-525" rx="68.79" ry="18"/>
<text text-anchor="middle" x="782.5" y="-521.3" font-family="Times,serif" font-size="14.00">inp_input.21</text>
</g>
<!-- decoder.inp_input.21 -->
<g id="node6" class="node">
<title>decoder.inp_input.21</title>
<ellipse fill="none" stroke="black" cx="782.5" cy="-450" rx="107.78" ry="18"/>
<text text-anchor="middle" x="782.5" y="-446.3" font-family="Times,serif" font-size="14.00">decoder.inp_input.21</text>
</g>
<!-- inp_input.21&#45;&gt;decoder.inp_input.21 -->
<g id="edge3" class="edge">
<title>inp_input.21&#45;&gt;decoder.inp_input.21</title>
<path fill="none" stroke="black" d="M782.5,-506.7C782.5,-498.25 782.5,-487.87 782.5,-478.37"/>
<polygon fill="black" stroke="black" points="786,-478.18 782.5,-468.18 779,-478.18 786,-478.18"/>
</g>
<!-- inp_mask -->
<g id="node4" class="node">
<title>inp_mask</title>
<ellipse fill="none" stroke="black" cx="1182.5" cy="-450" rx="53.89" ry="18"/>
<text text-anchor="middle" x="1182.5" y="-446.3" font-family="Times,serif" font-size="14.00">inp_mask</text>
</g>
<!-- decoder.inp_mask -->
<g id="node7" class="node">
<title>decoder.inp_mask</title>
<ellipse fill="none" stroke="black" cx="1019.5" cy="-378" rx="92.88" ry="18"/>
<text text-anchor="middle" x="1019.5" y="-374.3" font-family="Times,serif" font-size="14.00">decoder.inp_mask</text>
</g>
<!-- inp_mask&#45;&gt;decoder.inp_mask -->
<g id="edge4" class="edge">
<title>inp_mask&#45;&gt;decoder.inp_mask</title>
<path fill="none" stroke="black" d="M1150.69,-435.34C1126.32,-424.87 1092.37,-410.29 1065.12,-398.59"/>
<polygon fill="black" stroke="black" points="1066.35,-395.31 1055.78,-394.58 1063.59,-401.74 1066.35,-395.31"/>
</g>
<!-- decoder.inp_11 -->
<g id="node8" class="node">
<title>decoder.inp_11</title>
<ellipse fill="none" stroke="black" cx="334.5" cy="-378" rx="80.69" ry="18"/>
<text text-anchor="middle" x="334.5" y="-374.3" font-family="Times,serif" font-size="14.00">decoder.inp_11</text>
</g>
<!-- .1932&#45;&gt;decoder.inp_11 -->
<g id="edge5" class="edge">
<title>.1932&#45;&gt;decoder.inp_11</title>
<path fill="none" stroke="black" d="M171.06,-431.97C204.48,-421.14 247.61,-407.16 281.17,-396.28"/>
<polygon fill="black" stroke="black" points="282.38,-399.57 290.81,-393.16 280.22,-392.91 282.38,-399.57"/>
</g>
<!-- decoder..20 -->
<g id="node10" class="node">
<title>decoder..20</title>
<polygon fill="none" stroke="black" points="909,-396 656,-396 656,-360 909,-360 909,-396"/>
<text text-anchor="middle" x="782.5" y="-374.3" font-family="Times,serif" font-size="14.00">decoder.embedding (Embedding)</text>
</g>
<!-- decoder.inp_input.21&#45;&gt;decoder..20 -->
<g id="edge7" class="edge">
<title>decoder.inp_input.21&#45;&gt;decoder..20</title>
<path fill="none" stroke="black" d="M782.5,-431.7C782.5,-423.98 782.5,-414.71 782.5,-406.11"/>
<polygon fill="black" stroke="black" points="786,-406.1 782.5,-396.1 779,-406.1 786,-406.1"/>
</g>
<!-- decoder..21 -->
<g id="node11" class="node">
<title>decoder..21</title>
<polygon fill="none" stroke="black" points="802.5,-324 554.5,-324 554.5,-288 802.5,-288 802.5,-324"/>
<text text-anchor="middle" x="678.5" y="-302.3" font-family="Times,serif" font-size="14.00">decoder.blocks.0 (DecoderBlock)</text>
</g>
<!-- decoder.inp_mask&#45;&gt;decoder..21 -->
<g id="edge9" class="edge">
<title>decoder.inp_mask&#45;&gt;decoder..21</title>
<path fill="none" stroke="black" d="M958.14,-364.4C906.21,-353.74 830.97,-338.3 771.62,-326.11"/>
<polygon fill="black" stroke="black" points="771.98,-322.62 761.48,-324.03 770.57,-329.47 771.98,-322.62"/>
</g>
<!-- decoder..22 -->
<g id="node12" class="node">
<title>decoder..22</title>
<polygon fill="none" stroke="black" points="659.5,-252 411.5,-252 411.5,-216 659.5,-216 659.5,-252"/>
<text text-anchor="middle" x="535.5" y="-230.3" font-family="Times,serif" font-size="14.00">decoder.blocks.1 (DecoderBlock)</text>
</g>
<!-- decoder.inp_mask&#45;&gt;decoder..22 -->
<g id="edge13" class="edge">
<title>decoder.inp_mask&#45;&gt;decoder..22</title>
<path fill="none" stroke="black" d="M987.88,-360.93C947.79,-341.15 876.1,-307.77 811.5,-288 764.13,-273.5 710.92,-262.17 663.96,-253.77"/>
<polygon fill="black" stroke="black" points="664.49,-250.31 654.04,-252.02 663.28,-257.2 664.49,-250.31"/>
</g>
<!-- decoder.inp_11&#45;&gt;decoder..21 -->
<g id="edge10" class="edge">
<title>decoder.inp_11&#45;&gt;decoder..21</title>
<path fill="none" stroke="black" d="M392.08,-365.28C444.62,-354.59 523.23,-338.59 584.82,-326.06"/>
<polygon fill="black" stroke="black" points="585.83,-329.43 594.94,-324 584.44,-322.57 585.83,-329.43"/>
</g>
<!-- decoder.inp_11&#45;&gt;decoder..22 -->
<g id="edge14" class="edge">
<title>decoder.inp_11&#45;&gt;decoder..22</title>
<path fill="none" stroke="black" d="M357.56,-360.71C393.27,-335.48 462.1,-286.85 502.89,-258.04"/>
<polygon fill="black" stroke="black" points="505,-260.83 511.15,-252.2 500.96,-255.11 505,-260.83"/>
</g>
<!-- decoder.inp_mask.1&#45;&gt;decoder..21 -->
<g id="edge11" class="edge">
<title>decoder.inp_mask.1&#45;&gt;decoder..21</title>
<path fill="none" stroke="black" d="M568.31,-360.94C587.92,-351.34 613.08,-339.02 634.41,-328.58"/>
<polygon fill="black" stroke="black" points="636.16,-331.62 643.6,-324.08 633.08,-325.34 636.16,-331.62"/>
</g>
<!-- decoder.inp_mask.1&#45;&gt;decoder..22 -->
<g id="edge15" class="edge">
<title>decoder.inp_mask.1&#45;&gt;decoder..22</title>
<path fill="none" stroke="black" d="M535.5,-359.87C535.5,-335.67 535.5,-291.21 535.5,-262.39"/>
<polygon fill="black" stroke="black" points="539,-262.19 535.5,-252.19 532,-262.19 539,-262.19"/>
</g>
<!-- decoder..20&#45;&gt;decoder..21 -->
<g id="edge8" class="edge">
<title>decoder..20&#45;&gt;decoder..21</title>
<path fill="none" stroke="black" d="M757.06,-359.88C743.71,-350.89 727.18,-339.76 712.72,-330.03"/>
<polygon fill="black" stroke="black" points="714.29,-326.87 704.04,-324.19 710.38,-332.68 714.29,-326.87"/>
</g>
<!-- decoder..21&#45;&gt;decoder..22 -->
<g id="edge12" class="edge">
<title>decoder..21&#45;&gt;decoder..22</title>
<path fill="none" stroke="black" d="M643.52,-287.88C624.3,-278.47 600.27,-266.71 579.76,-256.67"/>
<polygon fill="black" stroke="black" points="581.14,-253.44 570.62,-252.19 578.06,-259.73 581.14,-253.44"/>
</g>
<!-- decoder.out_0 -->
<g id="node14" class="node">
<title>decoder.out_0</title>
<ellipse fill="none" stroke="black" cx="545.5" cy="-90" rx="75.29" ry="18"/>
<text text-anchor="middle" x="545.5" y="-86.3" font-family="Times,serif" font-size="14.00">decoder.out_0</text>
</g>
<!-- decoder..21&#45;&gt;decoder.out_0 -->
<g id="edge19" class="edge">
<title>decoder..21&#45;&gt;decoder.out_0</title>
<path fill="none" stroke="black" d="M682.79,-287.84C689.64,-256.2 699.35,-187.87 668.5,-144 655.28,-125.2 633.92,-113.01 612.69,-105.14"/>
<polygon fill="black" stroke="black" points="613.57,-101.74 602.97,-101.82 611.3,-108.36 613.57,-101.74"/>
</g>
<!-- decoder..23 -->
<g id="node13" class="node">
<title>decoder..23</title>
<polygon fill="none" stroke="black" points="659,-180 432,-180 432,-144 659,-144 659,-180"/>
<text text-anchor="middle" x="545.5" y="-158.3" font-family="Times,serif" font-size="14.00">decoder.output_layer (Linear)</text>
</g>
<!-- decoder..22&#45;&gt;decoder..23 -->
<g id="edge16" class="edge">
<title>decoder..22&#45;&gt;decoder..23</title>
<path fill="none" stroke="black" d="M537.97,-215.7C539.07,-207.98 540.4,-198.71 541.63,-190.11"/>
<polygon fill="black" stroke="black" points="545.11,-190.5 543.06,-180.1 538.18,-189.51 545.11,-190.5"/>
</g>
<!-- decoder..22&#45;&gt;decoder.out_0 -->
<g id="edge18" class="edge">
<title>decoder..22&#45;&gt;decoder.out_0</title>
<path fill="none" stroke="black" d="M468.94,-215.94C451.15,-208.02 433.97,-196.54 423.5,-180 414.94,-166.48 414.73,-157.38 423.5,-144 435.97,-124.99 456.88,-112.77 477.9,-104.92"/>
<polygon fill="black" stroke="black" points="479.22,-108.17 487.54,-101.61 476.95,-101.55 479.22,-108.17"/>
</g>
<!-- decoder..23&#45;&gt;decoder.out_0 -->
<g id="edge17" class="edge">
<title>decoder..23&#45;&gt;decoder.out_0</title>
<path fill="none" stroke="black" d="M545.5,-143.7C545.5,-135.98 545.5,-126.71 545.5,-118.11"/>
<polygon fill="black" stroke="black" points="549,-118.1 545.5,-108.1 542,-118.1 549,-118.1"/>
</g>
<!-- out_0 -->
<g id="node15" class="node">
<title>out_0</title>
<ellipse fill="none" stroke="black" cx="545.5" cy="-18" rx="36.29" ry="18"/>
<text text-anchor="middle" x="545.5" y="-14.3" font-family="Times,serif" font-size="14.00">out_0</text>
</g>
<!-- decoder.out_0&#45;&gt;out_0 -->
<g id="edge20" class="edge">
<title>decoder.out_0&#45;&gt;out_0</title>
<path fill="none" stroke="black" d="M545.5,-71.7C545.5,-63.98 545.5,-54.71 545.5,-46.11"/>
<polygon fill="black" stroke="black" points="549,-46.1 545.5,-36.1 542,-46.1 549,-46.1"/>
</g>
</g>
</svg>
