<?xml version="1.0" encoding="UTF-8" standalone="no"?>
<!DOCTYPE svg PUBLIC "-//W3C//DTD SVG 1.1//EN"
 "http://www.w3.org/Graphics/SVG/1.1/DTD/svg11.dtd">
<!-- Generated by graphviz version 2.46.0 (0)
 -->
<!-- Pages: 1 -->
<svg width="1325pt" height="646pt"
 viewBox="0.00 0.00 1324.50 646.00" xmlns="http://www.w3.org/2000/svg" xmlns:xlink="http://www.w3.org/1999/xlink">
<g id="graph0" class="graph" transform="scale(1 1) rotate(0) translate(4 642)">
<polygon fill="white" stroke="transparent" points="-4,4 -4,-642 1320.5,-642 1320.5,4 -4,4"/>
<text text-anchor="middle" x="658.25" y="-622.8" font-family="Times,serif" font-size="14.00">TransformerEncoderDecoder</text>
<g id="clust1" class="cluster">
<title>cluster_.1952</title>
<polygon fill="none" stroke="black" points="316.5,-64 316.5,-499 1190.5,-499 1190.5,-64 316.5,-64"/>
<text text-anchor="middle" x="753.5" y="-483.8" font-family="Times,serif" font-size="14.00">decoder (TransformerDecoder)</text>
</g>
<!-- inp_src_ids -->
<g id="node1" class="node">
<title>inp_src_ids</title>
<ellipse fill="none" stroke="black" cx="145.5" cy="-597" rx="61.99" ry="18"/>
<text text-anchor="middle" x="145.5" y="-593.3" font-family="Times,serif" font-size="14.00">inp_src_ids</text>
</g>
<!-- .1951 -->
<g id="node3" class="node">
<title>.1951</title>
<polygon fill="none" stroke="black" points="308,-468 71,-468 71,-432 308,-432 308,-468"/>
<text text-anchor="middle" x="189.5" y="-446.3" font-family="Times,serif" font-size="14.00">encoder (TransformerEncoder)</text>
</g>
<!-- inp_src_ids&#45;&gt;.1951 -->
<g id="edge1" class="edge">
<title>inp_src_ids&#45;&gt;.1951</title>
<path fill="none" stroke="black" d="M167.47,-579.97C178.43,-570.58 190.58,-557.69 196.5,-543 204.84,-522.32 202.03,-496.92 197.74,-478.05"/>
<polygon fill="black" stroke="black" points="201.13,-477.15 195.27,-468.32 194.34,-478.87 201.13,-477.15"/>
</g>
<!-- mask.1 -->
<g id="node4" class="node">
<title>mask.1</title>
<path fill="none" stroke="black" d="M176,-543C176,-543 115,-543 115,-543 109,-543 103,-537 103,-531 103,-531 103,-519 103,-519 103,-513 109,-507 115,-507 115,-507 176,-507 176,-507 182,-507 188,-513 188,-519 188,-519 188,-531 188,-531 188,-537 182,-543 176,-543"/>
<text text-anchor="middle" x="145.5" y="-521.3" font-family="Times,serif" font-size="14.00">eq repeat</text>
</g>
<!-- inp_src_ids&#45;&gt;mask.1 -->
<g id="edge2" class="edge">
<title>inp_src_ids&#45;&gt;mask.1</title>
<path fill="none" stroke="black" d="M145.5,-578.7C145.5,-570.98 145.5,-561.71 145.5,-553.11"/>
<polygon fill="black" stroke="black" points="149,-553.1 145.5,-543.1 142,-553.1 149,-553.1"/>
</g>
<!-- inp_decoder.inp_mask.1 -->
<g id="node9" class="node">
<title>inp_decoder.inp_mask.1</title>
<path fill="none" stroke="black" d="M73,-543C73,-543 12,-543 12,-543 6,-543 0,-537 0,-531 0,-531 0,-519 0,-519 0,-513 6,-507 12,-507 12,-507 73,-507 73,-507 79,-507 85,-513 85,-519 85,-519 85,-531 85,-531 85,-537 79,-543 73,-543"/>
<text text-anchor="middle" x="42.5" y="-521.3" font-family="Times,serif" font-size="14.00">eq repeat</text>
</g>
<!-- inp_src_ids&#45;&gt;inp_decoder.inp_mask.1 -->
<g id="edge8" class="edge">
<title>inp_src_ids&#45;&gt;inp_decoder.inp_mask.1</title>
<path fill="none" stroke="black" d="M122.38,-580.29C108.8,-571.06 91.38,-559.22 76.28,-548.96"/>
<polygon fill="black" stroke="black" points="77.94,-545.85 67.7,-543.13 74.01,-551.64 77.94,-545.85"/>
</g>
<!-- inp_tgt_ids -->
<g id="node2" class="node">
<title>inp_tgt_ids</title>
<ellipse fill="none" stroke="black" cx="1111.5" cy="-525" rx="61.99" ry="18"/>
<text text-anchor="middle" x="1111.5" y="-521.3" font-family="Times,serif" font-size="14.00">inp_tgt_ids</text>
</g>
<!-- decoder.inp_tgt_ids -->
<g id="node5" class="node">
<title>decoder.inp_tgt_ids</title>
<ellipse fill="none" stroke="black" cx="965.5" cy="-450" rx="100.98" ry="18"/>
<text text-anchor="middle" x="965.5" y="-446.3" font-family="Times,serif" font-size="14.00">decoder.inp_tgt_ids</text>
</g>
<!-- inp_tgt_ids&#45;&gt;decoder.inp_tgt_ids -->
<g id="edge4" class="edge">
<title>inp_tgt_ids&#45;&gt;decoder.inp_tgt_ids</title>
<path fill="none" stroke="black" d="M1081.6,-509.05C1060.02,-498.26 1030.61,-483.56 1006.8,-471.65"/>
<polygon fill="black" stroke="black" points="1008.15,-468.41 997.64,-467.07 1005.02,-474.67 1008.15,-468.41"/>
</g>
<!-- inp_decoder.inp_mask -->
<g id="node6" class="node">
<title>inp_decoder.inp_mask</title>
<path fill="none" stroke="black" d="M1304.5,-468C1304.5,-468 1210.5,-468 1210.5,-468 1204.5,-468 1198.5,-462 1198.5,-456 1198.5,-456 1198.5,-444 1198.5,-444 1198.5,-438 1204.5,-432 1210.5,-432 1210.5,-432 1304.5,-432 1304.5,-432 1310.5,-432 1316.5,-438 1316.5,-444 1316.5,-444 1316.5,-456 1316.5,-456 1316.5,-462 1310.5,-468 1304.5,-468"/>
<text text-anchor="middle" x="1257.5" y="-446.3" font-family="Times,serif" font-size="14.00">eq repeat __or</text>
</g>
<!-- inp_tgt_ids&#45;&gt;inp_decoder.inp_mask -->
<g id="edge5" class="edge">
<title>inp_tgt_ids&#45;&gt;inp_decoder.inp_mask</title>
<path fill="none" stroke="black" d="M1158.31,-513.09C1170.43,-509.41 1183.24,-504.75 1194.5,-499 1207.38,-492.43 1220.32,-483.15 1231.08,-474.5"/>
<polygon fill="black" stroke="black" points="1233.38,-477.14 1238.86,-468.07 1228.92,-471.75 1233.38,-477.14"/>
</g>
<!-- decoder.inp_11 -->
<g id="node8" class="node">
<title>decoder.inp_11</title>
<ellipse fill="none" stroke="black" cx="627.5" cy="-378" rx="80.69" ry="18"/>
<text text-anchor="middle" x="627.5" y="-374.3" font-family="Times,serif" font-size="14.00">decoder.inp_11</text>
</g>
<!-- .1951&#45;&gt;decoder.inp_11 -->
<g id="edge7" class="edge">
<title>.1951&#45;&gt;decoder.inp_11</title>
<path fill="none" stroke="black" d="M308.05,-432.01C375.43,-422.09 461.29,-409 537.5,-396 544.24,-394.85 551.26,-393.61 558.26,-392.33"/>
<polygon fill="black" stroke="black" points="559.29,-395.71 568.49,-390.46 558.02,-388.82 559.29,-395.71"/>
</g>
<!-- mask.1&#45;&gt;.1951 -->
<g id="edge3" class="edge">
<title>mask.1&#45;&gt;.1951</title>
<path fill="none" stroke="black" d="M155.93,-506.7C161.3,-497.79 167.95,-486.75 173.92,-476.85"/>
<polygon fill="black" stroke="black" points="176.98,-478.55 179.15,-468.18 170.99,-474.93 176.98,-478.55"/>
</g>
<!-- decoder..20 -->
<g id="node11" class="node">
<title>decoder..20</title>
<polygon fill="none" stroke="black" points="979,-396 726,-396 726,-360 979,-360 979,-396"/>
<text text-anchor="middle" x="852.5" y="-374.3" font-family="Times,serif" font-size="14.00">decoder.embedding (Embedding)</text>
</g>
<!-- decoder.inp_tgt_ids&#45;&gt;decoder..20 -->
<g id="edge10" class="edge">
<title>decoder.inp_tgt_ids&#45;&gt;decoder..20</title>
<path fill="none" stroke="black" d="M939.01,-432.59C924.04,-423.31 905.1,-411.59 888.77,-401.47"/>
<polygon fill="black" stroke="black" points="890.35,-398.33 880.01,-396.04 886.67,-404.28 890.35,-398.33"/>
</g>
<!-- decoder.inp_mask -->
<g id="node7" class="node">
<title>decoder.inp_mask</title>
<ellipse fill="none" stroke="black" cx="1089.5" cy="-378" rx="92.88" ry="18"/>
<text text-anchor="middle" x="1089.5" y="-374.3" font-family="Times,serif" font-size="14.00">decoder.inp_mask</text>
</g>
<!-- inp_decoder.inp_mask&#45;&gt;decoder.inp_mask -->
<g id="edge6" class="edge">
<title>inp_decoder.inp_mask&#45;&gt;decoder.inp_mask</title>
<path fill="none" stroke="black" d="M1216.4,-431.88C1192.11,-421.76 1161.28,-408.91 1136.09,-398.41"/>
<polygon fill="black" stroke="black" points="1137.31,-395.13 1126.73,-394.51 1134.62,-401.59 1137.31,-395.13"/>
</g>
<!-- decoder..21 -->
<g id="node12" class="node">
<title>decoder..21</title>
<polygon fill="none" stroke="black" points="894.5,-324 646.5,-324 646.5,-288 894.5,-288 894.5,-324"/>
<text text-anchor="middle" x="770.5" y="-302.3" font-family="Times,serif" font-size="14.00">decoder.blocks.0 (DecoderBlock)</text>
</g>
<!-- decoder.inp_mask&#45;&gt;decoder..21 -->
<g id="edge12" class="edge">
<title>decoder.inp_mask&#45;&gt;decoder..21</title>
<path fill="none" stroke="black" d="M1030.25,-364C981.9,-353.39 912.9,-338.25 858.16,-326.24"/>
<polygon fill="black" stroke="black" points="858.63,-322.76 848.12,-324.03 857.13,-329.59 858.63,-322.76"/>
</g>
<!-- decoder..22 -->
<g id="node13" class="node">
<title>decoder..22</title>
<polygon fill="none" stroke="black" points="751.5,-252 503.5,-252 503.5,-216 751.5,-216 751.5,-252"/>
<text text-anchor="middle" x="627.5" y="-230.3" font-family="Times,serif" font-size="14.00">decoder.blocks.1 (DecoderBlock)</text>
</g>
<!-- decoder.inp_mask&#45;&gt;decoder..22 -->
<g id="edge16" class="edge">
<title>decoder.inp_mask&#45;&gt;decoder..22</title>
<path fill="none" stroke="black" d="M1061.45,-360.76C1025.84,-340.81 961.99,-307.25 903.5,-288 858.16,-273.08 807.17,-261.82 761.47,-253.61"/>
<polygon fill="black" stroke="black" points="761.96,-250.14 751.5,-251.85 760.74,-257.03 761.96,-250.14"/>
</g>
<!-- decoder.inp_11&#45;&gt;decoder..21 -->
<g id="edge13" class="edge">
<title>decoder.inp_11&#45;&gt;decoder..21</title>
<path fill="none" stroke="black" d="M659.59,-361.29C679.41,-351.59 705.09,-339.02 726.76,-328.41"/>
<polygon fill="black" stroke="black" points="728.32,-331.54 735.76,-324 725.24,-325.26 728.32,-331.54"/>
</g>
<!-- decoder.inp_11&#45;&gt;decoder..22 -->
<g id="edge17" class="edge">
<title>decoder.inp_11&#45;&gt;decoder..22</title>
<path fill="none" stroke="black" d="M627.5,-359.87C627.5,-335.67 627.5,-291.21 627.5,-262.39"/>
<polygon fill="black" stroke="black" points="631,-262.19 627.5,-252.19 624,-262.19 631,-262.19"/>
</g>
<!-- decoder.inp_mask.1 -->
<g id="node10" class="node">
<title>decoder.inp_mask.1</title>
<ellipse fill="none" stroke="black" cx="426.5" cy="-378" rx="102.08" ry="18"/>
<text text-anchor="middle" x="426.5" y="-374.3" font-family="Times,serif" font-size="14.00">decoder.inp_mask.1</text>
</g>
<!-- inp_decoder.inp_mask.1&#45;&gt;decoder.inp_mask.1 -->
<g id="edge9" class="edge">
<title>inp_decoder.inp_mask.1&#45;&gt;decoder.inp_mask.1</title>
<path fill="none" stroke="black" d="M40.7,-507C39.52,-486.15 41.08,-451.24 61.5,-432 97.36,-398.21 222.01,-385.89 315.73,-381.44"/>
<polygon fill="black" stroke="black" points="316.02,-384.93 325.85,-380.99 315.7,-377.94 316.02,-384.93"/>
</g>
<!-- decoder.inp_mask.1&#45;&gt;decoder..21 -->
<g id="edge14" class="edge">
<title>decoder.inp_mask.1&#45;&gt;decoder..21</title>
<path fill="none" stroke="black" d="M490.8,-363.92C543.1,-353.27 617.63,-338.11 676.6,-326.11"/>
<polygon fill="black" stroke="black" points="677.58,-329.48 686.68,-324.06 676.18,-322.62 677.58,-329.48"/>
</g>
<!-- decoder.inp_mask.1&#45;&gt;decoder..22 -->
<g id="edge18" class="edge">
<title>decoder.inp_mask.1&#45;&gt;decoder..22</title>
<path fill="none" stroke="black" d="M449.95,-360.43C485.82,-335.09 554.41,-286.63 595.04,-257.93"/>
<polygon fill="black" stroke="black" points="597.11,-260.75 603.26,-252.12 593.07,-255.04 597.11,-260.75"/>
</g>
<!-- decoder..20&#45;&gt;decoder..21 -->
<g id="edge11" class="edge">
<title>decoder..20&#45;&gt;decoder..21</title>
<path fill="none" stroke="black" d="M832.23,-359.7C822,-350.97 809.44,-340.24 798.32,-330.75"/>
<polygon fill="black" stroke="black" points="800.41,-327.94 790.54,-324.1 795.87,-333.26 800.41,-327.94"/>
</g>
<!-- decoder..21&#45;&gt;decoder..22 -->
<g id="edge15" class="edge">
<title>decoder..21&#45;&gt;decoder..22</title>
<path fill="none" stroke="black" d="M735.52,-287.88C716.3,-278.47 692.27,-266.71 671.76,-256.67"/>
<polygon fill="black" stroke="black" points="673.14,-253.44 662.62,-252.19 670.06,-259.73 673.14,-253.44"/>
</g>
<!-- decoder.out_0 -->
<g id="node15" class="node">
<title>decoder.out_0</title>
<ellipse fill="none" stroke="black" cx="637.5" cy="-90" rx="75.29" ry="18"/>
<text text-anchor="middle" x="637.5" y="-86.3" font-family="Times,serif" font-size="14.00">decoder.out_0</text>
</g>
<!-- decoder..21&#45;&gt;decoder.out_0 -->
<g id="edge22" class="edge">
<title>decoder..21&#45;&gt;decoder.out_0</title>
<path fill="none" stroke="black" d="M774.79,-287.84C781.64,-256.2 791.35,-187.87 760.5,-144 747.28,-125.2 725.92,-113.01 704.69,-105.14"/>
<polygon fill="black" stroke="black" points="705.57,-101.74 694.97,-101.82 703.3,-108.36 705.57,-101.74"/>
</g>
<!-- decoder..23 -->
<g id="node14" class="node">
<title>decoder..23</title>
<polygon fill="none" stroke="black" points="751,-180 524,-180 524,-144 751,-144 751,-180"/>
<text text-anchor="middle" x="637.5" y="-158.3" font-family="Times,serif" font-size="14.00">decoder.output_layer (Linear)</text>
</g>
<!-- decoder..22&#45;&gt;decoder..23 -->
<g id="edge19" class="edge">
<title>decoder..22&#45;&gt;decoder..23</title>
<path fill="none" stroke="black" d="M629.97,-215.7C631.07,-207.98 632.4,-198.71 633.63,-190.11"/>
<polygon fill="black" stroke="black" points="637.11,-190.5 635.06,-180.1 630.18,-189.51 637.11,-190.5"/>
</g>
<!-- decoder..22&#45;&gt;decoder.out_0 -->
<g id="edge21" class="edge">
<title>decoder..22&#45;&gt;decoder.out_0</title>
<path fill="none" stroke="black" d="M560.94,-215.94C543.15,-208.02 525.97,-196.54 515.5,-180 506.94,-166.48 506.73,-157.38 515.5,-144 527.97,-124.99 548.88,-112.77 569.9,-104.92"/>
<polygon fill="black" stroke="black" points="571.22,-108.17 579.54,-101.61 568.95,-101.55 571.22,-108.17"/>
</g>
<!-- decoder..23&#45;&gt;decoder.out_0 -->
<g id="edge20" class="edge">
<title>decoder..23&#45;&gt;decoder.out_0</title>
<path fill="none" stroke="black" d="M637.5,-143.7C637.5,-135.98 637.5,-126.71 637.5,-118.11"/>
<polygon fill="black" stroke="black" points="641,-118.1 637.5,-108.1 634,-118.1 641,-118.1"/>
</g>
<!-- out_0 -->
<g id="node16" class="node">
<title>out_0</title>
<ellipse fill="none" stroke="black" cx="637.5" cy="-18" rx="36.29" ry="18"/>
<text text-anchor="middle" x="637.5" y="-14.3" font-family="Times,serif" font-size="14.00">out_0</text>
</g>
<!-- decoder.out_0&#45;&gt;out_0 -->
<g id="edge23" class="edge">
<title>decoder.out_0&#45;&gt;out_0</title>
<path fill="none" stroke="black" d="M637.5,-71.7C637.5,-63.98 637.5,-54.71 637.5,-46.11"/>
<polygon fill="black" stroke="black" points="641,-46.1 637.5,-36.1 634,-46.1 641,-46.1"/>
</g>
</g>
</svg>
